%TF.GenerationSoftware,KiCad,Pcbnew,7.0.1*%
%TF.CreationDate,2023-08-04T20:18:17+09:00*%
%TF.ProjectId,FNF_Controller,464e465f-436f-46e7-9472-6f6c6c65722e,rev?*%
%TF.SameCoordinates,PX337f980PY7ed6b40*%
%TF.FileFunction,Soldermask,Top*%
%TF.FilePolarity,Negative*%
%FSLAX46Y46*%
G04 Gerber Fmt 4.6, Leading zero omitted, Abs format (unit mm)*
G04 Created by KiCad (PCBNEW 7.0.1) date 2023-08-04 20:18:17*
%MOMM*%
%LPD*%
G01*
G04 APERTURE LIST*
G04 Aperture macros list*
%AMRoundRect*
0 Rectangle with rounded corners*
0 $1 Rounding radius*
0 $2 $3 $4 $5 $6 $7 $8 $9 X,Y pos of 4 corners*
0 Add a 4 corners polygon primitive as box body*
4,1,4,$2,$3,$4,$5,$6,$7,$8,$9,$2,$3,0*
0 Add four circle primitives for the rounded corners*
1,1,$1+$1,$2,$3*
1,1,$1+$1,$4,$5*
1,1,$1+$1,$6,$7*
1,1,$1+$1,$8,$9*
0 Add four rect primitives between the rounded corners*
20,1,$1+$1,$2,$3,$4,$5,0*
20,1,$1+$1,$4,$5,$6,$7,0*
20,1,$1+$1,$6,$7,$8,$9,0*
20,1,$1+$1,$8,$9,$2,$3,0*%
G04 Aperture macros list end*
%ADD10RoundRect,0.250000X-0.600000X-0.750000X0.600000X-0.750000X0.600000X0.750000X-0.600000X0.750000X0*%
%ADD11O,1.700000X2.000000*%
%ADD12C,1.400000*%
%ADD13O,1.400000X1.400000*%
%ADD14R,2.550000X0.600000*%
%ADD15C,3.200000*%
%ADD16R,1.450000X0.400000*%
%ADD17C,1.600000*%
%ADD18C,2.000000*%
%ADD19C,0.650000*%
%ADD20R,0.600000X1.450000*%
%ADD21R,0.300000X1.450000*%
%ADD22O,1.000000X2.100000*%
%ADD23O,1.000000X1.600000*%
G04 APERTURE END LIST*
D10*
%TO.C,SW6*%
X143500000Y8000000D03*
D11*
X146000000Y8000000D03*
%TD*%
D10*
%TO.C,SW4*%
X159500000Y24000000D03*
D11*
X162000000Y24000000D03*
%TD*%
D12*
%TO.C,R6*%
X172460000Y32000000D03*
D13*
X177540000Y32000000D03*
%TD*%
D14*
%TO.C,U1*%
X59200000Y26600000D03*
X59200000Y27870000D03*
X59200000Y29140000D03*
X59200000Y30410000D03*
X59200000Y31680000D03*
X59200000Y32950000D03*
X59200000Y34220000D03*
X59200000Y35490000D03*
X52800000Y35490000D03*
X52800000Y34220000D03*
X52800000Y32950000D03*
X52800000Y31680000D03*
X52800000Y30410000D03*
X52800000Y29140000D03*
X52800000Y27870000D03*
X52800000Y26600000D03*
%TD*%
D12*
%TO.C,R7*%
X141920000Y15000000D03*
D13*
X147000000Y15000000D03*
%TD*%
D15*
%TO.C,H3*%
X11000000Y7000000D03*
%TD*%
D10*
%TO.C,SW5*%
X173500000Y24000000D03*
D11*
X176000000Y24000000D03*
%TD*%
D10*
%TO.C,SW8*%
X173500000Y8000000D03*
D11*
X176000000Y8000000D03*
%TD*%
D15*
%TO.C,H1*%
X11000000Y57000000D03*
%TD*%
D10*
%TO.C,SW3*%
X143500000Y24000000D03*
D11*
X146000000Y24000000D03*
%TD*%
D12*
%TO.C,R3*%
X172460000Y49000000D03*
D13*
X177540000Y49000000D03*
%TD*%
D12*
%TO.C,R8*%
X157920000Y15000000D03*
D13*
X163000000Y15000000D03*
%TD*%
D12*
%TO.C,R9*%
X141920000Y49000000D03*
D13*
X147000000Y49000000D03*
%TD*%
D16*
%TO.C,U2*%
X107300000Y34950000D03*
X107300000Y34300000D03*
X107300000Y33650000D03*
X107300000Y33000000D03*
X107300000Y32350000D03*
X107300000Y31700000D03*
X107300000Y31050000D03*
X107300000Y30400000D03*
X107300000Y29750000D03*
X107300000Y29100000D03*
X112900000Y29100000D03*
X112900000Y29750000D03*
X112900000Y30400000D03*
X112900000Y31050000D03*
X112900000Y31700000D03*
X112900000Y32350000D03*
X112900000Y33000000D03*
X112900000Y33650000D03*
X112900000Y34300000D03*
X112900000Y34950000D03*
%TD*%
D10*
%TO.C,SW7*%
X159000000Y8000000D03*
D11*
X161500000Y8000000D03*
%TD*%
D17*
%TO.C,C3*%
X53000000Y14000000D03*
X58000000Y14000000D03*
%TD*%
D12*
%TO.C,R1*%
X12000000Y48540000D03*
D13*
X12000000Y43460000D03*
%TD*%
D17*
%TO.C,C1*%
X68000000Y51000000D03*
X73000000Y51000000D03*
%TD*%
D12*
%TO.C,R2*%
X158460000Y49000000D03*
D13*
X163540000Y49000000D03*
%TD*%
D12*
%TO.C,R4*%
X142460000Y32000000D03*
D13*
X147540000Y32000000D03*
%TD*%
D18*
%TO.C,F1*%
X53540000Y47000000D03*
X48460000Y47010000D03*
%TD*%
D10*
%TO.C,D1*%
X143500000Y41000000D03*
D11*
X146000000Y41000000D03*
%TD*%
D12*
%TO.C,R5*%
X158460000Y32000000D03*
D13*
X163540000Y32000000D03*
%TD*%
D15*
%TO.C,H2*%
X191000000Y57000000D03*
%TD*%
D19*
%TO.C,J1*%
X27570000Y54350000D03*
X21790000Y54350000D03*
D20*
X27930000Y52905000D03*
X27130000Y52905000D03*
D21*
X25930000Y52905000D03*
X24930000Y52905000D03*
X24430000Y52905000D03*
X23430000Y52905000D03*
D20*
X22230000Y52905000D03*
X21430000Y52905000D03*
X21430000Y52905000D03*
X22230000Y52905000D03*
D21*
X22930000Y52905000D03*
X23930000Y52905000D03*
X25430000Y52905000D03*
X26430000Y52905000D03*
D20*
X27130000Y52905000D03*
X27930000Y52905000D03*
D22*
X29000000Y53820000D03*
D23*
X29000000Y58000000D03*
D22*
X20360000Y53820000D03*
D23*
X20360000Y58000000D03*
%TD*%
D17*
%TO.C,C2*%
X107000000Y51000000D03*
X112000000Y51000000D03*
%TD*%
D10*
%TO.C,SW1*%
X159500000Y41000000D03*
D11*
X162000000Y41000000D03*
%TD*%
D10*
%TO.C,SW2*%
X173500000Y41000000D03*
D11*
X176000000Y41000000D03*
%TD*%
D15*
%TO.C,H4*%
X191000000Y7000000D03*
%TD*%
M02*
