%TF.GenerationSoftware,KiCad,Pcbnew,7.0.1*%
%TF.CreationDate,2023-08-04T20:18:21+09:00*%
%TF.ProjectId,FNF_Controller,464e465f-436f-46e7-9472-6f6c6c65722e,rev?*%
%TF.SameCoordinates,PX337f980PY7ed6b40*%
%TF.FileFunction,Drillmap*%
%TF.FilePolarity,Positive*%
%FSLAX45Y45*%
G04 Gerber Fmt 4.5, Leading zero omitted, Abs format (unit mm)*
G04 Created by KiCad (PCBNEW 7.0.1) date 2023-08-04 20:18:21*
%MOMM*%
%LPD*%
G01*
G04 APERTURE LIST*
%ADD10C,0.100000*%
%ADD11C,0.200000*%
%ADD12C,0.040000*%
%ADD13C,0.060000*%
%ADD14C,0.070000*%
%ADD15C,0.080000*%
G04 APERTURE END LIST*
D10*
X0Y6300000D02*
X20000000Y6300000D01*
X20000000Y0D01*
X0Y0D01*
X0Y6300000D01*
D11*
D12*
X480000Y4720000D02*
X520000Y4680000D01*
X520000Y4720000D02*
X480000Y4680000D01*
X1080000Y3520000D02*
X1120000Y3480000D01*
X1120000Y3520000D02*
X1080000Y3480000D01*
X1780000Y5020000D02*
X1820000Y4980000D01*
X1820000Y5020000D02*
X1780000Y4980000D01*
X1780000Y2920000D02*
X1820000Y2880000D01*
X1820000Y2920000D02*
X1780000Y2880000D01*
X1780000Y1720000D02*
X1820000Y1680000D01*
X1820000Y1720000D02*
X1780000Y1680000D01*
X2080000Y4720000D02*
X2120000Y4680000D01*
X2120000Y4720000D02*
X2080000Y4680000D01*
X2080000Y3220000D02*
X2120000Y3180000D01*
X2120000Y3220000D02*
X2080000Y3180000D01*
X2380000Y4520000D02*
X2420000Y4480000D01*
X2420000Y4520000D02*
X2380000Y4480000D01*
X2480000Y4720000D02*
X2520000Y4680000D01*
X2520000Y4720000D02*
X2480000Y4680000D01*
X2680000Y4420000D02*
X2720000Y4380000D01*
X2720000Y4420000D02*
X2680000Y4380000D01*
X2680000Y3020000D02*
X2720000Y2980000D01*
X2720000Y3020000D02*
X2680000Y2980000D01*
X2980000Y1520000D02*
X3020000Y1480000D01*
X3020000Y1520000D02*
X2980000Y1480000D01*
X3880000Y5220000D02*
X3920000Y5180000D01*
X3920000Y5220000D02*
X3880000Y5180000D01*
X4080000Y3920000D02*
X4120000Y3880000D01*
X4120000Y3920000D02*
X4080000Y3880000D01*
X4180000Y1920000D02*
X4220000Y1880000D01*
X4220000Y1920000D02*
X4180000Y1880000D01*
X4280000Y5920000D02*
X4320000Y5880000D01*
X4320000Y5920000D02*
X4280000Y5880000D01*
X4580000Y420000D02*
X4620000Y380000D01*
X4620000Y420000D02*
X4580000Y380000D01*
X5680000Y5720000D02*
X5720000Y5680000D01*
X5720000Y5720000D02*
X5680000Y5680000D01*
X6780000Y820000D02*
X6820000Y780000D01*
X6820000Y820000D02*
X6780000Y780000D01*
X7280000Y3020000D02*
X7320000Y2980000D01*
X7320000Y3020000D02*
X7280000Y2980000D01*
X7280000Y2220000D02*
X7320000Y2180000D01*
X7320000Y2220000D02*
X7280000Y2180000D01*
X7780000Y4520000D02*
X7820000Y4480000D01*
X7820000Y4520000D02*
X7780000Y4480000D01*
X8480000Y1020000D02*
X8520000Y980000D01*
X8520000Y1020000D02*
X8480000Y980000D01*
X8980000Y4120000D02*
X9020000Y4080000D01*
X9020000Y4120000D02*
X8980000Y4080000D01*
X8980000Y2720000D02*
X9020000Y2680000D01*
X9020000Y2720000D02*
X8980000Y2680000D01*
X9080000Y5920000D02*
X9120000Y5880000D01*
X9120000Y5920000D02*
X9080000Y5880000D01*
X9080000Y4620000D02*
X9120000Y4580000D01*
X9120000Y4620000D02*
X9080000Y4580000D01*
X9680000Y5820000D02*
X9720000Y5780000D01*
X9720000Y5820000D02*
X9680000Y5780000D01*
X9680000Y2220000D02*
X9720000Y2180000D01*
X9720000Y2220000D02*
X9680000Y2180000D01*
X9780000Y1120000D02*
X9820000Y1080000D01*
X9820000Y1120000D02*
X9780000Y1080000D01*
X10280000Y4920000D02*
X10320000Y4880000D01*
X10320000Y4920000D02*
X10280000Y4880000D01*
X10380000Y2120000D02*
X10420000Y2080000D01*
X10420000Y2120000D02*
X10380000Y2080000D01*
X10485000Y3125000D02*
X10525000Y3085000D01*
X10525000Y3125000D02*
X10485000Y3085000D01*
X10980000Y3320000D02*
X11020000Y3280000D01*
X11020000Y3320000D02*
X10980000Y3280000D01*
X11280000Y1720000D02*
X11320000Y1680000D01*
X11320000Y1720000D02*
X11280000Y1680000D01*
X11480000Y520000D02*
X11520000Y480000D01*
X11520000Y520000D02*
X11480000Y480000D01*
X12480000Y2920000D02*
X12520000Y2880000D01*
X12520000Y2920000D02*
X12480000Y2880000D01*
X12580000Y4520000D02*
X12620000Y4480000D01*
X12620000Y4520000D02*
X12580000Y4480000D01*
X12780000Y5220000D02*
X12820000Y5180000D01*
X12820000Y5220000D02*
X12780000Y5180000D01*
X12880000Y3820000D02*
X12920000Y3780000D01*
X12920000Y3820000D02*
X12880000Y3780000D01*
X13080000Y520000D02*
X13120000Y480000D01*
X13120000Y520000D02*
X13080000Y480000D01*
X13680000Y1420000D02*
X13720000Y1380000D01*
X13720000Y1420000D02*
X13680000Y1380000D01*
X15180000Y4420000D02*
X15220000Y4380000D01*
X15220000Y4420000D02*
X15180000Y4380000D01*
X15180000Y3820000D02*
X15220000Y3780000D01*
X15220000Y3820000D02*
X15180000Y3780000D01*
X15180000Y1020000D02*
X15220000Y980000D01*
X15220000Y1020000D02*
X15180000Y980000D01*
X15280000Y2720000D02*
X15320000Y2680000D01*
X15320000Y2720000D02*
X15280000Y2680000D01*
X15580000Y5820000D02*
X15620000Y5780000D01*
X15620000Y5820000D02*
X15580000Y5780000D01*
X16780000Y4620000D02*
X16820000Y4580000D01*
X16820000Y4620000D02*
X16780000Y4580000D01*
X16780000Y3920000D02*
X16820000Y3880000D01*
X16820000Y3920000D02*
X16780000Y3880000D01*
X16980000Y2720000D02*
X17020000Y2680000D01*
X17020000Y2720000D02*
X16980000Y2680000D01*
X16980000Y1620000D02*
X17020000Y1580000D01*
X17020000Y1620000D02*
X16980000Y1580000D01*
X17280000Y5620000D02*
X17320000Y5580000D01*
X17320000Y5620000D02*
X17280000Y5580000D01*
X18380000Y1520000D02*
X18420000Y1480000D01*
X18420000Y1520000D02*
X18380000Y1480000D01*
X18780000Y4120000D02*
X18820000Y4080000D01*
X18820000Y4120000D02*
X18780000Y4080000D01*
X19080000Y2820000D02*
X19120000Y2780000D01*
X19120000Y2820000D02*
X19080000Y2780000D01*
D13*
X2066000Y5800000D02*
G75*
G03*
X2066000Y5800000I-30000J0D01*
G01*
D11*
X2066000Y5770000D02*
X2066000Y5830000D01*
X2066000Y5830000D02*
G75*
G03*
X2006000Y5830000I-30000J0D01*
G01*
X2006000Y5830000D02*
X2006000Y5770000D01*
X2006000Y5770000D02*
G75*
G03*
X2066000Y5770000I30000J0D01*
G01*
D13*
X2066000Y5382000D02*
G75*
G03*
X2066000Y5382000I-30000J0D01*
G01*
D11*
X2066000Y5327000D02*
X2066000Y5437000D01*
X2066000Y5437000D02*
G75*
G03*
X2006000Y5437000I-30000J0D01*
G01*
X2006000Y5437000D02*
X2006000Y5327000D01*
X2006000Y5327000D02*
G75*
G03*
X2066000Y5327000I30000J0D01*
G01*
D13*
X2930000Y5800000D02*
G75*
G03*
X2930000Y5800000I-30000J0D01*
G01*
D11*
X2930000Y5770000D02*
X2930000Y5830000D01*
X2930000Y5830000D02*
G75*
G03*
X2870000Y5830000I-30000J0D01*
G01*
X2870000Y5830000D02*
X2870000Y5770000D01*
X2870000Y5770000D02*
G75*
G03*
X2930000Y5770000I30000J0D01*
G01*
D13*
X2930000Y5382000D02*
G75*
G03*
X2930000Y5382000I-30000J0D01*
G01*
D11*
X2930000Y5327000D02*
X2930000Y5437000D01*
X2930000Y5437000D02*
G75*
G03*
X2870000Y5437000I-30000J0D01*
G01*
X2870000Y5437000D02*
X2870000Y5327000D01*
X2870000Y5327000D02*
G75*
G03*
X2930000Y5327000I30000J0D01*
G01*
D14*
X1200000Y4889000D02*
X1200000Y4819000D01*
X1165000Y4854000D02*
X1235000Y4854000D01*
X1200000Y4381000D02*
X1200000Y4311000D01*
X1165000Y4346000D02*
X1235000Y4346000D01*
X14192000Y4935000D02*
X14192000Y4865000D01*
X14157000Y4900000D02*
X14227000Y4900000D01*
X14192000Y1535000D02*
X14192000Y1465000D01*
X14157000Y1500000D02*
X14227000Y1500000D01*
X14246000Y3235000D02*
X14246000Y3165000D01*
X14211000Y3200000D02*
X14281000Y3200000D01*
X14700000Y4935000D02*
X14700000Y4865000D01*
X14665000Y4900000D02*
X14735000Y4900000D01*
X14700000Y1535000D02*
X14700000Y1465000D01*
X14665000Y1500000D02*
X14735000Y1500000D01*
X14754000Y3235000D02*
X14754000Y3165000D01*
X14719000Y3200000D02*
X14789000Y3200000D01*
X15792000Y1535000D02*
X15792000Y1465000D01*
X15757000Y1500000D02*
X15827000Y1500000D01*
X15846000Y4935000D02*
X15846000Y4865000D01*
X15811000Y4900000D02*
X15881000Y4900000D01*
X15846000Y3235000D02*
X15846000Y3165000D01*
X15811000Y3200000D02*
X15881000Y3200000D01*
X16300000Y1535000D02*
X16300000Y1465000D01*
X16265000Y1500000D02*
X16335000Y1500000D01*
X16354000Y4935000D02*
X16354000Y4865000D01*
X16319000Y4900000D02*
X16389000Y4900000D01*
X16354000Y3235000D02*
X16354000Y3165000D01*
X16319000Y3200000D02*
X16389000Y3200000D01*
X17246000Y4935000D02*
X17246000Y4865000D01*
X17211000Y4900000D02*
X17281000Y4900000D01*
X17246000Y3235000D02*
X17246000Y3165000D01*
X17211000Y3200000D02*
X17281000Y3200000D01*
X17754000Y4935000D02*
X17754000Y4865000D01*
X17719000Y4900000D02*
X17789000Y4900000D01*
X17754000Y3235000D02*
X17754000Y3165000D01*
X17719000Y3200000D02*
X17789000Y3200000D01*
D15*
X5328285Y1371716D02*
X5328285Y1428284D01*
X5271716Y1428284D01*
X5271716Y1371716D01*
X5328285Y1371716D01*
X5828284Y1371716D02*
X5828284Y1428284D01*
X5771715Y1428284D01*
X5771715Y1371716D01*
X5828284Y1371716D01*
X6828284Y5071716D02*
X6828284Y5128285D01*
X6771715Y5128285D01*
X6771715Y5071716D01*
X6828284Y5071716D01*
X7328284Y5071716D02*
X7328284Y5128285D01*
X7271715Y5128285D01*
X7271715Y5071716D01*
X7328284Y5071716D01*
X10728285Y5071716D02*
X10728285Y5128285D01*
X10671716Y5128285D01*
X10671716Y5071716D01*
X10728285Y5071716D01*
X11228284Y5071716D02*
X11228284Y5128285D01*
X11171716Y5128285D01*
X11171716Y5071716D01*
X11228284Y5071716D01*
D10*
X4846000Y4651000D02*
X4896000Y4701000D01*
X4846000Y4751000D01*
X4796000Y4701000D01*
X4846000Y4651000D01*
X5354000Y4650000D02*
X5404000Y4700000D01*
X5354000Y4750000D01*
X5304000Y4700000D01*
X5354000Y4650000D01*
X14350000Y4050000D02*
X14400000Y4100000D01*
X14350000Y4150000D01*
X14300000Y4100000D01*
X14350000Y4050000D01*
X14350000Y2350000D02*
X14400000Y2400000D01*
X14350000Y2450000D01*
X14300000Y2400000D01*
X14350000Y2350000D01*
X14350000Y750000D02*
X14400000Y800000D01*
X14350000Y850000D01*
X14300000Y800000D01*
X14350000Y750000D01*
X14600000Y4050000D02*
X14650000Y4100000D01*
X14600000Y4150000D01*
X14550000Y4100000D01*
X14600000Y4050000D01*
X14600000Y2350000D02*
X14650000Y2400000D01*
X14600000Y2450000D01*
X14550000Y2400000D01*
X14600000Y2350000D01*
X14600000Y750000D02*
X14650000Y800000D01*
X14600000Y850000D01*
X14550000Y800000D01*
X14600000Y750000D01*
X15900000Y750000D02*
X15950000Y800000D01*
X15900000Y850000D01*
X15850000Y800000D01*
X15900000Y750000D01*
X15950000Y4050000D02*
X16000000Y4100000D01*
X15950000Y4150000D01*
X15900000Y4100000D01*
X15950000Y4050000D01*
X15950000Y2350000D02*
X16000000Y2400000D01*
X15950000Y2450000D01*
X15900000Y2400000D01*
X15950000Y2350000D01*
X16150000Y750000D02*
X16200000Y800000D01*
X16150000Y850000D01*
X16100000Y800000D01*
X16150000Y750000D01*
X16200000Y4050000D02*
X16250000Y4100000D01*
X16200000Y4150000D01*
X16150000Y4100000D01*
X16200000Y4050000D01*
X16200000Y2350000D02*
X16250000Y2400000D01*
X16200000Y2450000D01*
X16150000Y2400000D01*
X16200000Y2350000D01*
X17350000Y4050000D02*
X17400000Y4100000D01*
X17350000Y4150000D01*
X17300000Y4100000D01*
X17350000Y4050000D01*
X17350000Y2350000D02*
X17400000Y2400000D01*
X17350000Y2450000D01*
X17300000Y2400000D01*
X17350000Y2350000D01*
X17350000Y750000D02*
X17400000Y800000D01*
X17350000Y850000D01*
X17300000Y800000D01*
X17350000Y750000D01*
X17600000Y4050000D02*
X17650000Y4100000D01*
X17600000Y4150000D01*
X17550000Y4100000D01*
X17600000Y4050000D01*
X17600000Y2350000D02*
X17650000Y2400000D01*
X17600000Y2450000D01*
X17550000Y2400000D01*
X17600000Y2350000D01*
X17600000Y750000D02*
X17650000Y800000D01*
X17600000Y850000D01*
X17550000Y800000D01*
X17600000Y750000D01*
D11*
X242619Y-317524D02*
X242619Y-117524D01*
X242619Y-117524D02*
X290238Y-117524D01*
X290238Y-117524D02*
X318810Y-127048D01*
X318810Y-127048D02*
X337857Y-146095D01*
X337857Y-146095D02*
X347381Y-165143D01*
X347381Y-165143D02*
X356905Y-203238D01*
X356905Y-203238D02*
X356905Y-231809D01*
X356905Y-231809D02*
X347381Y-269905D01*
X347381Y-269905D02*
X337857Y-288952D01*
X337857Y-288952D02*
X318810Y-308000D01*
X318810Y-308000D02*
X290238Y-317524D01*
X290238Y-317524D02*
X242619Y-317524D01*
X442619Y-317524D02*
X442619Y-184190D01*
X442619Y-222286D02*
X452143Y-203238D01*
X452143Y-203238D02*
X461667Y-193714D01*
X461667Y-193714D02*
X480714Y-184190D01*
X480714Y-184190D02*
X499762Y-184190D01*
X566429Y-317524D02*
X566429Y-184190D01*
X566429Y-117524D02*
X556905Y-127048D01*
X556905Y-127048D02*
X566429Y-136571D01*
X566429Y-136571D02*
X575952Y-127048D01*
X575952Y-127048D02*
X566429Y-117524D01*
X566429Y-117524D02*
X566429Y-136571D01*
X690238Y-317524D02*
X671190Y-308000D01*
X671190Y-308000D02*
X661667Y-288952D01*
X661667Y-288952D02*
X661667Y-117524D01*
X795000Y-317524D02*
X775952Y-308000D01*
X775952Y-308000D02*
X766428Y-288952D01*
X766428Y-288952D02*
X766428Y-117524D01*
X1023571Y-317524D02*
X1023571Y-117524D01*
X1023571Y-117524D02*
X1090238Y-260381D01*
X1090238Y-260381D02*
X1156905Y-117524D01*
X1156905Y-117524D02*
X1156905Y-317524D01*
X1337857Y-317524D02*
X1337857Y-212762D01*
X1337857Y-212762D02*
X1328333Y-193714D01*
X1328333Y-193714D02*
X1309286Y-184190D01*
X1309286Y-184190D02*
X1271190Y-184190D01*
X1271190Y-184190D02*
X1252143Y-193714D01*
X1337857Y-308000D02*
X1318810Y-317524D01*
X1318810Y-317524D02*
X1271190Y-317524D01*
X1271190Y-317524D02*
X1252143Y-308000D01*
X1252143Y-308000D02*
X1242619Y-288952D01*
X1242619Y-288952D02*
X1242619Y-269905D01*
X1242619Y-269905D02*
X1252143Y-250857D01*
X1252143Y-250857D02*
X1271190Y-241333D01*
X1271190Y-241333D02*
X1318810Y-241333D01*
X1318810Y-241333D02*
X1337857Y-231809D01*
X1433095Y-184190D02*
X1433095Y-384190D01*
X1433095Y-193714D02*
X1452143Y-184190D01*
X1452143Y-184190D02*
X1490238Y-184190D01*
X1490238Y-184190D02*
X1509286Y-193714D01*
X1509286Y-193714D02*
X1518809Y-203238D01*
X1518809Y-203238D02*
X1528333Y-222286D01*
X1528333Y-222286D02*
X1528333Y-279429D01*
X1528333Y-279429D02*
X1518809Y-298476D01*
X1518809Y-298476D02*
X1509286Y-308000D01*
X1509286Y-308000D02*
X1490238Y-317524D01*
X1490238Y-317524D02*
X1452143Y-317524D01*
X1452143Y-317524D02*
X1433095Y-308000D01*
X1614048Y-298476D02*
X1623571Y-308000D01*
X1623571Y-308000D02*
X1614048Y-317524D01*
X1614048Y-317524D02*
X1604524Y-308000D01*
X1604524Y-308000D02*
X1614048Y-298476D01*
X1614048Y-298476D02*
X1614048Y-317524D01*
X1614048Y-193714D02*
X1623571Y-203238D01*
X1623571Y-203238D02*
X1614048Y-212762D01*
X1614048Y-212762D02*
X1604524Y-203238D01*
X1604524Y-203238D02*
X1614048Y-193714D01*
X1614048Y-193714D02*
X1614048Y-212762D01*
D12*
X-45000Y-625000D02*
X-5000Y-665000D01*
X-5000Y-625000D02*
X-45000Y-665000D01*
D11*
X280714Y-537524D02*
X299762Y-537524D01*
X299762Y-537524D02*
X318810Y-547048D01*
X318810Y-547048D02*
X328333Y-556571D01*
X328333Y-556571D02*
X337857Y-575619D01*
X337857Y-575619D02*
X347381Y-613714D01*
X347381Y-613714D02*
X347381Y-661333D01*
X347381Y-661333D02*
X337857Y-699428D01*
X337857Y-699428D02*
X328333Y-718476D01*
X328333Y-718476D02*
X318810Y-728000D01*
X318810Y-728000D02*
X299762Y-737524D01*
X299762Y-737524D02*
X280714Y-737524D01*
X280714Y-737524D02*
X261667Y-728000D01*
X261667Y-728000D02*
X252143Y-718476D01*
X252143Y-718476D02*
X242619Y-699428D01*
X242619Y-699428D02*
X233095Y-661333D01*
X233095Y-661333D02*
X233095Y-613714D01*
X233095Y-613714D02*
X242619Y-575619D01*
X242619Y-575619D02*
X252143Y-556571D01*
X252143Y-556571D02*
X261667Y-547048D01*
X261667Y-547048D02*
X280714Y-537524D01*
X433095Y-718476D02*
X442619Y-728000D01*
X442619Y-728000D02*
X433095Y-737524D01*
X433095Y-737524D02*
X423571Y-728000D01*
X423571Y-728000D02*
X433095Y-718476D01*
X433095Y-718476D02*
X433095Y-737524D01*
X614048Y-604190D02*
X614048Y-737524D01*
X566429Y-528000D02*
X518809Y-670857D01*
X518809Y-670857D02*
X642619Y-670857D01*
X756905Y-537524D02*
X775952Y-537524D01*
X775952Y-537524D02*
X795000Y-547048D01*
X795000Y-547048D02*
X804524Y-556571D01*
X804524Y-556571D02*
X814048Y-575619D01*
X814048Y-575619D02*
X823571Y-613714D01*
X823571Y-613714D02*
X823571Y-661333D01*
X823571Y-661333D02*
X814048Y-699428D01*
X814048Y-699428D02*
X804524Y-718476D01*
X804524Y-718476D02*
X795000Y-728000D01*
X795000Y-728000D02*
X775952Y-737524D01*
X775952Y-737524D02*
X756905Y-737524D01*
X756905Y-737524D02*
X737857Y-728000D01*
X737857Y-728000D02*
X728333Y-718476D01*
X728333Y-718476D02*
X718809Y-699428D01*
X718809Y-699428D02*
X709286Y-661333D01*
X709286Y-661333D02*
X709286Y-613714D01*
X709286Y-613714D02*
X718809Y-575619D01*
X718809Y-575619D02*
X728333Y-556571D01*
X728333Y-556571D02*
X737857Y-547048D01*
X737857Y-547048D02*
X756905Y-537524D01*
X947381Y-537524D02*
X966429Y-537524D01*
X966429Y-537524D02*
X985476Y-547048D01*
X985476Y-547048D02*
X995000Y-556571D01*
X995000Y-556571D02*
X1004524Y-575619D01*
X1004524Y-575619D02*
X1014048Y-613714D01*
X1014048Y-613714D02*
X1014048Y-661333D01*
X1014048Y-661333D02*
X1004524Y-699428D01*
X1004524Y-699428D02*
X995000Y-718476D01*
X995000Y-718476D02*
X985476Y-728000D01*
X985476Y-728000D02*
X966429Y-737524D01*
X966429Y-737524D02*
X947381Y-737524D01*
X947381Y-737524D02*
X928333Y-728000D01*
X928333Y-728000D02*
X918809Y-718476D01*
X918809Y-718476D02*
X909286Y-699428D01*
X909286Y-699428D02*
X899762Y-661333D01*
X899762Y-661333D02*
X899762Y-613714D01*
X899762Y-613714D02*
X909286Y-575619D01*
X909286Y-575619D02*
X918809Y-556571D01*
X918809Y-556571D02*
X928333Y-547048D01*
X928333Y-547048D02*
X947381Y-537524D01*
X1099762Y-737524D02*
X1099762Y-604190D01*
X1099762Y-623238D02*
X1109286Y-613714D01*
X1109286Y-613714D02*
X1128333Y-604190D01*
X1128333Y-604190D02*
X1156905Y-604190D01*
X1156905Y-604190D02*
X1175952Y-613714D01*
X1175952Y-613714D02*
X1185476Y-632762D01*
X1185476Y-632762D02*
X1185476Y-737524D01*
X1185476Y-632762D02*
X1195000Y-613714D01*
X1195000Y-613714D02*
X1214048Y-604190D01*
X1214048Y-604190D02*
X1242619Y-604190D01*
X1242619Y-604190D02*
X1261667Y-613714D01*
X1261667Y-613714D02*
X1271191Y-632762D01*
X1271191Y-632762D02*
X1271191Y-737524D01*
X1366429Y-737524D02*
X1366429Y-604190D01*
X1366429Y-623238D02*
X1375952Y-613714D01*
X1375952Y-613714D02*
X1395000Y-604190D01*
X1395000Y-604190D02*
X1423571Y-604190D01*
X1423571Y-604190D02*
X1442619Y-613714D01*
X1442619Y-613714D02*
X1452143Y-632762D01*
X1452143Y-632762D02*
X1452143Y-737524D01*
X1452143Y-632762D02*
X1461667Y-613714D01*
X1461667Y-613714D02*
X1480714Y-604190D01*
X1480714Y-604190D02*
X1509286Y-604190D01*
X1509286Y-604190D02*
X1528333Y-613714D01*
X1528333Y-613714D02*
X1537857Y-632762D01*
X1537857Y-632762D02*
X1537857Y-737524D01*
X1928333Y-528000D02*
X1756905Y-785143D01*
X2185476Y-537524D02*
X2204524Y-537524D01*
X2204524Y-537524D02*
X2223572Y-547048D01*
X2223572Y-547048D02*
X2233095Y-556571D01*
X2233095Y-556571D02*
X2242619Y-575619D01*
X2242619Y-575619D02*
X2252143Y-613714D01*
X2252143Y-613714D02*
X2252143Y-661333D01*
X2252143Y-661333D02*
X2242619Y-699428D01*
X2242619Y-699428D02*
X2233095Y-718476D01*
X2233095Y-718476D02*
X2223572Y-728000D01*
X2223572Y-728000D02*
X2204524Y-737524D01*
X2204524Y-737524D02*
X2185476Y-737524D01*
X2185476Y-737524D02*
X2166429Y-728000D01*
X2166429Y-728000D02*
X2156905Y-718476D01*
X2156905Y-718476D02*
X2147381Y-699428D01*
X2147381Y-699428D02*
X2137857Y-661333D01*
X2137857Y-661333D02*
X2137857Y-613714D01*
X2137857Y-613714D02*
X2147381Y-575619D01*
X2147381Y-575619D02*
X2156905Y-556571D01*
X2156905Y-556571D02*
X2166429Y-547048D01*
X2166429Y-547048D02*
X2185476Y-537524D01*
X2337857Y-718476D02*
X2347381Y-728000D01*
X2347381Y-728000D02*
X2337857Y-737524D01*
X2337857Y-737524D02*
X2328334Y-728000D01*
X2328334Y-728000D02*
X2337857Y-718476D01*
X2337857Y-718476D02*
X2337857Y-737524D01*
X2471191Y-537524D02*
X2490238Y-537524D01*
X2490238Y-537524D02*
X2509286Y-547048D01*
X2509286Y-547048D02*
X2518810Y-556571D01*
X2518810Y-556571D02*
X2528334Y-575619D01*
X2528334Y-575619D02*
X2537857Y-613714D01*
X2537857Y-613714D02*
X2537857Y-661333D01*
X2537857Y-661333D02*
X2528334Y-699428D01*
X2528334Y-699428D02*
X2518810Y-718476D01*
X2518810Y-718476D02*
X2509286Y-728000D01*
X2509286Y-728000D02*
X2490238Y-737524D01*
X2490238Y-737524D02*
X2471191Y-737524D01*
X2471191Y-737524D02*
X2452143Y-728000D01*
X2452143Y-728000D02*
X2442619Y-718476D01*
X2442619Y-718476D02*
X2433095Y-699428D01*
X2433095Y-699428D02*
X2423572Y-661333D01*
X2423572Y-661333D02*
X2423572Y-613714D01*
X2423572Y-613714D02*
X2433095Y-575619D01*
X2433095Y-575619D02*
X2442619Y-556571D01*
X2442619Y-556571D02*
X2452143Y-547048D01*
X2452143Y-547048D02*
X2471191Y-537524D01*
X2728334Y-737524D02*
X2614048Y-737524D01*
X2671191Y-737524D02*
X2671191Y-537524D01*
X2671191Y-537524D02*
X2652143Y-566095D01*
X2652143Y-566095D02*
X2633095Y-585143D01*
X2633095Y-585143D02*
X2614048Y-594667D01*
X2909286Y-537524D02*
X2814048Y-537524D01*
X2814048Y-537524D02*
X2804524Y-632762D01*
X2804524Y-632762D02*
X2814048Y-623238D01*
X2814048Y-623238D02*
X2833095Y-613714D01*
X2833095Y-613714D02*
X2880714Y-613714D01*
X2880714Y-613714D02*
X2899762Y-623238D01*
X2899762Y-623238D02*
X2909286Y-632762D01*
X2909286Y-632762D02*
X2918810Y-651810D01*
X2918810Y-651810D02*
X2918810Y-699428D01*
X2918810Y-699428D02*
X2909286Y-718476D01*
X2909286Y-718476D02*
X2899762Y-728000D01*
X2899762Y-728000D02*
X2880714Y-737524D01*
X2880714Y-737524D02*
X2833095Y-737524D01*
X2833095Y-737524D02*
X2814048Y-728000D01*
X2814048Y-728000D02*
X2804524Y-718476D01*
X2985476Y-537524D02*
X3118810Y-537524D01*
X3118810Y-537524D02*
X3033095Y-737524D01*
X3185476Y-537524D02*
X3185476Y-575619D01*
X3261667Y-537524D02*
X3261667Y-575619D01*
X3556905Y-813714D02*
X3547381Y-804190D01*
X3547381Y-804190D02*
X3528334Y-775619D01*
X3528334Y-775619D02*
X3518810Y-756571D01*
X3518810Y-756571D02*
X3509286Y-728000D01*
X3509286Y-728000D02*
X3499762Y-680381D01*
X3499762Y-680381D02*
X3499762Y-642286D01*
X3499762Y-642286D02*
X3509286Y-594667D01*
X3509286Y-594667D02*
X3518810Y-566095D01*
X3518810Y-566095D02*
X3528334Y-547048D01*
X3528334Y-547048D02*
X3547381Y-518476D01*
X3547381Y-518476D02*
X3556905Y-508952D01*
X3728334Y-537524D02*
X3633095Y-537524D01*
X3633095Y-537524D02*
X3623572Y-632762D01*
X3623572Y-632762D02*
X3633095Y-623238D01*
X3633095Y-623238D02*
X3652143Y-613714D01*
X3652143Y-613714D02*
X3699762Y-613714D01*
X3699762Y-613714D02*
X3718810Y-623238D01*
X3718810Y-623238D02*
X3728334Y-632762D01*
X3728334Y-632762D02*
X3737857Y-651810D01*
X3737857Y-651810D02*
X3737857Y-699428D01*
X3737857Y-699428D02*
X3728334Y-718476D01*
X3728334Y-718476D02*
X3718810Y-728000D01*
X3718810Y-728000D02*
X3699762Y-737524D01*
X3699762Y-737524D02*
X3652143Y-737524D01*
X3652143Y-737524D02*
X3633095Y-728000D01*
X3633095Y-728000D02*
X3623572Y-718476D01*
X3918810Y-537524D02*
X3823572Y-537524D01*
X3823572Y-537524D02*
X3814048Y-632762D01*
X3814048Y-632762D02*
X3823572Y-623238D01*
X3823572Y-623238D02*
X3842619Y-613714D01*
X3842619Y-613714D02*
X3890238Y-613714D01*
X3890238Y-613714D02*
X3909286Y-623238D01*
X3909286Y-623238D02*
X3918810Y-632762D01*
X3918810Y-632762D02*
X3928334Y-651810D01*
X3928334Y-651810D02*
X3928334Y-699428D01*
X3928334Y-699428D02*
X3918810Y-718476D01*
X3918810Y-718476D02*
X3909286Y-728000D01*
X3909286Y-728000D02*
X3890238Y-737524D01*
X3890238Y-737524D02*
X3842619Y-737524D01*
X3842619Y-737524D02*
X3823572Y-728000D01*
X3823572Y-728000D02*
X3814048Y-718476D01*
X4166429Y-737524D02*
X4166429Y-537524D01*
X4252143Y-737524D02*
X4252143Y-632762D01*
X4252143Y-632762D02*
X4242619Y-613714D01*
X4242619Y-613714D02*
X4223572Y-604190D01*
X4223572Y-604190D02*
X4195000Y-604190D01*
X4195000Y-604190D02*
X4175953Y-613714D01*
X4175953Y-613714D02*
X4166429Y-623238D01*
X4375953Y-737524D02*
X4356905Y-728000D01*
X4356905Y-728000D02*
X4347381Y-718476D01*
X4347381Y-718476D02*
X4337858Y-699428D01*
X4337858Y-699428D02*
X4337858Y-642286D01*
X4337858Y-642286D02*
X4347381Y-623238D01*
X4347381Y-623238D02*
X4356905Y-613714D01*
X4356905Y-613714D02*
X4375953Y-604190D01*
X4375953Y-604190D02*
X4404524Y-604190D01*
X4404524Y-604190D02*
X4423572Y-613714D01*
X4423572Y-613714D02*
X4433096Y-623238D01*
X4433096Y-623238D02*
X4442619Y-642286D01*
X4442619Y-642286D02*
X4442619Y-699428D01*
X4442619Y-699428D02*
X4433096Y-718476D01*
X4433096Y-718476D02*
X4423572Y-728000D01*
X4423572Y-728000D02*
X4404524Y-737524D01*
X4404524Y-737524D02*
X4375953Y-737524D01*
X4556905Y-737524D02*
X4537858Y-728000D01*
X4537858Y-728000D02*
X4528334Y-708952D01*
X4528334Y-708952D02*
X4528334Y-537524D01*
X4709286Y-728000D02*
X4690239Y-737524D01*
X4690239Y-737524D02*
X4652143Y-737524D01*
X4652143Y-737524D02*
X4633096Y-728000D01*
X4633096Y-728000D02*
X4623572Y-708952D01*
X4623572Y-708952D02*
X4623572Y-632762D01*
X4623572Y-632762D02*
X4633096Y-613714D01*
X4633096Y-613714D02*
X4652143Y-604190D01*
X4652143Y-604190D02*
X4690239Y-604190D01*
X4690239Y-604190D02*
X4709286Y-613714D01*
X4709286Y-613714D02*
X4718810Y-632762D01*
X4718810Y-632762D02*
X4718810Y-651810D01*
X4718810Y-651810D02*
X4623572Y-670857D01*
X4795000Y-728000D02*
X4814048Y-737524D01*
X4814048Y-737524D02*
X4852143Y-737524D01*
X4852143Y-737524D02*
X4871191Y-728000D01*
X4871191Y-728000D02*
X4880715Y-708952D01*
X4880715Y-708952D02*
X4880715Y-699428D01*
X4880715Y-699428D02*
X4871191Y-680381D01*
X4871191Y-680381D02*
X4852143Y-670857D01*
X4852143Y-670857D02*
X4823572Y-670857D01*
X4823572Y-670857D02*
X4804524Y-661333D01*
X4804524Y-661333D02*
X4795000Y-642286D01*
X4795000Y-642286D02*
X4795000Y-632762D01*
X4795000Y-632762D02*
X4804524Y-613714D01*
X4804524Y-613714D02*
X4823572Y-604190D01*
X4823572Y-604190D02*
X4852143Y-604190D01*
X4852143Y-604190D02*
X4871191Y-613714D01*
X4947381Y-813714D02*
X4956905Y-804190D01*
X4956905Y-804190D02*
X4975953Y-775619D01*
X4975953Y-775619D02*
X4985477Y-756571D01*
X4985477Y-756571D02*
X4995000Y-728000D01*
X4995000Y-728000D02*
X5004524Y-680381D01*
X5004524Y-680381D02*
X5004524Y-642286D01*
X5004524Y-642286D02*
X4995000Y-594667D01*
X4995000Y-594667D02*
X4985477Y-566095D01*
X4985477Y-566095D02*
X4975953Y-547048D01*
X4975953Y-547048D02*
X4956905Y-518476D01*
X4956905Y-518476D02*
X4947381Y-508952D01*
D13*
X-5000Y-909000D02*
G75*
G03*
X-5000Y-909000I-30000J0D01*
G01*
D11*
X280714Y-801524D02*
X299762Y-801524D01*
X299762Y-801524D02*
X318810Y-811048D01*
X318810Y-811048D02*
X328333Y-820571D01*
X328333Y-820571D02*
X337857Y-839619D01*
X337857Y-839619D02*
X347381Y-877714D01*
X347381Y-877714D02*
X347381Y-925333D01*
X347381Y-925333D02*
X337857Y-963428D01*
X337857Y-963428D02*
X328333Y-982476D01*
X328333Y-982476D02*
X318810Y-992000D01*
X318810Y-992000D02*
X299762Y-1001524D01*
X299762Y-1001524D02*
X280714Y-1001524D01*
X280714Y-1001524D02*
X261667Y-992000D01*
X261667Y-992000D02*
X252143Y-982476D01*
X252143Y-982476D02*
X242619Y-963428D01*
X242619Y-963428D02*
X233095Y-925333D01*
X233095Y-925333D02*
X233095Y-877714D01*
X233095Y-877714D02*
X242619Y-839619D01*
X242619Y-839619D02*
X252143Y-820571D01*
X252143Y-820571D02*
X261667Y-811048D01*
X261667Y-811048D02*
X280714Y-801524D01*
X433095Y-982476D02*
X442619Y-992000D01*
X442619Y-992000D02*
X433095Y-1001524D01*
X433095Y-1001524D02*
X423571Y-992000D01*
X423571Y-992000D02*
X433095Y-982476D01*
X433095Y-982476D02*
X433095Y-1001524D01*
X614048Y-801524D02*
X575952Y-801524D01*
X575952Y-801524D02*
X556905Y-811048D01*
X556905Y-811048D02*
X547381Y-820571D01*
X547381Y-820571D02*
X528333Y-849143D01*
X528333Y-849143D02*
X518809Y-887238D01*
X518809Y-887238D02*
X518809Y-963428D01*
X518809Y-963428D02*
X528333Y-982476D01*
X528333Y-982476D02*
X537857Y-992000D01*
X537857Y-992000D02*
X556905Y-1001524D01*
X556905Y-1001524D02*
X595000Y-1001524D01*
X595000Y-1001524D02*
X614048Y-992000D01*
X614048Y-992000D02*
X623571Y-982476D01*
X623571Y-982476D02*
X633095Y-963428D01*
X633095Y-963428D02*
X633095Y-915809D01*
X633095Y-915809D02*
X623571Y-896762D01*
X623571Y-896762D02*
X614048Y-887238D01*
X614048Y-887238D02*
X595000Y-877714D01*
X595000Y-877714D02*
X556905Y-877714D01*
X556905Y-877714D02*
X537857Y-887238D01*
X537857Y-887238D02*
X528333Y-896762D01*
X528333Y-896762D02*
X518809Y-915809D01*
X756905Y-801524D02*
X775952Y-801524D01*
X775952Y-801524D02*
X795000Y-811048D01*
X795000Y-811048D02*
X804524Y-820571D01*
X804524Y-820571D02*
X814048Y-839619D01*
X814048Y-839619D02*
X823571Y-877714D01*
X823571Y-877714D02*
X823571Y-925333D01*
X823571Y-925333D02*
X814048Y-963428D01*
X814048Y-963428D02*
X804524Y-982476D01*
X804524Y-982476D02*
X795000Y-992000D01*
X795000Y-992000D02*
X775952Y-1001524D01*
X775952Y-1001524D02*
X756905Y-1001524D01*
X756905Y-1001524D02*
X737857Y-992000D01*
X737857Y-992000D02*
X728333Y-982476D01*
X728333Y-982476D02*
X718809Y-963428D01*
X718809Y-963428D02*
X709286Y-925333D01*
X709286Y-925333D02*
X709286Y-877714D01*
X709286Y-877714D02*
X718809Y-839619D01*
X718809Y-839619D02*
X728333Y-820571D01*
X728333Y-820571D02*
X737857Y-811048D01*
X737857Y-811048D02*
X756905Y-801524D01*
X947381Y-801524D02*
X966429Y-801524D01*
X966429Y-801524D02*
X985476Y-811048D01*
X985476Y-811048D02*
X995000Y-820571D01*
X995000Y-820571D02*
X1004524Y-839619D01*
X1004524Y-839619D02*
X1014048Y-877714D01*
X1014048Y-877714D02*
X1014048Y-925333D01*
X1014048Y-925333D02*
X1004524Y-963428D01*
X1004524Y-963428D02*
X995000Y-982476D01*
X995000Y-982476D02*
X985476Y-992000D01*
X985476Y-992000D02*
X966429Y-1001524D01*
X966429Y-1001524D02*
X947381Y-1001524D01*
X947381Y-1001524D02*
X928333Y-992000D01*
X928333Y-992000D02*
X918809Y-982476D01*
X918809Y-982476D02*
X909286Y-963428D01*
X909286Y-963428D02*
X899762Y-925333D01*
X899762Y-925333D02*
X899762Y-877714D01*
X899762Y-877714D02*
X909286Y-839619D01*
X909286Y-839619D02*
X918809Y-820571D01*
X918809Y-820571D02*
X928333Y-811048D01*
X928333Y-811048D02*
X947381Y-801524D01*
X1099762Y-1001524D02*
X1099762Y-868190D01*
X1099762Y-887238D02*
X1109286Y-877714D01*
X1109286Y-877714D02*
X1128333Y-868190D01*
X1128333Y-868190D02*
X1156905Y-868190D01*
X1156905Y-868190D02*
X1175952Y-877714D01*
X1175952Y-877714D02*
X1185476Y-896762D01*
X1185476Y-896762D02*
X1185476Y-1001524D01*
X1185476Y-896762D02*
X1195000Y-877714D01*
X1195000Y-877714D02*
X1214048Y-868190D01*
X1214048Y-868190D02*
X1242619Y-868190D01*
X1242619Y-868190D02*
X1261667Y-877714D01*
X1261667Y-877714D02*
X1271191Y-896762D01*
X1271191Y-896762D02*
X1271191Y-1001524D01*
X1366429Y-1001524D02*
X1366429Y-868190D01*
X1366429Y-887238D02*
X1375952Y-877714D01*
X1375952Y-877714D02*
X1395000Y-868190D01*
X1395000Y-868190D02*
X1423571Y-868190D01*
X1423571Y-868190D02*
X1442619Y-877714D01*
X1442619Y-877714D02*
X1452143Y-896762D01*
X1452143Y-896762D02*
X1452143Y-1001524D01*
X1452143Y-896762D02*
X1461667Y-877714D01*
X1461667Y-877714D02*
X1480714Y-868190D01*
X1480714Y-868190D02*
X1509286Y-868190D01*
X1509286Y-868190D02*
X1528333Y-877714D01*
X1528333Y-877714D02*
X1537857Y-896762D01*
X1537857Y-896762D02*
X1537857Y-1001524D01*
X1928333Y-792000D02*
X1756905Y-1049143D01*
X2185476Y-801524D02*
X2204524Y-801524D01*
X2204524Y-801524D02*
X2223572Y-811048D01*
X2223572Y-811048D02*
X2233095Y-820571D01*
X2233095Y-820571D02*
X2242619Y-839619D01*
X2242619Y-839619D02*
X2252143Y-877714D01*
X2252143Y-877714D02*
X2252143Y-925333D01*
X2252143Y-925333D02*
X2242619Y-963428D01*
X2242619Y-963428D02*
X2233095Y-982476D01*
X2233095Y-982476D02*
X2223572Y-992000D01*
X2223572Y-992000D02*
X2204524Y-1001524D01*
X2204524Y-1001524D02*
X2185476Y-1001524D01*
X2185476Y-1001524D02*
X2166429Y-992000D01*
X2166429Y-992000D02*
X2156905Y-982476D01*
X2156905Y-982476D02*
X2147381Y-963428D01*
X2147381Y-963428D02*
X2137857Y-925333D01*
X2137857Y-925333D02*
X2137857Y-877714D01*
X2137857Y-877714D02*
X2147381Y-839619D01*
X2147381Y-839619D02*
X2156905Y-820571D01*
X2156905Y-820571D02*
X2166429Y-811048D01*
X2166429Y-811048D02*
X2185476Y-801524D01*
X2337857Y-982476D02*
X2347381Y-992000D01*
X2347381Y-992000D02*
X2337857Y-1001524D01*
X2337857Y-1001524D02*
X2328334Y-992000D01*
X2328334Y-992000D02*
X2337857Y-982476D01*
X2337857Y-982476D02*
X2337857Y-1001524D01*
X2471191Y-801524D02*
X2490238Y-801524D01*
X2490238Y-801524D02*
X2509286Y-811048D01*
X2509286Y-811048D02*
X2518810Y-820571D01*
X2518810Y-820571D02*
X2528334Y-839619D01*
X2528334Y-839619D02*
X2537857Y-877714D01*
X2537857Y-877714D02*
X2537857Y-925333D01*
X2537857Y-925333D02*
X2528334Y-963428D01*
X2528334Y-963428D02*
X2518810Y-982476D01*
X2518810Y-982476D02*
X2509286Y-992000D01*
X2509286Y-992000D02*
X2490238Y-1001524D01*
X2490238Y-1001524D02*
X2471191Y-1001524D01*
X2471191Y-1001524D02*
X2452143Y-992000D01*
X2452143Y-992000D02*
X2442619Y-982476D01*
X2442619Y-982476D02*
X2433095Y-963428D01*
X2433095Y-963428D02*
X2423572Y-925333D01*
X2423572Y-925333D02*
X2423572Y-877714D01*
X2423572Y-877714D02*
X2433095Y-839619D01*
X2433095Y-839619D02*
X2442619Y-820571D01*
X2442619Y-820571D02*
X2452143Y-811048D01*
X2452143Y-811048D02*
X2471191Y-801524D01*
X2614048Y-820571D02*
X2623572Y-811048D01*
X2623572Y-811048D02*
X2642619Y-801524D01*
X2642619Y-801524D02*
X2690238Y-801524D01*
X2690238Y-801524D02*
X2709286Y-811048D01*
X2709286Y-811048D02*
X2718810Y-820571D01*
X2718810Y-820571D02*
X2728334Y-839619D01*
X2728334Y-839619D02*
X2728334Y-858667D01*
X2728334Y-858667D02*
X2718810Y-887238D01*
X2718810Y-887238D02*
X2604524Y-1001524D01*
X2604524Y-1001524D02*
X2728334Y-1001524D01*
X2795000Y-801524D02*
X2918810Y-801524D01*
X2918810Y-801524D02*
X2852143Y-877714D01*
X2852143Y-877714D02*
X2880714Y-877714D01*
X2880714Y-877714D02*
X2899762Y-887238D01*
X2899762Y-887238D02*
X2909286Y-896762D01*
X2909286Y-896762D02*
X2918810Y-915809D01*
X2918810Y-915809D02*
X2918810Y-963428D01*
X2918810Y-963428D02*
X2909286Y-982476D01*
X2909286Y-982476D02*
X2899762Y-992000D01*
X2899762Y-992000D02*
X2880714Y-1001524D01*
X2880714Y-1001524D02*
X2823572Y-1001524D01*
X2823572Y-1001524D02*
X2804524Y-992000D01*
X2804524Y-992000D02*
X2795000Y-982476D01*
X3090238Y-801524D02*
X3052143Y-801524D01*
X3052143Y-801524D02*
X3033095Y-811048D01*
X3033095Y-811048D02*
X3023572Y-820571D01*
X3023572Y-820571D02*
X3004524Y-849143D01*
X3004524Y-849143D02*
X2995000Y-887238D01*
X2995000Y-887238D02*
X2995000Y-963428D01*
X2995000Y-963428D02*
X3004524Y-982476D01*
X3004524Y-982476D02*
X3014048Y-992000D01*
X3014048Y-992000D02*
X3033095Y-1001524D01*
X3033095Y-1001524D02*
X3071191Y-1001524D01*
X3071191Y-1001524D02*
X3090238Y-992000D01*
X3090238Y-992000D02*
X3099762Y-982476D01*
X3099762Y-982476D02*
X3109286Y-963428D01*
X3109286Y-963428D02*
X3109286Y-915809D01*
X3109286Y-915809D02*
X3099762Y-896762D01*
X3099762Y-896762D02*
X3090238Y-887238D01*
X3090238Y-887238D02*
X3071191Y-877714D01*
X3071191Y-877714D02*
X3033095Y-877714D01*
X3033095Y-877714D02*
X3014048Y-887238D01*
X3014048Y-887238D02*
X3004524Y-896762D01*
X3004524Y-896762D02*
X2995000Y-915809D01*
X3185476Y-801524D02*
X3185476Y-839619D01*
X3261667Y-801524D02*
X3261667Y-839619D01*
X3556905Y-1077714D02*
X3547381Y-1068190D01*
X3547381Y-1068190D02*
X3528334Y-1039619D01*
X3528334Y-1039619D02*
X3518810Y-1020571D01*
X3518810Y-1020571D02*
X3509286Y-992000D01*
X3509286Y-992000D02*
X3499762Y-944381D01*
X3499762Y-944381D02*
X3499762Y-906286D01*
X3499762Y-906286D02*
X3509286Y-858667D01*
X3509286Y-858667D02*
X3518810Y-830095D01*
X3518810Y-830095D02*
X3528334Y-811048D01*
X3528334Y-811048D02*
X3547381Y-782476D01*
X3547381Y-782476D02*
X3556905Y-772952D01*
X3671191Y-801524D02*
X3690238Y-801524D01*
X3690238Y-801524D02*
X3709286Y-811048D01*
X3709286Y-811048D02*
X3718810Y-820571D01*
X3718810Y-820571D02*
X3728334Y-839619D01*
X3728334Y-839619D02*
X3737857Y-877714D01*
X3737857Y-877714D02*
X3737857Y-925333D01*
X3737857Y-925333D02*
X3728334Y-963428D01*
X3728334Y-963428D02*
X3718810Y-982476D01*
X3718810Y-982476D02*
X3709286Y-992000D01*
X3709286Y-992000D02*
X3690238Y-1001524D01*
X3690238Y-1001524D02*
X3671191Y-1001524D01*
X3671191Y-1001524D02*
X3652143Y-992000D01*
X3652143Y-992000D02*
X3642619Y-982476D01*
X3642619Y-982476D02*
X3633095Y-963428D01*
X3633095Y-963428D02*
X3623572Y-925333D01*
X3623572Y-925333D02*
X3623572Y-877714D01*
X3623572Y-877714D02*
X3633095Y-839619D01*
X3633095Y-839619D02*
X3642619Y-820571D01*
X3642619Y-820571D02*
X3652143Y-811048D01*
X3652143Y-811048D02*
X3671191Y-801524D01*
X3975953Y-1001524D02*
X3975953Y-801524D01*
X4061667Y-1001524D02*
X4061667Y-896762D01*
X4061667Y-896762D02*
X4052143Y-877714D01*
X4052143Y-877714D02*
X4033096Y-868190D01*
X4033096Y-868190D02*
X4004524Y-868190D01*
X4004524Y-868190D02*
X3985476Y-877714D01*
X3985476Y-877714D02*
X3975953Y-887238D01*
X4185476Y-1001524D02*
X4166429Y-992000D01*
X4166429Y-992000D02*
X4156905Y-982476D01*
X4156905Y-982476D02*
X4147381Y-963428D01*
X4147381Y-963428D02*
X4147381Y-906286D01*
X4147381Y-906286D02*
X4156905Y-887238D01*
X4156905Y-887238D02*
X4166429Y-877714D01*
X4166429Y-877714D02*
X4185476Y-868190D01*
X4185476Y-868190D02*
X4214048Y-868190D01*
X4214048Y-868190D02*
X4233096Y-877714D01*
X4233096Y-877714D02*
X4242619Y-887238D01*
X4242619Y-887238D02*
X4252143Y-906286D01*
X4252143Y-906286D02*
X4252143Y-963428D01*
X4252143Y-963428D02*
X4242619Y-982476D01*
X4242619Y-982476D02*
X4233096Y-992000D01*
X4233096Y-992000D02*
X4214048Y-1001524D01*
X4214048Y-1001524D02*
X4185476Y-1001524D01*
X4366429Y-1001524D02*
X4347381Y-992000D01*
X4347381Y-992000D02*
X4337858Y-972952D01*
X4337858Y-972952D02*
X4337858Y-801524D01*
X4518810Y-992000D02*
X4499762Y-1001524D01*
X4499762Y-1001524D02*
X4461667Y-1001524D01*
X4461667Y-1001524D02*
X4442619Y-992000D01*
X4442619Y-992000D02*
X4433096Y-972952D01*
X4433096Y-972952D02*
X4433096Y-896762D01*
X4433096Y-896762D02*
X4442619Y-877714D01*
X4442619Y-877714D02*
X4461667Y-868190D01*
X4461667Y-868190D02*
X4499762Y-868190D01*
X4499762Y-868190D02*
X4518810Y-877714D01*
X4518810Y-877714D02*
X4528334Y-896762D01*
X4528334Y-896762D02*
X4528334Y-915809D01*
X4528334Y-915809D02*
X4433096Y-934857D01*
X4604524Y-992000D02*
X4623572Y-1001524D01*
X4623572Y-1001524D02*
X4661667Y-1001524D01*
X4661667Y-1001524D02*
X4680715Y-992000D01*
X4680715Y-992000D02*
X4690239Y-972952D01*
X4690239Y-972952D02*
X4690239Y-963428D01*
X4690239Y-963428D02*
X4680715Y-944381D01*
X4680715Y-944381D02*
X4661667Y-934857D01*
X4661667Y-934857D02*
X4633096Y-934857D01*
X4633096Y-934857D02*
X4614048Y-925333D01*
X4614048Y-925333D02*
X4604524Y-906286D01*
X4604524Y-906286D02*
X4604524Y-896762D01*
X4604524Y-896762D02*
X4614048Y-877714D01*
X4614048Y-877714D02*
X4633096Y-868190D01*
X4633096Y-868190D02*
X4661667Y-868190D01*
X4661667Y-868190D02*
X4680715Y-877714D01*
X4928334Y-925333D02*
X5080715Y-925333D01*
X5004524Y-1001524D02*
X5004524Y-849143D01*
X5414048Y-868190D02*
X5414048Y-1001524D01*
X5366429Y-792000D02*
X5318810Y-934857D01*
X5318810Y-934857D02*
X5442620Y-934857D01*
X5661667Y-992000D02*
X5680715Y-1001524D01*
X5680715Y-1001524D02*
X5718810Y-1001524D01*
X5718810Y-1001524D02*
X5737858Y-992000D01*
X5737858Y-992000D02*
X5747381Y-972952D01*
X5747381Y-972952D02*
X5747381Y-963428D01*
X5747381Y-963428D02*
X5737858Y-944381D01*
X5737858Y-944381D02*
X5718810Y-934857D01*
X5718810Y-934857D02*
X5690239Y-934857D01*
X5690239Y-934857D02*
X5671191Y-925333D01*
X5671191Y-925333D02*
X5661667Y-906286D01*
X5661667Y-906286D02*
X5661667Y-896762D01*
X5661667Y-896762D02*
X5671191Y-877714D01*
X5671191Y-877714D02*
X5690239Y-868190D01*
X5690239Y-868190D02*
X5718810Y-868190D01*
X5718810Y-868190D02*
X5737858Y-877714D01*
X5861667Y-1001524D02*
X5842620Y-992000D01*
X5842620Y-992000D02*
X5833096Y-972952D01*
X5833096Y-972952D02*
X5833096Y-801524D01*
X5966429Y-1001524D02*
X5947381Y-992000D01*
X5947381Y-992000D02*
X5937858Y-982476D01*
X5937858Y-982476D02*
X5928334Y-963428D01*
X5928334Y-963428D02*
X5928334Y-906286D01*
X5928334Y-906286D02*
X5937858Y-887238D01*
X5937858Y-887238D02*
X5947381Y-877714D01*
X5947381Y-877714D02*
X5966429Y-868190D01*
X5966429Y-868190D02*
X5995001Y-868190D01*
X5995001Y-868190D02*
X6014048Y-877714D01*
X6014048Y-877714D02*
X6023572Y-887238D01*
X6023572Y-887238D02*
X6033096Y-906286D01*
X6033096Y-906286D02*
X6033096Y-963428D01*
X6033096Y-963428D02*
X6023572Y-982476D01*
X6023572Y-982476D02*
X6014048Y-992000D01*
X6014048Y-992000D02*
X5995001Y-1001524D01*
X5995001Y-1001524D02*
X5966429Y-1001524D01*
X6090239Y-868190D02*
X6166429Y-868190D01*
X6118810Y-801524D02*
X6118810Y-972952D01*
X6118810Y-972952D02*
X6128334Y-992000D01*
X6128334Y-992000D02*
X6147381Y-1001524D01*
X6147381Y-1001524D02*
X6166429Y-1001524D01*
X6223572Y-992000D02*
X6242620Y-1001524D01*
X6242620Y-1001524D02*
X6280715Y-1001524D01*
X6280715Y-1001524D02*
X6299762Y-992000D01*
X6299762Y-992000D02*
X6309286Y-972952D01*
X6309286Y-972952D02*
X6309286Y-963428D01*
X6309286Y-963428D02*
X6299762Y-944381D01*
X6299762Y-944381D02*
X6280715Y-934857D01*
X6280715Y-934857D02*
X6252143Y-934857D01*
X6252143Y-934857D02*
X6233096Y-925333D01*
X6233096Y-925333D02*
X6223572Y-906286D01*
X6223572Y-906286D02*
X6223572Y-896762D01*
X6223572Y-896762D02*
X6233096Y-877714D01*
X6233096Y-877714D02*
X6252143Y-868190D01*
X6252143Y-868190D02*
X6280715Y-868190D01*
X6280715Y-868190D02*
X6299762Y-877714D01*
X6375953Y-1077714D02*
X6385477Y-1068190D01*
X6385477Y-1068190D02*
X6404524Y-1039619D01*
X6404524Y-1039619D02*
X6414048Y-1020571D01*
X6414048Y-1020571D02*
X6423572Y-992000D01*
X6423572Y-992000D02*
X6433096Y-944381D01*
X6433096Y-944381D02*
X6433096Y-906286D01*
X6433096Y-906286D02*
X6423572Y-858667D01*
X6423572Y-858667D02*
X6414048Y-830095D01*
X6414048Y-830095D02*
X6404524Y-811048D01*
X6404524Y-811048D02*
X6385477Y-782476D01*
X6385477Y-782476D02*
X6375953Y-772952D01*
D14*
X-40000Y-1138000D02*
X-40000Y-1208000D01*
X-75000Y-1173000D02*
X-5000Y-1173000D01*
D11*
X280714Y-1065524D02*
X299762Y-1065524D01*
X299762Y-1065524D02*
X318810Y-1075048D01*
X318810Y-1075048D02*
X328333Y-1084571D01*
X328333Y-1084571D02*
X337857Y-1103619D01*
X337857Y-1103619D02*
X347381Y-1141714D01*
X347381Y-1141714D02*
X347381Y-1189333D01*
X347381Y-1189333D02*
X337857Y-1227429D01*
X337857Y-1227429D02*
X328333Y-1246476D01*
X328333Y-1246476D02*
X318810Y-1256000D01*
X318810Y-1256000D02*
X299762Y-1265524D01*
X299762Y-1265524D02*
X280714Y-1265524D01*
X280714Y-1265524D02*
X261667Y-1256000D01*
X261667Y-1256000D02*
X252143Y-1246476D01*
X252143Y-1246476D02*
X242619Y-1227429D01*
X242619Y-1227429D02*
X233095Y-1189333D01*
X233095Y-1189333D02*
X233095Y-1141714D01*
X233095Y-1141714D02*
X242619Y-1103619D01*
X242619Y-1103619D02*
X252143Y-1084571D01*
X252143Y-1084571D02*
X261667Y-1075048D01*
X261667Y-1075048D02*
X280714Y-1065524D01*
X433095Y-1246476D02*
X442619Y-1256000D01*
X442619Y-1256000D02*
X433095Y-1265524D01*
X433095Y-1265524D02*
X423571Y-1256000D01*
X423571Y-1256000D02*
X433095Y-1246476D01*
X433095Y-1246476D02*
X433095Y-1265524D01*
X509286Y-1065524D02*
X642619Y-1065524D01*
X642619Y-1065524D02*
X556905Y-1265524D01*
X756905Y-1065524D02*
X775952Y-1065524D01*
X775952Y-1065524D02*
X795000Y-1075048D01*
X795000Y-1075048D02*
X804524Y-1084571D01*
X804524Y-1084571D02*
X814048Y-1103619D01*
X814048Y-1103619D02*
X823571Y-1141714D01*
X823571Y-1141714D02*
X823571Y-1189333D01*
X823571Y-1189333D02*
X814048Y-1227429D01*
X814048Y-1227429D02*
X804524Y-1246476D01*
X804524Y-1246476D02*
X795000Y-1256000D01*
X795000Y-1256000D02*
X775952Y-1265524D01*
X775952Y-1265524D02*
X756905Y-1265524D01*
X756905Y-1265524D02*
X737857Y-1256000D01*
X737857Y-1256000D02*
X728333Y-1246476D01*
X728333Y-1246476D02*
X718809Y-1227429D01*
X718809Y-1227429D02*
X709286Y-1189333D01*
X709286Y-1189333D02*
X709286Y-1141714D01*
X709286Y-1141714D02*
X718809Y-1103619D01*
X718809Y-1103619D02*
X728333Y-1084571D01*
X728333Y-1084571D02*
X737857Y-1075048D01*
X737857Y-1075048D02*
X756905Y-1065524D01*
X947381Y-1065524D02*
X966429Y-1065524D01*
X966429Y-1065524D02*
X985476Y-1075048D01*
X985476Y-1075048D02*
X995000Y-1084571D01*
X995000Y-1084571D02*
X1004524Y-1103619D01*
X1004524Y-1103619D02*
X1014048Y-1141714D01*
X1014048Y-1141714D02*
X1014048Y-1189333D01*
X1014048Y-1189333D02*
X1004524Y-1227429D01*
X1004524Y-1227429D02*
X995000Y-1246476D01*
X995000Y-1246476D02*
X985476Y-1256000D01*
X985476Y-1256000D02*
X966429Y-1265524D01*
X966429Y-1265524D02*
X947381Y-1265524D01*
X947381Y-1265524D02*
X928333Y-1256000D01*
X928333Y-1256000D02*
X918809Y-1246476D01*
X918809Y-1246476D02*
X909286Y-1227429D01*
X909286Y-1227429D02*
X899762Y-1189333D01*
X899762Y-1189333D02*
X899762Y-1141714D01*
X899762Y-1141714D02*
X909286Y-1103619D01*
X909286Y-1103619D02*
X918809Y-1084571D01*
X918809Y-1084571D02*
X928333Y-1075048D01*
X928333Y-1075048D02*
X947381Y-1065524D01*
X1099762Y-1265524D02*
X1099762Y-1132190D01*
X1099762Y-1151238D02*
X1109286Y-1141714D01*
X1109286Y-1141714D02*
X1128333Y-1132190D01*
X1128333Y-1132190D02*
X1156905Y-1132190D01*
X1156905Y-1132190D02*
X1175952Y-1141714D01*
X1175952Y-1141714D02*
X1185476Y-1160762D01*
X1185476Y-1160762D02*
X1185476Y-1265524D01*
X1185476Y-1160762D02*
X1195000Y-1141714D01*
X1195000Y-1141714D02*
X1214048Y-1132190D01*
X1214048Y-1132190D02*
X1242619Y-1132190D01*
X1242619Y-1132190D02*
X1261667Y-1141714D01*
X1261667Y-1141714D02*
X1271191Y-1160762D01*
X1271191Y-1160762D02*
X1271191Y-1265524D01*
X1366429Y-1265524D02*
X1366429Y-1132190D01*
X1366429Y-1151238D02*
X1375952Y-1141714D01*
X1375952Y-1141714D02*
X1395000Y-1132190D01*
X1395000Y-1132190D02*
X1423571Y-1132190D01*
X1423571Y-1132190D02*
X1442619Y-1141714D01*
X1442619Y-1141714D02*
X1452143Y-1160762D01*
X1452143Y-1160762D02*
X1452143Y-1265524D01*
X1452143Y-1160762D02*
X1461667Y-1141714D01*
X1461667Y-1141714D02*
X1480714Y-1132190D01*
X1480714Y-1132190D02*
X1509286Y-1132190D01*
X1509286Y-1132190D02*
X1528333Y-1141714D01*
X1528333Y-1141714D02*
X1537857Y-1160762D01*
X1537857Y-1160762D02*
X1537857Y-1265524D01*
X1928333Y-1056000D02*
X1756905Y-1313143D01*
X2185476Y-1065524D02*
X2204524Y-1065524D01*
X2204524Y-1065524D02*
X2223572Y-1075048D01*
X2223572Y-1075048D02*
X2233095Y-1084571D01*
X2233095Y-1084571D02*
X2242619Y-1103619D01*
X2242619Y-1103619D02*
X2252143Y-1141714D01*
X2252143Y-1141714D02*
X2252143Y-1189333D01*
X2252143Y-1189333D02*
X2242619Y-1227429D01*
X2242619Y-1227429D02*
X2233095Y-1246476D01*
X2233095Y-1246476D02*
X2223572Y-1256000D01*
X2223572Y-1256000D02*
X2204524Y-1265524D01*
X2204524Y-1265524D02*
X2185476Y-1265524D01*
X2185476Y-1265524D02*
X2166429Y-1256000D01*
X2166429Y-1256000D02*
X2156905Y-1246476D01*
X2156905Y-1246476D02*
X2147381Y-1227429D01*
X2147381Y-1227429D02*
X2137857Y-1189333D01*
X2137857Y-1189333D02*
X2137857Y-1141714D01*
X2137857Y-1141714D02*
X2147381Y-1103619D01*
X2147381Y-1103619D02*
X2156905Y-1084571D01*
X2156905Y-1084571D02*
X2166429Y-1075048D01*
X2166429Y-1075048D02*
X2185476Y-1065524D01*
X2337857Y-1246476D02*
X2347381Y-1256000D01*
X2347381Y-1256000D02*
X2337857Y-1265524D01*
X2337857Y-1265524D02*
X2328334Y-1256000D01*
X2328334Y-1256000D02*
X2337857Y-1246476D01*
X2337857Y-1246476D02*
X2337857Y-1265524D01*
X2471191Y-1065524D02*
X2490238Y-1065524D01*
X2490238Y-1065524D02*
X2509286Y-1075048D01*
X2509286Y-1075048D02*
X2518810Y-1084571D01*
X2518810Y-1084571D02*
X2528334Y-1103619D01*
X2528334Y-1103619D02*
X2537857Y-1141714D01*
X2537857Y-1141714D02*
X2537857Y-1189333D01*
X2537857Y-1189333D02*
X2528334Y-1227429D01*
X2528334Y-1227429D02*
X2518810Y-1246476D01*
X2518810Y-1246476D02*
X2509286Y-1256000D01*
X2509286Y-1256000D02*
X2490238Y-1265524D01*
X2490238Y-1265524D02*
X2471191Y-1265524D01*
X2471191Y-1265524D02*
X2452143Y-1256000D01*
X2452143Y-1256000D02*
X2442619Y-1246476D01*
X2442619Y-1246476D02*
X2433095Y-1227429D01*
X2433095Y-1227429D02*
X2423572Y-1189333D01*
X2423572Y-1189333D02*
X2423572Y-1141714D01*
X2423572Y-1141714D02*
X2433095Y-1103619D01*
X2433095Y-1103619D02*
X2442619Y-1084571D01*
X2442619Y-1084571D02*
X2452143Y-1075048D01*
X2452143Y-1075048D02*
X2471191Y-1065524D01*
X2614048Y-1084571D02*
X2623572Y-1075048D01*
X2623572Y-1075048D02*
X2642619Y-1065524D01*
X2642619Y-1065524D02*
X2690238Y-1065524D01*
X2690238Y-1065524D02*
X2709286Y-1075048D01*
X2709286Y-1075048D02*
X2718810Y-1084571D01*
X2718810Y-1084571D02*
X2728334Y-1103619D01*
X2728334Y-1103619D02*
X2728334Y-1122667D01*
X2728334Y-1122667D02*
X2718810Y-1151238D01*
X2718810Y-1151238D02*
X2604524Y-1265524D01*
X2604524Y-1265524D02*
X2728334Y-1265524D01*
X2795000Y-1065524D02*
X2928333Y-1065524D01*
X2928333Y-1065524D02*
X2842619Y-1265524D01*
X3090238Y-1065524D02*
X3052143Y-1065524D01*
X3052143Y-1065524D02*
X3033095Y-1075048D01*
X3033095Y-1075048D02*
X3023572Y-1084571D01*
X3023572Y-1084571D02*
X3004524Y-1113143D01*
X3004524Y-1113143D02*
X2995000Y-1151238D01*
X2995000Y-1151238D02*
X2995000Y-1227429D01*
X2995000Y-1227429D02*
X3004524Y-1246476D01*
X3004524Y-1246476D02*
X3014048Y-1256000D01*
X3014048Y-1256000D02*
X3033095Y-1265524D01*
X3033095Y-1265524D02*
X3071191Y-1265524D01*
X3071191Y-1265524D02*
X3090238Y-1256000D01*
X3090238Y-1256000D02*
X3099762Y-1246476D01*
X3099762Y-1246476D02*
X3109286Y-1227429D01*
X3109286Y-1227429D02*
X3109286Y-1179810D01*
X3109286Y-1179810D02*
X3099762Y-1160762D01*
X3099762Y-1160762D02*
X3090238Y-1151238D01*
X3090238Y-1151238D02*
X3071191Y-1141714D01*
X3071191Y-1141714D02*
X3033095Y-1141714D01*
X3033095Y-1141714D02*
X3014048Y-1151238D01*
X3014048Y-1151238D02*
X3004524Y-1160762D01*
X3004524Y-1160762D02*
X2995000Y-1179810D01*
X3185476Y-1065524D02*
X3185476Y-1103619D01*
X3261667Y-1065524D02*
X3261667Y-1103619D01*
X3556905Y-1341714D02*
X3547381Y-1332190D01*
X3547381Y-1332190D02*
X3528334Y-1303619D01*
X3528334Y-1303619D02*
X3518810Y-1284571D01*
X3518810Y-1284571D02*
X3509286Y-1256000D01*
X3509286Y-1256000D02*
X3499762Y-1208381D01*
X3499762Y-1208381D02*
X3499762Y-1170286D01*
X3499762Y-1170286D02*
X3509286Y-1122667D01*
X3509286Y-1122667D02*
X3518810Y-1094095D01*
X3518810Y-1094095D02*
X3528334Y-1075048D01*
X3528334Y-1075048D02*
X3547381Y-1046476D01*
X3547381Y-1046476D02*
X3556905Y-1036952D01*
X3737857Y-1265524D02*
X3623572Y-1265524D01*
X3680714Y-1265524D02*
X3680714Y-1065524D01*
X3680714Y-1065524D02*
X3661667Y-1094095D01*
X3661667Y-1094095D02*
X3642619Y-1113143D01*
X3642619Y-1113143D02*
X3623572Y-1122667D01*
X3852143Y-1151238D02*
X3833095Y-1141714D01*
X3833095Y-1141714D02*
X3823572Y-1132190D01*
X3823572Y-1132190D02*
X3814048Y-1113143D01*
X3814048Y-1113143D02*
X3814048Y-1103619D01*
X3814048Y-1103619D02*
X3823572Y-1084571D01*
X3823572Y-1084571D02*
X3833095Y-1075048D01*
X3833095Y-1075048D02*
X3852143Y-1065524D01*
X3852143Y-1065524D02*
X3890238Y-1065524D01*
X3890238Y-1065524D02*
X3909286Y-1075048D01*
X3909286Y-1075048D02*
X3918810Y-1084571D01*
X3918810Y-1084571D02*
X3928334Y-1103619D01*
X3928334Y-1103619D02*
X3928334Y-1113143D01*
X3928334Y-1113143D02*
X3918810Y-1132190D01*
X3918810Y-1132190D02*
X3909286Y-1141714D01*
X3909286Y-1141714D02*
X3890238Y-1151238D01*
X3890238Y-1151238D02*
X3852143Y-1151238D01*
X3852143Y-1151238D02*
X3833095Y-1160762D01*
X3833095Y-1160762D02*
X3823572Y-1170286D01*
X3823572Y-1170286D02*
X3814048Y-1189333D01*
X3814048Y-1189333D02*
X3814048Y-1227429D01*
X3814048Y-1227429D02*
X3823572Y-1246476D01*
X3823572Y-1246476D02*
X3833095Y-1256000D01*
X3833095Y-1256000D02*
X3852143Y-1265524D01*
X3852143Y-1265524D02*
X3890238Y-1265524D01*
X3890238Y-1265524D02*
X3909286Y-1256000D01*
X3909286Y-1256000D02*
X3918810Y-1246476D01*
X3918810Y-1246476D02*
X3928334Y-1227429D01*
X3928334Y-1227429D02*
X3928334Y-1189333D01*
X3928334Y-1189333D02*
X3918810Y-1170286D01*
X3918810Y-1170286D02*
X3909286Y-1160762D01*
X3909286Y-1160762D02*
X3890238Y-1151238D01*
X4166429Y-1265524D02*
X4166429Y-1065524D01*
X4252143Y-1265524D02*
X4252143Y-1160762D01*
X4252143Y-1160762D02*
X4242619Y-1141714D01*
X4242619Y-1141714D02*
X4223572Y-1132190D01*
X4223572Y-1132190D02*
X4195000Y-1132190D01*
X4195000Y-1132190D02*
X4175953Y-1141714D01*
X4175953Y-1141714D02*
X4166429Y-1151238D01*
X4375953Y-1265524D02*
X4356905Y-1256000D01*
X4356905Y-1256000D02*
X4347381Y-1246476D01*
X4347381Y-1246476D02*
X4337858Y-1227429D01*
X4337858Y-1227429D02*
X4337858Y-1170286D01*
X4337858Y-1170286D02*
X4347381Y-1151238D01*
X4347381Y-1151238D02*
X4356905Y-1141714D01*
X4356905Y-1141714D02*
X4375953Y-1132190D01*
X4375953Y-1132190D02*
X4404524Y-1132190D01*
X4404524Y-1132190D02*
X4423572Y-1141714D01*
X4423572Y-1141714D02*
X4433096Y-1151238D01*
X4433096Y-1151238D02*
X4442619Y-1170286D01*
X4442619Y-1170286D02*
X4442619Y-1227429D01*
X4442619Y-1227429D02*
X4433096Y-1246476D01*
X4433096Y-1246476D02*
X4423572Y-1256000D01*
X4423572Y-1256000D02*
X4404524Y-1265524D01*
X4404524Y-1265524D02*
X4375953Y-1265524D01*
X4556905Y-1265524D02*
X4537858Y-1256000D01*
X4537858Y-1256000D02*
X4528334Y-1236952D01*
X4528334Y-1236952D02*
X4528334Y-1065524D01*
X4709286Y-1256000D02*
X4690239Y-1265524D01*
X4690239Y-1265524D02*
X4652143Y-1265524D01*
X4652143Y-1265524D02*
X4633096Y-1256000D01*
X4633096Y-1256000D02*
X4623572Y-1236952D01*
X4623572Y-1236952D02*
X4623572Y-1160762D01*
X4623572Y-1160762D02*
X4633096Y-1141714D01*
X4633096Y-1141714D02*
X4652143Y-1132190D01*
X4652143Y-1132190D02*
X4690239Y-1132190D01*
X4690239Y-1132190D02*
X4709286Y-1141714D01*
X4709286Y-1141714D02*
X4718810Y-1160762D01*
X4718810Y-1160762D02*
X4718810Y-1179810D01*
X4718810Y-1179810D02*
X4623572Y-1198857D01*
X4795000Y-1256000D02*
X4814048Y-1265524D01*
X4814048Y-1265524D02*
X4852143Y-1265524D01*
X4852143Y-1265524D02*
X4871191Y-1256000D01*
X4871191Y-1256000D02*
X4880715Y-1236952D01*
X4880715Y-1236952D02*
X4880715Y-1227429D01*
X4880715Y-1227429D02*
X4871191Y-1208381D01*
X4871191Y-1208381D02*
X4852143Y-1198857D01*
X4852143Y-1198857D02*
X4823572Y-1198857D01*
X4823572Y-1198857D02*
X4804524Y-1189333D01*
X4804524Y-1189333D02*
X4795000Y-1170286D01*
X4795000Y-1170286D02*
X4795000Y-1160762D01*
X4795000Y-1160762D02*
X4804524Y-1141714D01*
X4804524Y-1141714D02*
X4823572Y-1132190D01*
X4823572Y-1132190D02*
X4852143Y-1132190D01*
X4852143Y-1132190D02*
X4871191Y-1141714D01*
X4947381Y-1341714D02*
X4956905Y-1332190D01*
X4956905Y-1332190D02*
X4975953Y-1303619D01*
X4975953Y-1303619D02*
X4985477Y-1284571D01*
X4985477Y-1284571D02*
X4995000Y-1256000D01*
X4995000Y-1256000D02*
X5004524Y-1208381D01*
X5004524Y-1208381D02*
X5004524Y-1170286D01*
X5004524Y-1170286D02*
X4995000Y-1122667D01*
X4995000Y-1122667D02*
X4985477Y-1094095D01*
X4985477Y-1094095D02*
X4975953Y-1075048D01*
X4975953Y-1075048D02*
X4956905Y-1046476D01*
X4956905Y-1046476D02*
X4947381Y-1036952D01*
D15*
X-16716Y-1465284D02*
X-16716Y-1408715D01*
X-73285Y-1408715D01*
X-73285Y-1465284D01*
X-16716Y-1465284D01*
D11*
X280714Y-1329524D02*
X299762Y-1329524D01*
X299762Y-1329524D02*
X318810Y-1339048D01*
X318810Y-1339048D02*
X328333Y-1348571D01*
X328333Y-1348571D02*
X337857Y-1367619D01*
X337857Y-1367619D02*
X347381Y-1405714D01*
X347381Y-1405714D02*
X347381Y-1453333D01*
X347381Y-1453333D02*
X337857Y-1491428D01*
X337857Y-1491428D02*
X328333Y-1510476D01*
X328333Y-1510476D02*
X318810Y-1520000D01*
X318810Y-1520000D02*
X299762Y-1529524D01*
X299762Y-1529524D02*
X280714Y-1529524D01*
X280714Y-1529524D02*
X261667Y-1520000D01*
X261667Y-1520000D02*
X252143Y-1510476D01*
X252143Y-1510476D02*
X242619Y-1491428D01*
X242619Y-1491428D02*
X233095Y-1453333D01*
X233095Y-1453333D02*
X233095Y-1405714D01*
X233095Y-1405714D02*
X242619Y-1367619D01*
X242619Y-1367619D02*
X252143Y-1348571D01*
X252143Y-1348571D02*
X261667Y-1339048D01*
X261667Y-1339048D02*
X280714Y-1329524D01*
X433095Y-1510476D02*
X442619Y-1520000D01*
X442619Y-1520000D02*
X433095Y-1529524D01*
X433095Y-1529524D02*
X423571Y-1520000D01*
X423571Y-1520000D02*
X433095Y-1510476D01*
X433095Y-1510476D02*
X433095Y-1529524D01*
X556905Y-1415238D02*
X537857Y-1405714D01*
X537857Y-1405714D02*
X528333Y-1396190D01*
X528333Y-1396190D02*
X518809Y-1377143D01*
X518809Y-1377143D02*
X518809Y-1367619D01*
X518809Y-1367619D02*
X528333Y-1348571D01*
X528333Y-1348571D02*
X537857Y-1339048D01*
X537857Y-1339048D02*
X556905Y-1329524D01*
X556905Y-1329524D02*
X595000Y-1329524D01*
X595000Y-1329524D02*
X614048Y-1339048D01*
X614048Y-1339048D02*
X623571Y-1348571D01*
X623571Y-1348571D02*
X633095Y-1367619D01*
X633095Y-1367619D02*
X633095Y-1377143D01*
X633095Y-1377143D02*
X623571Y-1396190D01*
X623571Y-1396190D02*
X614048Y-1405714D01*
X614048Y-1405714D02*
X595000Y-1415238D01*
X595000Y-1415238D02*
X556905Y-1415238D01*
X556905Y-1415238D02*
X537857Y-1424762D01*
X537857Y-1424762D02*
X528333Y-1434286D01*
X528333Y-1434286D02*
X518809Y-1453333D01*
X518809Y-1453333D02*
X518809Y-1491428D01*
X518809Y-1491428D02*
X528333Y-1510476D01*
X528333Y-1510476D02*
X537857Y-1520000D01*
X537857Y-1520000D02*
X556905Y-1529524D01*
X556905Y-1529524D02*
X595000Y-1529524D01*
X595000Y-1529524D02*
X614048Y-1520000D01*
X614048Y-1520000D02*
X623571Y-1510476D01*
X623571Y-1510476D02*
X633095Y-1491428D01*
X633095Y-1491428D02*
X633095Y-1453333D01*
X633095Y-1453333D02*
X623571Y-1434286D01*
X623571Y-1434286D02*
X614048Y-1424762D01*
X614048Y-1424762D02*
X595000Y-1415238D01*
X756905Y-1329524D02*
X775952Y-1329524D01*
X775952Y-1329524D02*
X795000Y-1339048D01*
X795000Y-1339048D02*
X804524Y-1348571D01*
X804524Y-1348571D02*
X814048Y-1367619D01*
X814048Y-1367619D02*
X823571Y-1405714D01*
X823571Y-1405714D02*
X823571Y-1453333D01*
X823571Y-1453333D02*
X814048Y-1491428D01*
X814048Y-1491428D02*
X804524Y-1510476D01*
X804524Y-1510476D02*
X795000Y-1520000D01*
X795000Y-1520000D02*
X775952Y-1529524D01*
X775952Y-1529524D02*
X756905Y-1529524D01*
X756905Y-1529524D02*
X737857Y-1520000D01*
X737857Y-1520000D02*
X728333Y-1510476D01*
X728333Y-1510476D02*
X718809Y-1491428D01*
X718809Y-1491428D02*
X709286Y-1453333D01*
X709286Y-1453333D02*
X709286Y-1405714D01*
X709286Y-1405714D02*
X718809Y-1367619D01*
X718809Y-1367619D02*
X728333Y-1348571D01*
X728333Y-1348571D02*
X737857Y-1339048D01*
X737857Y-1339048D02*
X756905Y-1329524D01*
X947381Y-1329524D02*
X966429Y-1329524D01*
X966429Y-1329524D02*
X985476Y-1339048D01*
X985476Y-1339048D02*
X995000Y-1348571D01*
X995000Y-1348571D02*
X1004524Y-1367619D01*
X1004524Y-1367619D02*
X1014048Y-1405714D01*
X1014048Y-1405714D02*
X1014048Y-1453333D01*
X1014048Y-1453333D02*
X1004524Y-1491428D01*
X1004524Y-1491428D02*
X995000Y-1510476D01*
X995000Y-1510476D02*
X985476Y-1520000D01*
X985476Y-1520000D02*
X966429Y-1529524D01*
X966429Y-1529524D02*
X947381Y-1529524D01*
X947381Y-1529524D02*
X928333Y-1520000D01*
X928333Y-1520000D02*
X918809Y-1510476D01*
X918809Y-1510476D02*
X909286Y-1491428D01*
X909286Y-1491428D02*
X899762Y-1453333D01*
X899762Y-1453333D02*
X899762Y-1405714D01*
X899762Y-1405714D02*
X909286Y-1367619D01*
X909286Y-1367619D02*
X918809Y-1348571D01*
X918809Y-1348571D02*
X928333Y-1339048D01*
X928333Y-1339048D02*
X947381Y-1329524D01*
X1099762Y-1529524D02*
X1099762Y-1396190D01*
X1099762Y-1415238D02*
X1109286Y-1405714D01*
X1109286Y-1405714D02*
X1128333Y-1396190D01*
X1128333Y-1396190D02*
X1156905Y-1396190D01*
X1156905Y-1396190D02*
X1175952Y-1405714D01*
X1175952Y-1405714D02*
X1185476Y-1424762D01*
X1185476Y-1424762D02*
X1185476Y-1529524D01*
X1185476Y-1424762D02*
X1195000Y-1405714D01*
X1195000Y-1405714D02*
X1214048Y-1396190D01*
X1214048Y-1396190D02*
X1242619Y-1396190D01*
X1242619Y-1396190D02*
X1261667Y-1405714D01*
X1261667Y-1405714D02*
X1271191Y-1424762D01*
X1271191Y-1424762D02*
X1271191Y-1529524D01*
X1366429Y-1529524D02*
X1366429Y-1396190D01*
X1366429Y-1415238D02*
X1375952Y-1405714D01*
X1375952Y-1405714D02*
X1395000Y-1396190D01*
X1395000Y-1396190D02*
X1423571Y-1396190D01*
X1423571Y-1396190D02*
X1442619Y-1405714D01*
X1442619Y-1405714D02*
X1452143Y-1424762D01*
X1452143Y-1424762D02*
X1452143Y-1529524D01*
X1452143Y-1424762D02*
X1461667Y-1405714D01*
X1461667Y-1405714D02*
X1480714Y-1396190D01*
X1480714Y-1396190D02*
X1509286Y-1396190D01*
X1509286Y-1396190D02*
X1528333Y-1405714D01*
X1528333Y-1405714D02*
X1537857Y-1424762D01*
X1537857Y-1424762D02*
X1537857Y-1529524D01*
X1928333Y-1320000D02*
X1756905Y-1577143D01*
X2185476Y-1329524D02*
X2204524Y-1329524D01*
X2204524Y-1329524D02*
X2223572Y-1339048D01*
X2223572Y-1339048D02*
X2233095Y-1348571D01*
X2233095Y-1348571D02*
X2242619Y-1367619D01*
X2242619Y-1367619D02*
X2252143Y-1405714D01*
X2252143Y-1405714D02*
X2252143Y-1453333D01*
X2252143Y-1453333D02*
X2242619Y-1491428D01*
X2242619Y-1491428D02*
X2233095Y-1510476D01*
X2233095Y-1510476D02*
X2223572Y-1520000D01*
X2223572Y-1520000D02*
X2204524Y-1529524D01*
X2204524Y-1529524D02*
X2185476Y-1529524D01*
X2185476Y-1529524D02*
X2166429Y-1520000D01*
X2166429Y-1520000D02*
X2156905Y-1510476D01*
X2156905Y-1510476D02*
X2147381Y-1491428D01*
X2147381Y-1491428D02*
X2137857Y-1453333D01*
X2137857Y-1453333D02*
X2137857Y-1405714D01*
X2137857Y-1405714D02*
X2147381Y-1367619D01*
X2147381Y-1367619D02*
X2156905Y-1348571D01*
X2156905Y-1348571D02*
X2166429Y-1339048D01*
X2166429Y-1339048D02*
X2185476Y-1329524D01*
X2337857Y-1510476D02*
X2347381Y-1520000D01*
X2347381Y-1520000D02*
X2337857Y-1529524D01*
X2337857Y-1529524D02*
X2328334Y-1520000D01*
X2328334Y-1520000D02*
X2337857Y-1510476D01*
X2337857Y-1510476D02*
X2337857Y-1529524D01*
X2471191Y-1329524D02*
X2490238Y-1329524D01*
X2490238Y-1329524D02*
X2509286Y-1339048D01*
X2509286Y-1339048D02*
X2518810Y-1348571D01*
X2518810Y-1348571D02*
X2528334Y-1367619D01*
X2528334Y-1367619D02*
X2537857Y-1405714D01*
X2537857Y-1405714D02*
X2537857Y-1453333D01*
X2537857Y-1453333D02*
X2528334Y-1491428D01*
X2528334Y-1491428D02*
X2518810Y-1510476D01*
X2518810Y-1510476D02*
X2509286Y-1520000D01*
X2509286Y-1520000D02*
X2490238Y-1529524D01*
X2490238Y-1529524D02*
X2471191Y-1529524D01*
X2471191Y-1529524D02*
X2452143Y-1520000D01*
X2452143Y-1520000D02*
X2442619Y-1510476D01*
X2442619Y-1510476D02*
X2433095Y-1491428D01*
X2433095Y-1491428D02*
X2423572Y-1453333D01*
X2423572Y-1453333D02*
X2423572Y-1405714D01*
X2423572Y-1405714D02*
X2433095Y-1367619D01*
X2433095Y-1367619D02*
X2442619Y-1348571D01*
X2442619Y-1348571D02*
X2452143Y-1339048D01*
X2452143Y-1339048D02*
X2471191Y-1329524D01*
X2604524Y-1329524D02*
X2728334Y-1329524D01*
X2728334Y-1329524D02*
X2661667Y-1405714D01*
X2661667Y-1405714D02*
X2690238Y-1405714D01*
X2690238Y-1405714D02*
X2709286Y-1415238D01*
X2709286Y-1415238D02*
X2718810Y-1424762D01*
X2718810Y-1424762D02*
X2728334Y-1443809D01*
X2728334Y-1443809D02*
X2728334Y-1491428D01*
X2728334Y-1491428D02*
X2718810Y-1510476D01*
X2718810Y-1510476D02*
X2709286Y-1520000D01*
X2709286Y-1520000D02*
X2690238Y-1529524D01*
X2690238Y-1529524D02*
X2633095Y-1529524D01*
X2633095Y-1529524D02*
X2614048Y-1520000D01*
X2614048Y-1520000D02*
X2604524Y-1510476D01*
X2918810Y-1529524D02*
X2804524Y-1529524D01*
X2861667Y-1529524D02*
X2861667Y-1329524D01*
X2861667Y-1329524D02*
X2842619Y-1358095D01*
X2842619Y-1358095D02*
X2823572Y-1377143D01*
X2823572Y-1377143D02*
X2804524Y-1386667D01*
X3099762Y-1329524D02*
X3004524Y-1329524D01*
X3004524Y-1329524D02*
X2995000Y-1424762D01*
X2995000Y-1424762D02*
X3004524Y-1415238D01*
X3004524Y-1415238D02*
X3023572Y-1405714D01*
X3023572Y-1405714D02*
X3071191Y-1405714D01*
X3071191Y-1405714D02*
X3090238Y-1415238D01*
X3090238Y-1415238D02*
X3099762Y-1424762D01*
X3099762Y-1424762D02*
X3109286Y-1443809D01*
X3109286Y-1443809D02*
X3109286Y-1491428D01*
X3109286Y-1491428D02*
X3099762Y-1510476D01*
X3099762Y-1510476D02*
X3090238Y-1520000D01*
X3090238Y-1520000D02*
X3071191Y-1529524D01*
X3071191Y-1529524D02*
X3023572Y-1529524D01*
X3023572Y-1529524D02*
X3004524Y-1520000D01*
X3004524Y-1520000D02*
X2995000Y-1510476D01*
X3185476Y-1329524D02*
X3185476Y-1367619D01*
X3261667Y-1329524D02*
X3261667Y-1367619D01*
X3556905Y-1605714D02*
X3547381Y-1596190D01*
X3547381Y-1596190D02*
X3528334Y-1567619D01*
X3528334Y-1567619D02*
X3518810Y-1548571D01*
X3518810Y-1548571D02*
X3509286Y-1520000D01*
X3509286Y-1520000D02*
X3499762Y-1472381D01*
X3499762Y-1472381D02*
X3499762Y-1434286D01*
X3499762Y-1434286D02*
X3509286Y-1386667D01*
X3509286Y-1386667D02*
X3518810Y-1358095D01*
X3518810Y-1358095D02*
X3528334Y-1339048D01*
X3528334Y-1339048D02*
X3547381Y-1310476D01*
X3547381Y-1310476D02*
X3556905Y-1300952D01*
X3718810Y-1329524D02*
X3680714Y-1329524D01*
X3680714Y-1329524D02*
X3661667Y-1339048D01*
X3661667Y-1339048D02*
X3652143Y-1348571D01*
X3652143Y-1348571D02*
X3633095Y-1377143D01*
X3633095Y-1377143D02*
X3623572Y-1415238D01*
X3623572Y-1415238D02*
X3623572Y-1491428D01*
X3623572Y-1491428D02*
X3633095Y-1510476D01*
X3633095Y-1510476D02*
X3642619Y-1520000D01*
X3642619Y-1520000D02*
X3661667Y-1529524D01*
X3661667Y-1529524D02*
X3699762Y-1529524D01*
X3699762Y-1529524D02*
X3718810Y-1520000D01*
X3718810Y-1520000D02*
X3728334Y-1510476D01*
X3728334Y-1510476D02*
X3737857Y-1491428D01*
X3737857Y-1491428D02*
X3737857Y-1443809D01*
X3737857Y-1443809D02*
X3728334Y-1424762D01*
X3728334Y-1424762D02*
X3718810Y-1415238D01*
X3718810Y-1415238D02*
X3699762Y-1405714D01*
X3699762Y-1405714D02*
X3661667Y-1405714D01*
X3661667Y-1405714D02*
X3642619Y-1415238D01*
X3642619Y-1415238D02*
X3633095Y-1424762D01*
X3633095Y-1424762D02*
X3623572Y-1443809D01*
X3975953Y-1529524D02*
X3975953Y-1329524D01*
X4061667Y-1529524D02*
X4061667Y-1424762D01*
X4061667Y-1424762D02*
X4052143Y-1405714D01*
X4052143Y-1405714D02*
X4033096Y-1396190D01*
X4033096Y-1396190D02*
X4004524Y-1396190D01*
X4004524Y-1396190D02*
X3985476Y-1405714D01*
X3985476Y-1405714D02*
X3975953Y-1415238D01*
X4185476Y-1529524D02*
X4166429Y-1520000D01*
X4166429Y-1520000D02*
X4156905Y-1510476D01*
X4156905Y-1510476D02*
X4147381Y-1491428D01*
X4147381Y-1491428D02*
X4147381Y-1434286D01*
X4147381Y-1434286D02*
X4156905Y-1415238D01*
X4156905Y-1415238D02*
X4166429Y-1405714D01*
X4166429Y-1405714D02*
X4185476Y-1396190D01*
X4185476Y-1396190D02*
X4214048Y-1396190D01*
X4214048Y-1396190D02*
X4233096Y-1405714D01*
X4233096Y-1405714D02*
X4242619Y-1415238D01*
X4242619Y-1415238D02*
X4252143Y-1434286D01*
X4252143Y-1434286D02*
X4252143Y-1491428D01*
X4252143Y-1491428D02*
X4242619Y-1510476D01*
X4242619Y-1510476D02*
X4233096Y-1520000D01*
X4233096Y-1520000D02*
X4214048Y-1529524D01*
X4214048Y-1529524D02*
X4185476Y-1529524D01*
X4366429Y-1529524D02*
X4347381Y-1520000D01*
X4347381Y-1520000D02*
X4337858Y-1500952D01*
X4337858Y-1500952D02*
X4337858Y-1329524D01*
X4518810Y-1520000D02*
X4499762Y-1529524D01*
X4499762Y-1529524D02*
X4461667Y-1529524D01*
X4461667Y-1529524D02*
X4442619Y-1520000D01*
X4442619Y-1520000D02*
X4433096Y-1500952D01*
X4433096Y-1500952D02*
X4433096Y-1424762D01*
X4433096Y-1424762D02*
X4442619Y-1405714D01*
X4442619Y-1405714D02*
X4461667Y-1396190D01*
X4461667Y-1396190D02*
X4499762Y-1396190D01*
X4499762Y-1396190D02*
X4518810Y-1405714D01*
X4518810Y-1405714D02*
X4528334Y-1424762D01*
X4528334Y-1424762D02*
X4528334Y-1443809D01*
X4528334Y-1443809D02*
X4433096Y-1462857D01*
X4604524Y-1520000D02*
X4623572Y-1529524D01*
X4623572Y-1529524D02*
X4661667Y-1529524D01*
X4661667Y-1529524D02*
X4680715Y-1520000D01*
X4680715Y-1520000D02*
X4690239Y-1500952D01*
X4690239Y-1500952D02*
X4690239Y-1491428D01*
X4690239Y-1491428D02*
X4680715Y-1472381D01*
X4680715Y-1472381D02*
X4661667Y-1462857D01*
X4661667Y-1462857D02*
X4633096Y-1462857D01*
X4633096Y-1462857D02*
X4614048Y-1453333D01*
X4614048Y-1453333D02*
X4604524Y-1434286D01*
X4604524Y-1434286D02*
X4604524Y-1424762D01*
X4604524Y-1424762D02*
X4614048Y-1405714D01*
X4614048Y-1405714D02*
X4633096Y-1396190D01*
X4633096Y-1396190D02*
X4661667Y-1396190D01*
X4661667Y-1396190D02*
X4680715Y-1405714D01*
X4756905Y-1605714D02*
X4766429Y-1596190D01*
X4766429Y-1596190D02*
X4785477Y-1567619D01*
X4785477Y-1567619D02*
X4795000Y-1548571D01*
X4795000Y-1548571D02*
X4804524Y-1520000D01*
X4804524Y-1520000D02*
X4814048Y-1472381D01*
X4814048Y-1472381D02*
X4814048Y-1434286D01*
X4814048Y-1434286D02*
X4804524Y-1386667D01*
X4804524Y-1386667D02*
X4795000Y-1358095D01*
X4795000Y-1358095D02*
X4785477Y-1339048D01*
X4785477Y-1339048D02*
X4766429Y-1310476D01*
X4766429Y-1310476D02*
X4756905Y-1300952D01*
D10*
X-55000Y-1751000D02*
X-5000Y-1701000D01*
X-55000Y-1651000D01*
X-105000Y-1701000D01*
X-55000Y-1751000D01*
D11*
X347381Y-1793524D02*
X233095Y-1793524D01*
X290238Y-1793524D02*
X290238Y-1593524D01*
X290238Y-1593524D02*
X271190Y-1622095D01*
X271190Y-1622095D02*
X252143Y-1641143D01*
X252143Y-1641143D02*
X233095Y-1650667D01*
X433095Y-1774476D02*
X442619Y-1784000D01*
X442619Y-1784000D02*
X433095Y-1793524D01*
X433095Y-1793524D02*
X423571Y-1784000D01*
X423571Y-1784000D02*
X433095Y-1774476D01*
X433095Y-1774476D02*
X433095Y-1793524D01*
X566429Y-1593524D02*
X585476Y-1593524D01*
X585476Y-1593524D02*
X604524Y-1603048D01*
X604524Y-1603048D02*
X614048Y-1612571D01*
X614048Y-1612571D02*
X623571Y-1631619D01*
X623571Y-1631619D02*
X633095Y-1669714D01*
X633095Y-1669714D02*
X633095Y-1717333D01*
X633095Y-1717333D02*
X623571Y-1755428D01*
X623571Y-1755428D02*
X614048Y-1774476D01*
X614048Y-1774476D02*
X604524Y-1784000D01*
X604524Y-1784000D02*
X585476Y-1793524D01*
X585476Y-1793524D02*
X566429Y-1793524D01*
X566429Y-1793524D02*
X547381Y-1784000D01*
X547381Y-1784000D02*
X537857Y-1774476D01*
X537857Y-1774476D02*
X528333Y-1755428D01*
X528333Y-1755428D02*
X518809Y-1717333D01*
X518809Y-1717333D02*
X518809Y-1669714D01*
X518809Y-1669714D02*
X528333Y-1631619D01*
X528333Y-1631619D02*
X537857Y-1612571D01*
X537857Y-1612571D02*
X547381Y-1603048D01*
X547381Y-1603048D02*
X566429Y-1593524D01*
X756905Y-1593524D02*
X775952Y-1593524D01*
X775952Y-1593524D02*
X795000Y-1603048D01*
X795000Y-1603048D02*
X804524Y-1612571D01*
X804524Y-1612571D02*
X814048Y-1631619D01*
X814048Y-1631619D02*
X823571Y-1669714D01*
X823571Y-1669714D02*
X823571Y-1717333D01*
X823571Y-1717333D02*
X814048Y-1755428D01*
X814048Y-1755428D02*
X804524Y-1774476D01*
X804524Y-1774476D02*
X795000Y-1784000D01*
X795000Y-1784000D02*
X775952Y-1793524D01*
X775952Y-1793524D02*
X756905Y-1793524D01*
X756905Y-1793524D02*
X737857Y-1784000D01*
X737857Y-1784000D02*
X728333Y-1774476D01*
X728333Y-1774476D02*
X718809Y-1755428D01*
X718809Y-1755428D02*
X709286Y-1717333D01*
X709286Y-1717333D02*
X709286Y-1669714D01*
X709286Y-1669714D02*
X718809Y-1631619D01*
X718809Y-1631619D02*
X728333Y-1612571D01*
X728333Y-1612571D02*
X737857Y-1603048D01*
X737857Y-1603048D02*
X756905Y-1593524D01*
X947381Y-1593524D02*
X966429Y-1593524D01*
X966429Y-1593524D02*
X985476Y-1603048D01*
X985476Y-1603048D02*
X995000Y-1612571D01*
X995000Y-1612571D02*
X1004524Y-1631619D01*
X1004524Y-1631619D02*
X1014048Y-1669714D01*
X1014048Y-1669714D02*
X1014048Y-1717333D01*
X1014048Y-1717333D02*
X1004524Y-1755428D01*
X1004524Y-1755428D02*
X995000Y-1774476D01*
X995000Y-1774476D02*
X985476Y-1784000D01*
X985476Y-1784000D02*
X966429Y-1793524D01*
X966429Y-1793524D02*
X947381Y-1793524D01*
X947381Y-1793524D02*
X928333Y-1784000D01*
X928333Y-1784000D02*
X918809Y-1774476D01*
X918809Y-1774476D02*
X909286Y-1755428D01*
X909286Y-1755428D02*
X899762Y-1717333D01*
X899762Y-1717333D02*
X899762Y-1669714D01*
X899762Y-1669714D02*
X909286Y-1631619D01*
X909286Y-1631619D02*
X918809Y-1612571D01*
X918809Y-1612571D02*
X928333Y-1603048D01*
X928333Y-1603048D02*
X947381Y-1593524D01*
X1099762Y-1793524D02*
X1099762Y-1660190D01*
X1099762Y-1679238D02*
X1109286Y-1669714D01*
X1109286Y-1669714D02*
X1128333Y-1660190D01*
X1128333Y-1660190D02*
X1156905Y-1660190D01*
X1156905Y-1660190D02*
X1175952Y-1669714D01*
X1175952Y-1669714D02*
X1185476Y-1688762D01*
X1185476Y-1688762D02*
X1185476Y-1793524D01*
X1185476Y-1688762D02*
X1195000Y-1669714D01*
X1195000Y-1669714D02*
X1214048Y-1660190D01*
X1214048Y-1660190D02*
X1242619Y-1660190D01*
X1242619Y-1660190D02*
X1261667Y-1669714D01*
X1261667Y-1669714D02*
X1271191Y-1688762D01*
X1271191Y-1688762D02*
X1271191Y-1793524D01*
X1366429Y-1793524D02*
X1366429Y-1660190D01*
X1366429Y-1679238D02*
X1375952Y-1669714D01*
X1375952Y-1669714D02*
X1395000Y-1660190D01*
X1395000Y-1660190D02*
X1423571Y-1660190D01*
X1423571Y-1660190D02*
X1442619Y-1669714D01*
X1442619Y-1669714D02*
X1452143Y-1688762D01*
X1452143Y-1688762D02*
X1452143Y-1793524D01*
X1452143Y-1688762D02*
X1461667Y-1669714D01*
X1461667Y-1669714D02*
X1480714Y-1660190D01*
X1480714Y-1660190D02*
X1509286Y-1660190D01*
X1509286Y-1660190D02*
X1528333Y-1669714D01*
X1528333Y-1669714D02*
X1537857Y-1688762D01*
X1537857Y-1688762D02*
X1537857Y-1793524D01*
X1928333Y-1584000D02*
X1756905Y-1841143D01*
X2185476Y-1593524D02*
X2204524Y-1593524D01*
X2204524Y-1593524D02*
X2223572Y-1603048D01*
X2223572Y-1603048D02*
X2233095Y-1612571D01*
X2233095Y-1612571D02*
X2242619Y-1631619D01*
X2242619Y-1631619D02*
X2252143Y-1669714D01*
X2252143Y-1669714D02*
X2252143Y-1717333D01*
X2252143Y-1717333D02*
X2242619Y-1755428D01*
X2242619Y-1755428D02*
X2233095Y-1774476D01*
X2233095Y-1774476D02*
X2223572Y-1784000D01*
X2223572Y-1784000D02*
X2204524Y-1793524D01*
X2204524Y-1793524D02*
X2185476Y-1793524D01*
X2185476Y-1793524D02*
X2166429Y-1784000D01*
X2166429Y-1784000D02*
X2156905Y-1774476D01*
X2156905Y-1774476D02*
X2147381Y-1755428D01*
X2147381Y-1755428D02*
X2137857Y-1717333D01*
X2137857Y-1717333D02*
X2137857Y-1669714D01*
X2137857Y-1669714D02*
X2147381Y-1631619D01*
X2147381Y-1631619D02*
X2156905Y-1612571D01*
X2156905Y-1612571D02*
X2166429Y-1603048D01*
X2166429Y-1603048D02*
X2185476Y-1593524D01*
X2337857Y-1774476D02*
X2347381Y-1784000D01*
X2347381Y-1784000D02*
X2337857Y-1793524D01*
X2337857Y-1793524D02*
X2328334Y-1784000D01*
X2328334Y-1784000D02*
X2337857Y-1774476D01*
X2337857Y-1774476D02*
X2337857Y-1793524D01*
X2471191Y-1593524D02*
X2490238Y-1593524D01*
X2490238Y-1593524D02*
X2509286Y-1603048D01*
X2509286Y-1603048D02*
X2518810Y-1612571D01*
X2518810Y-1612571D02*
X2528334Y-1631619D01*
X2528334Y-1631619D02*
X2537857Y-1669714D01*
X2537857Y-1669714D02*
X2537857Y-1717333D01*
X2537857Y-1717333D02*
X2528334Y-1755428D01*
X2528334Y-1755428D02*
X2518810Y-1774476D01*
X2518810Y-1774476D02*
X2509286Y-1784000D01*
X2509286Y-1784000D02*
X2490238Y-1793524D01*
X2490238Y-1793524D02*
X2471191Y-1793524D01*
X2471191Y-1793524D02*
X2452143Y-1784000D01*
X2452143Y-1784000D02*
X2442619Y-1774476D01*
X2442619Y-1774476D02*
X2433095Y-1755428D01*
X2433095Y-1755428D02*
X2423572Y-1717333D01*
X2423572Y-1717333D02*
X2423572Y-1669714D01*
X2423572Y-1669714D02*
X2433095Y-1631619D01*
X2433095Y-1631619D02*
X2442619Y-1612571D01*
X2442619Y-1612571D02*
X2452143Y-1603048D01*
X2452143Y-1603048D02*
X2471191Y-1593524D01*
X2604524Y-1593524D02*
X2728334Y-1593524D01*
X2728334Y-1593524D02*
X2661667Y-1669714D01*
X2661667Y-1669714D02*
X2690238Y-1669714D01*
X2690238Y-1669714D02*
X2709286Y-1679238D01*
X2709286Y-1679238D02*
X2718810Y-1688762D01*
X2718810Y-1688762D02*
X2728334Y-1707809D01*
X2728334Y-1707809D02*
X2728334Y-1755428D01*
X2728334Y-1755428D02*
X2718810Y-1774476D01*
X2718810Y-1774476D02*
X2709286Y-1784000D01*
X2709286Y-1784000D02*
X2690238Y-1793524D01*
X2690238Y-1793524D02*
X2633095Y-1793524D01*
X2633095Y-1793524D02*
X2614048Y-1784000D01*
X2614048Y-1784000D02*
X2604524Y-1774476D01*
X2823572Y-1793524D02*
X2861667Y-1793524D01*
X2861667Y-1793524D02*
X2880714Y-1784000D01*
X2880714Y-1784000D02*
X2890238Y-1774476D01*
X2890238Y-1774476D02*
X2909286Y-1745905D01*
X2909286Y-1745905D02*
X2918810Y-1707809D01*
X2918810Y-1707809D02*
X2918810Y-1631619D01*
X2918810Y-1631619D02*
X2909286Y-1612571D01*
X2909286Y-1612571D02*
X2899762Y-1603048D01*
X2899762Y-1603048D02*
X2880714Y-1593524D01*
X2880714Y-1593524D02*
X2842619Y-1593524D01*
X2842619Y-1593524D02*
X2823572Y-1603048D01*
X2823572Y-1603048D02*
X2814048Y-1612571D01*
X2814048Y-1612571D02*
X2804524Y-1631619D01*
X2804524Y-1631619D02*
X2804524Y-1679238D01*
X2804524Y-1679238D02*
X2814048Y-1698286D01*
X2814048Y-1698286D02*
X2823572Y-1707809D01*
X2823572Y-1707809D02*
X2842619Y-1717333D01*
X2842619Y-1717333D02*
X2880714Y-1717333D01*
X2880714Y-1717333D02*
X2899762Y-1707809D01*
X2899762Y-1707809D02*
X2909286Y-1698286D01*
X2909286Y-1698286D02*
X2918810Y-1679238D01*
X3090238Y-1660190D02*
X3090238Y-1793524D01*
X3042619Y-1584000D02*
X2995000Y-1726857D01*
X2995000Y-1726857D02*
X3118810Y-1726857D01*
X3185476Y-1593524D02*
X3185476Y-1631619D01*
X3261667Y-1593524D02*
X3261667Y-1631619D01*
X3556905Y-1869714D02*
X3547381Y-1860190D01*
X3547381Y-1860190D02*
X3528334Y-1831619D01*
X3528334Y-1831619D02*
X3518810Y-1812571D01*
X3518810Y-1812571D02*
X3509286Y-1784000D01*
X3509286Y-1784000D02*
X3499762Y-1736381D01*
X3499762Y-1736381D02*
X3499762Y-1698286D01*
X3499762Y-1698286D02*
X3509286Y-1650667D01*
X3509286Y-1650667D02*
X3518810Y-1622095D01*
X3518810Y-1622095D02*
X3528334Y-1603048D01*
X3528334Y-1603048D02*
X3547381Y-1574476D01*
X3547381Y-1574476D02*
X3556905Y-1564952D01*
X3623572Y-1612571D02*
X3633095Y-1603048D01*
X3633095Y-1603048D02*
X3652143Y-1593524D01*
X3652143Y-1593524D02*
X3699762Y-1593524D01*
X3699762Y-1593524D02*
X3718810Y-1603048D01*
X3718810Y-1603048D02*
X3728334Y-1612571D01*
X3728334Y-1612571D02*
X3737857Y-1631619D01*
X3737857Y-1631619D02*
X3737857Y-1650667D01*
X3737857Y-1650667D02*
X3728334Y-1679238D01*
X3728334Y-1679238D02*
X3614048Y-1793524D01*
X3614048Y-1793524D02*
X3737857Y-1793524D01*
X3861667Y-1593524D02*
X3880715Y-1593524D01*
X3880715Y-1593524D02*
X3899762Y-1603048D01*
X3899762Y-1603048D02*
X3909286Y-1612571D01*
X3909286Y-1612571D02*
X3918810Y-1631619D01*
X3918810Y-1631619D02*
X3928334Y-1669714D01*
X3928334Y-1669714D02*
X3928334Y-1717333D01*
X3928334Y-1717333D02*
X3918810Y-1755428D01*
X3918810Y-1755428D02*
X3909286Y-1774476D01*
X3909286Y-1774476D02*
X3899762Y-1784000D01*
X3899762Y-1784000D02*
X3880715Y-1793524D01*
X3880715Y-1793524D02*
X3861667Y-1793524D01*
X3861667Y-1793524D02*
X3842619Y-1784000D01*
X3842619Y-1784000D02*
X3833095Y-1774476D01*
X3833095Y-1774476D02*
X3823572Y-1755428D01*
X3823572Y-1755428D02*
X3814048Y-1717333D01*
X3814048Y-1717333D02*
X3814048Y-1669714D01*
X3814048Y-1669714D02*
X3823572Y-1631619D01*
X3823572Y-1631619D02*
X3833095Y-1612571D01*
X3833095Y-1612571D02*
X3842619Y-1603048D01*
X3842619Y-1603048D02*
X3861667Y-1593524D01*
X4166429Y-1793524D02*
X4166429Y-1593524D01*
X4252143Y-1793524D02*
X4252143Y-1688762D01*
X4252143Y-1688762D02*
X4242619Y-1669714D01*
X4242619Y-1669714D02*
X4223572Y-1660190D01*
X4223572Y-1660190D02*
X4195000Y-1660190D01*
X4195000Y-1660190D02*
X4175953Y-1669714D01*
X4175953Y-1669714D02*
X4166429Y-1679238D01*
X4375953Y-1793524D02*
X4356905Y-1784000D01*
X4356905Y-1784000D02*
X4347381Y-1774476D01*
X4347381Y-1774476D02*
X4337858Y-1755428D01*
X4337858Y-1755428D02*
X4337858Y-1698286D01*
X4337858Y-1698286D02*
X4347381Y-1679238D01*
X4347381Y-1679238D02*
X4356905Y-1669714D01*
X4356905Y-1669714D02*
X4375953Y-1660190D01*
X4375953Y-1660190D02*
X4404524Y-1660190D01*
X4404524Y-1660190D02*
X4423572Y-1669714D01*
X4423572Y-1669714D02*
X4433096Y-1679238D01*
X4433096Y-1679238D02*
X4442619Y-1698286D01*
X4442619Y-1698286D02*
X4442619Y-1755428D01*
X4442619Y-1755428D02*
X4433096Y-1774476D01*
X4433096Y-1774476D02*
X4423572Y-1784000D01*
X4423572Y-1784000D02*
X4404524Y-1793524D01*
X4404524Y-1793524D02*
X4375953Y-1793524D01*
X4556905Y-1793524D02*
X4537858Y-1784000D01*
X4537858Y-1784000D02*
X4528334Y-1764952D01*
X4528334Y-1764952D02*
X4528334Y-1593524D01*
X4709286Y-1784000D02*
X4690239Y-1793524D01*
X4690239Y-1793524D02*
X4652143Y-1793524D01*
X4652143Y-1793524D02*
X4633096Y-1784000D01*
X4633096Y-1784000D02*
X4623572Y-1764952D01*
X4623572Y-1764952D02*
X4623572Y-1688762D01*
X4623572Y-1688762D02*
X4633096Y-1669714D01*
X4633096Y-1669714D02*
X4652143Y-1660190D01*
X4652143Y-1660190D02*
X4690239Y-1660190D01*
X4690239Y-1660190D02*
X4709286Y-1669714D01*
X4709286Y-1669714D02*
X4718810Y-1688762D01*
X4718810Y-1688762D02*
X4718810Y-1707809D01*
X4718810Y-1707809D02*
X4623572Y-1726857D01*
X4795000Y-1784000D02*
X4814048Y-1793524D01*
X4814048Y-1793524D02*
X4852143Y-1793524D01*
X4852143Y-1793524D02*
X4871191Y-1784000D01*
X4871191Y-1784000D02*
X4880715Y-1764952D01*
X4880715Y-1764952D02*
X4880715Y-1755428D01*
X4880715Y-1755428D02*
X4871191Y-1736381D01*
X4871191Y-1736381D02*
X4852143Y-1726857D01*
X4852143Y-1726857D02*
X4823572Y-1726857D01*
X4823572Y-1726857D02*
X4804524Y-1717333D01*
X4804524Y-1717333D02*
X4795000Y-1698286D01*
X4795000Y-1698286D02*
X4795000Y-1688762D01*
X4795000Y-1688762D02*
X4804524Y-1669714D01*
X4804524Y-1669714D02*
X4823572Y-1660190D01*
X4823572Y-1660190D02*
X4852143Y-1660190D01*
X4852143Y-1660190D02*
X4871191Y-1669714D01*
X4947381Y-1869714D02*
X4956905Y-1860190D01*
X4956905Y-1860190D02*
X4975953Y-1831619D01*
X4975953Y-1831619D02*
X4985477Y-1812571D01*
X4985477Y-1812571D02*
X4995000Y-1784000D01*
X4995000Y-1784000D02*
X5004524Y-1736381D01*
X5004524Y-1736381D02*
X5004524Y-1698286D01*
X5004524Y-1698286D02*
X4995000Y-1650667D01*
X4995000Y-1650667D02*
X4985477Y-1622095D01*
X4985477Y-1622095D02*
X4975953Y-1603048D01*
X4975953Y-1603048D02*
X4956905Y-1574476D01*
X4956905Y-1574476D02*
X4947381Y-1564952D01*
M02*
