%TF.GenerationSoftware,KiCad,Pcbnew,7.0.1*%
%TF.CreationDate,2023-08-04T20:18:17+09:00*%
%TF.ProjectId,FNF_Controller,464e465f-436f-46e7-9472-6f6c6c65722e,rev?*%
%TF.SameCoordinates,PX337f980PY7ed6b40*%
%TF.FileFunction,Copper,L1,Top*%
%TF.FilePolarity,Positive*%
%FSLAX46Y46*%
G04 Gerber Fmt 4.6, Leading zero omitted, Abs format (unit mm)*
G04 Created by KiCad (PCBNEW 7.0.1) date 2023-08-04 20:18:17*
%MOMM*%
%LPD*%
G01*
G04 APERTURE LIST*
G04 Aperture macros list*
%AMRoundRect*
0 Rectangle with rounded corners*
0 $1 Rounding radius*
0 $2 $3 $4 $5 $6 $7 $8 $9 X,Y pos of 4 corners*
0 Add a 4 corners polygon primitive as box body*
4,1,4,$2,$3,$4,$5,$6,$7,$8,$9,$2,$3,0*
0 Add four circle primitives for the rounded corners*
1,1,$1+$1,$2,$3*
1,1,$1+$1,$4,$5*
1,1,$1+$1,$6,$7*
1,1,$1+$1,$8,$9*
0 Add four rect primitives between the rounded corners*
20,1,$1+$1,$2,$3,$4,$5,0*
20,1,$1+$1,$4,$5,$6,$7,0*
20,1,$1+$1,$6,$7,$8,$9,0*
20,1,$1+$1,$8,$9,$2,$3,0*%
G04 Aperture macros list end*
%TA.AperFunction,ComponentPad*%
%ADD10RoundRect,0.250000X-0.600000X-0.750000X0.600000X-0.750000X0.600000X0.750000X-0.600000X0.750000X0*%
%TD*%
%TA.AperFunction,ComponentPad*%
%ADD11O,1.700000X2.000000*%
%TD*%
%TA.AperFunction,ComponentPad*%
%ADD12C,1.400000*%
%TD*%
%TA.AperFunction,ComponentPad*%
%ADD13O,1.400000X1.400000*%
%TD*%
%TA.AperFunction,SMDPad,CuDef*%
%ADD14R,2.550000X0.600000*%
%TD*%
%TA.AperFunction,SMDPad,CuDef*%
%ADD15R,1.450000X0.400000*%
%TD*%
%TA.AperFunction,ComponentPad*%
%ADD16C,1.600000*%
%TD*%
%TA.AperFunction,ComponentPad*%
%ADD17C,2.000000*%
%TD*%
%TA.AperFunction,SMDPad,CuDef*%
%ADD18R,0.600000X1.450000*%
%TD*%
%TA.AperFunction,SMDPad,CuDef*%
%ADD19R,0.300000X1.450000*%
%TD*%
%TA.AperFunction,ComponentPad*%
%ADD20O,1.000000X2.100000*%
%TD*%
%TA.AperFunction,ComponentPad*%
%ADD21O,1.000000X1.600000*%
%TD*%
%TA.AperFunction,ViaPad*%
%ADD22C,0.800000*%
%TD*%
%TA.AperFunction,Conductor*%
%ADD23C,0.250000*%
%TD*%
%TA.AperFunction,Conductor*%
%ADD24C,0.200000*%
%TD*%
G04 APERTURE END LIST*
D10*
%TO.P,SW6,1,A*%
%TO.N,Net-(U2-PC2)*%
X143500000Y8000000D03*
D11*
%TO.P,SW6,2,A*%
%TO.N,GNDREF*%
X146000000Y8000000D03*
%TD*%
D10*
%TO.P,SW4,1,A*%
%TO.N,Net-(U2-PC4)*%
X159500000Y24000000D03*
D11*
%TO.P,SW4,2,A*%
%TO.N,GNDREF*%
X162000000Y24000000D03*
%TD*%
D12*
%TO.P,R6,1*%
%TO.N,Net-(U1-VCC)*%
X172460000Y32000000D03*
D13*
%TO.P,R6,2*%
%TO.N,Net-(U2-PC3)*%
X177540000Y32000000D03*
%TD*%
D14*
%TO.P,U1,1,ACT#*%
%TO.N,Net-(D1-K)*%
X59200000Y26600000D03*
%TO.P,U1,2,MODE0*%
%TO.N,GNDREF*%
X59200000Y27870000D03*
%TO.P,U1,3,MODE1*%
%TO.N,unconnected-(U1-MODE1-Pad3)*%
X59200000Y29140000D03*
%TO.P,U1,4,CFG0*%
%TO.N,unconnected-(U1-CFG0-Pad4)*%
X59200000Y30410000D03*
%TO.P,U1,5,CFG1*%
%TO.N,unconnected-(U1-CFG1-Pad5)*%
X59200000Y31680000D03*
%TO.P,U1,6,RST*%
%TO.N,unconnected-(U1-RST-Pad6)*%
X59200000Y32950000D03*
%TO.P,U1,7,TXD*%
%TO.N,Net-(U1-TXD)*%
X59200000Y34220000D03*
%TO.P,U1,8,RXD*%
%TO.N,Net-(U1-RXD)*%
X59200000Y35490000D03*
%TO.P,U1,9,UP*%
%TO.N,unconnected-(U1-UP-Pad9)*%
X52800000Y35490000D03*
%TO.P,U1,10,DEF*%
%TO.N,unconnected-(U1-DEF-Pad10)*%
X52800000Y34220000D03*
%TO.P,U1,11,SET*%
%TO.N,unconnected-(U1-SET-Pad11)*%
X52800000Y32950000D03*
%TO.P,U1,12,UD+*%
%TO.N,D+*%
X52800000Y31680000D03*
%TO.P,U1,13,UD-*%
%TO.N,D-*%
X52800000Y30410000D03*
%TO.P,U1,14,GND*%
%TO.N,GNDREF*%
X52800000Y29140000D03*
%TO.P,U1,15,VCC*%
%TO.N,Net-(U1-VCC)*%
X52800000Y27870000D03*
%TO.P,U1,16,V33*%
%TO.N,Net-(U1-V33)*%
X52800000Y26600000D03*
%TD*%
D12*
%TO.P,R7,1*%
%TO.N,Net-(U1-VCC)*%
X141920000Y15000000D03*
D13*
%TO.P,R7,2*%
%TO.N,Net-(U2-PC2)*%
X147000000Y15000000D03*
%TD*%
D10*
%TO.P,SW5,1,A*%
%TO.N,Net-(U2-PC3)*%
X173500000Y24000000D03*
D11*
%TO.P,SW5,2,A*%
%TO.N,GNDREF*%
X176000000Y24000000D03*
%TD*%
D10*
%TO.P,SW8,1,A*%
%TO.N,Net-(U2-PC1)*%
X173500000Y8000000D03*
D11*
%TO.P,SW8,2,A*%
%TO.N,GNDREF*%
X176000000Y8000000D03*
%TD*%
D10*
%TO.P,SW3,1,A*%
%TO.N,Net-(U2-PC5)*%
X143500000Y24000000D03*
D11*
%TO.P,SW3,2,A*%
%TO.N,GNDREF*%
X146000000Y24000000D03*
%TD*%
D12*
%TO.P,R3,1*%
%TO.N,Net-(U1-VCC)*%
X172460000Y49000000D03*
D13*
%TO.P,R3,2*%
%TO.N,Net-(U2-PC6)*%
X177540000Y49000000D03*
%TD*%
D12*
%TO.P,R8,1*%
%TO.N,Net-(U1-VCC)*%
X157920000Y15000000D03*
D13*
%TO.P,R8,2*%
%TO.N,Net-(U2-PC1)*%
X163000000Y15000000D03*
%TD*%
D12*
%TO.P,R9,1*%
%TO.N,Net-(D1-A)*%
X141920000Y49000000D03*
D13*
%TO.P,R9,2*%
%TO.N,Net-(U1-V33)*%
X147000000Y49000000D03*
%TD*%
D15*
%TO.P,U2,1,PD4*%
%TO.N,unconnected-(U2-PD4-Pad1)*%
X107300000Y34950000D03*
%TO.P,U2,2,PD5/UTX*%
%TO.N,Net-(U1-RXD)*%
X107300000Y34300000D03*
%TO.P,U2,3,PD6/URX*%
%TO.N,Net-(U1-TXD)*%
X107300000Y33650000D03*
%TO.P,U2,4,PD7*%
%TO.N,unconnected-(U2-PD7-Pad4)*%
X107300000Y33000000D03*
%TO.P,U2,5,PA1*%
%TO.N,unconnected-(U2-PA1-Pad5)*%
X107300000Y32350000D03*
%TO.P,U2,6,PA2*%
%TO.N,unconnected-(U2-PA2-Pad6)*%
X107300000Y31700000D03*
%TO.P,U2,7,VSS*%
%TO.N,GNDREF*%
X107300000Y31050000D03*
%TO.P,U2,8,PD0*%
%TO.N,unconnected-(U2-PD0-Pad8)*%
X107300000Y30400000D03*
%TO.P,U2,9,VDD*%
%TO.N,Net-(U1-VCC)*%
X107300000Y29750000D03*
%TO.P,U2,10,PC0*%
%TO.N,unconnected-(U2-PC0-Pad10)*%
X107300000Y29100000D03*
%TO.P,U2,11,PC1*%
%TO.N,Net-(U2-PC1)*%
X112900000Y29100000D03*
%TO.P,U2,12,PC2*%
%TO.N,Net-(U2-PC2)*%
X112900000Y29750000D03*
%TO.P,U2,13,PC3*%
%TO.N,Net-(U2-PC3)*%
X112900000Y30400000D03*
%TO.P,U2,14,PC4*%
%TO.N,Net-(U2-PC4)*%
X112900000Y31050000D03*
%TO.P,U2,15,PC5*%
%TO.N,Net-(U2-PC5)*%
X112900000Y31700000D03*
%TO.P,U2,16,PC6*%
%TO.N,Net-(U2-PC6)*%
X112900000Y32350000D03*
%TO.P,U2,17,PC7*%
%TO.N,Net-(U2-PC7)*%
X112900000Y33000000D03*
%TO.P,U2,18,PD1/SWIO*%
%TO.N,unconnected-(U2-PD1{slash}SWIO-Pad18)*%
X112900000Y33650000D03*
%TO.P,U2,19,PD2*%
%TO.N,unconnected-(U2-PD2-Pad19)*%
X112900000Y34300000D03*
%TO.P,U2,20,PD3*%
%TO.N,unconnected-(U2-PD3-Pad20)*%
X112900000Y34950000D03*
%TD*%
D10*
%TO.P,SW7,1,A*%
%TO.N,Net-(U2-PC1)*%
X159000000Y8000000D03*
D11*
%TO.P,SW7,2,A*%
%TO.N,GNDREF*%
X161500000Y8000000D03*
%TD*%
D16*
%TO.P,C3,1*%
%TO.N,GNDREF*%
X53000000Y14000000D03*
%TO.P,C3,2*%
%TO.N,Net-(U1-V33)*%
X58000000Y14000000D03*
%TD*%
D12*
%TO.P,R1,1*%
%TO.N,Net-(J1-CC1)*%
X12000000Y48540000D03*
D13*
%TO.P,R1,2*%
%TO.N,GNDREF*%
X12000000Y43460000D03*
%TD*%
D16*
%TO.P,C1,1*%
%TO.N,GNDREF*%
X68000000Y51000000D03*
%TO.P,C1,2*%
%TO.N,Net-(U1-VCC)*%
X73000000Y51000000D03*
%TD*%
D12*
%TO.P,R2,1*%
%TO.N,Net-(U1-VCC)*%
X158460000Y49000000D03*
D13*
%TO.P,R2,2*%
%TO.N,Net-(U2-PC7)*%
X163540000Y49000000D03*
%TD*%
D12*
%TO.P,R4,1*%
%TO.N,Net-(U1-VCC)*%
X142460000Y32000000D03*
D13*
%TO.P,R4,2*%
%TO.N,Net-(U2-PC5)*%
X147540000Y32000000D03*
%TD*%
D17*
%TO.P,F1,1*%
%TO.N,Net-(U1-VCC)*%
X53540000Y47000000D03*
%TO.P,F1,2*%
%TO.N,Net-(J1-VBUS-PadA4)*%
X48460000Y47010000D03*
%TD*%
D10*
%TO.P,D1,1,K*%
%TO.N,Net-(D1-K)*%
X143500000Y41000000D03*
D11*
%TO.P,D1,2,A*%
%TO.N,Net-(D1-A)*%
X146000000Y41000000D03*
%TD*%
D12*
%TO.P,R5,1*%
%TO.N,Net-(U1-VCC)*%
X158460000Y32000000D03*
D13*
%TO.P,R5,2*%
%TO.N,Net-(U2-PC4)*%
X163540000Y32000000D03*
%TD*%
D18*
%TO.P,J1,A1,GND*%
%TO.N,GNDREF*%
X27930000Y52905000D03*
%TO.P,J1,A4,VBUS*%
%TO.N,Net-(J1-VBUS-PadA4)*%
X27130000Y52905000D03*
D19*
%TO.P,J1,A5,CC1*%
%TO.N,Net-(J1-CC1)*%
X25930000Y52905000D03*
%TO.P,J1,A6,D+*%
%TO.N,D+*%
X24930000Y52905000D03*
%TO.P,J1,A7,D-*%
%TO.N,D-*%
X24430000Y52905000D03*
%TO.P,J1,A8,SBU1*%
%TO.N,unconnected-(J1-SBU1-PadA8)*%
X23430000Y52905000D03*
D18*
%TO.P,J1,A9,VBUS*%
%TO.N,Net-(J1-VBUS-PadA4)*%
X22230000Y52905000D03*
%TO.P,J1,A12,GND*%
%TO.N,GNDREF*%
X21430000Y52905000D03*
%TO.P,J1,B1,GND*%
X21430000Y52905000D03*
%TO.P,J1,B4,VBUS*%
%TO.N,Net-(J1-VBUS-PadA4)*%
X22230000Y52905000D03*
D19*
%TO.P,J1,B5,CC2*%
%TO.N,Net-(J1-CC1)*%
X22930000Y52905000D03*
%TO.P,J1,B6,D+*%
%TO.N,D+*%
X23930000Y52905000D03*
%TO.P,J1,B7,D-*%
%TO.N,D-*%
X25430000Y52905000D03*
%TO.P,J1,B8,SBU2*%
%TO.N,unconnected-(J1-SBU2-PadB8)*%
X26430000Y52905000D03*
D18*
%TO.P,J1,B9,VBUS*%
%TO.N,Net-(J1-VBUS-PadA4)*%
X27130000Y52905000D03*
%TO.P,J1,B12,GND*%
%TO.N,GNDREF*%
X27930000Y52905000D03*
D20*
%TO.P,J1,S1,SHIELD*%
%TO.N,unconnected-(J1-SHIELD-PadS1)*%
X29000000Y53820000D03*
D21*
X29000000Y58000000D03*
D20*
X20360000Y53820000D03*
D21*
X20360000Y58000000D03*
%TD*%
D16*
%TO.P,C2,1*%
%TO.N,Net-(U1-VCC)*%
X107000000Y51000000D03*
%TO.P,C2,2*%
%TO.N,GNDREF*%
X112000000Y51000000D03*
%TD*%
D10*
%TO.P,SW1,1,A*%
%TO.N,Net-(U2-PC7)*%
X159500000Y41000000D03*
D11*
%TO.P,SW1,2,A*%
%TO.N,GNDREF*%
X162000000Y41000000D03*
%TD*%
D10*
%TO.P,SW2,1,A*%
%TO.N,Net-(U2-PC6)*%
X173500000Y41000000D03*
D11*
%TO.P,SW2,2,A*%
%TO.N,GNDREF*%
X176000000Y41000000D03*
%TD*%
D22*
%TO.N,GNDREF*%
X18000000Y50000000D03*
X85000000Y10000000D03*
X173000000Y56000000D03*
X113000000Y17000000D03*
X104000000Y21000000D03*
X152000000Y38000000D03*
X57000000Y57000000D03*
X170000000Y27000000D03*
X41000000Y39000000D03*
X73000000Y22000000D03*
X156000000Y58000000D03*
X152000000Y44000000D03*
X39000000Y52000000D03*
X129000000Y38000000D03*
X68000000Y8000000D03*
X128000000Y52000000D03*
X188000000Y41000000D03*
X168000000Y46000000D03*
X91000000Y46000000D03*
X43000000Y59000000D03*
X11000000Y35000000D03*
X18000000Y29000000D03*
X42000000Y19000000D03*
X98000000Y11000000D03*
X152000000Y10000000D03*
X170000000Y16000000D03*
X125000000Y29000000D03*
X153000000Y27000000D03*
X105050000Y31050000D03*
X46000000Y4000000D03*
X103000000Y49000000D03*
X131000000Y5000000D03*
X184000000Y15000000D03*
X18000000Y17000000D03*
X73000000Y30000000D03*
X30000000Y15000000D03*
X191000000Y28000000D03*
X126000000Y45000000D03*
X78000000Y45000000D03*
X115000000Y5000000D03*
X168000000Y39000000D03*
X5000000Y47000000D03*
X137000000Y14000000D03*
X91000000Y59000000D03*
%TO.N,Net-(U1-VCC)*%
X110000000Y33000000D03*
%TO.N,Net-(U1-V33)*%
X97000000Y58000000D03*
X97000000Y22000000D03*
%TO.N,Net-(D1-K)*%
X90000000Y41000000D03*
X90000000Y27000000D03*
%TO.N,D+*%
X25000000Y47000000D03*
X21000000Y32000000D03*
X21000000Y47000000D03*
%TO.N,D-*%
X27000000Y30000000D03*
X27000000Y44000000D03*
X24000000Y45000000D03*
%TD*%
D23*
%TO.N,GNDREF*%
X105000000Y31000000D02*
X105050000Y31050000D01*
X18000000Y50000000D02*
X18000000Y53176726D01*
X18525000Y50000000D02*
X18000000Y50000000D01*
X42000000Y19315000D02*
X42000000Y19000000D01*
X51825000Y29140000D02*
X42000000Y19315000D01*
X29825000Y52928274D02*
X28896726Y52000000D01*
X20018274Y55195000D02*
X29341726Y55195000D01*
X59200000Y27870000D02*
X70870000Y27870000D01*
X29825000Y54711726D02*
X29825000Y52928274D01*
X28896726Y52000000D02*
X28835000Y52000000D01*
X18000000Y53176726D02*
X20018274Y55195000D01*
X21430000Y52905000D02*
X18525000Y50000000D01*
X29341726Y55195000D02*
X29825000Y54711726D01*
X52800000Y29140000D02*
X51825000Y29140000D01*
X70870000Y27870000D02*
X73000000Y30000000D01*
X28835000Y52000000D02*
X27930000Y52905000D01*
X107300000Y31050000D02*
X105050000Y31050000D01*
%TO.N,Net-(U1-VCC)*%
X73000000Y51000000D02*
X72485000Y51000000D01*
X54400000Y32915000D02*
X54400000Y28400000D01*
X110000000Y33000000D02*
X110000000Y31525000D01*
X53870000Y27870000D02*
X52800000Y27870000D01*
X73000000Y51000000D02*
X73000000Y55000000D01*
X58000000Y47000000D02*
X66000000Y55000000D01*
X54400000Y28400000D02*
X53870000Y27870000D01*
X110000000Y31525000D02*
X108225000Y29750000D01*
X72485000Y51000000D02*
X54400000Y32915000D01*
X103000000Y55000000D02*
X107000000Y51000000D01*
X73000000Y55000000D02*
X103000000Y55000000D01*
X66000000Y55000000D02*
X73000000Y55000000D01*
X108225000Y29750000D02*
X107300000Y29750000D01*
X53540000Y47000000D02*
X58000000Y47000000D01*
%TO.N,Net-(U1-V33)*%
X97000000Y58000000D02*
X138000000Y58000000D01*
X138000000Y58000000D02*
X147000000Y49000000D01*
X52800000Y19200000D02*
X58000000Y14000000D01*
X58000000Y14000000D02*
X89000000Y14000000D01*
X52800000Y26600000D02*
X52800000Y19200000D01*
X89000000Y14000000D02*
X97000000Y22000000D01*
%TO.N,Net-(D1-K)*%
X89600000Y26600000D02*
X59200000Y26600000D01*
X90000000Y27000000D02*
X89600000Y26600000D01*
X143500000Y41000000D02*
X90000000Y41000000D01*
%TO.N,Net-(D1-A)*%
X141920000Y45080000D02*
X146000000Y41000000D01*
X141920000Y49000000D02*
X141920000Y45080000D01*
%TO.N,Net-(J1-VBUS-PadA4)*%
X27130000Y52905000D02*
X27130000Y53800051D01*
X32050000Y47010000D02*
X48460000Y47010000D01*
X27130000Y53800051D02*
X26930051Y54000000D01*
X22230000Y53800051D02*
X22230000Y52905000D01*
X27130000Y51930000D02*
X32050000Y47010000D01*
X26930051Y54000000D02*
X22429949Y54000000D01*
X22429949Y54000000D02*
X22230000Y53800051D01*
X27130000Y52905000D02*
X27130000Y51930000D01*
%TO.N,Net-(J1-CC1)*%
X27725000Y50035000D02*
X27725000Y43699695D01*
X19540000Y48540000D02*
X12000000Y48540000D01*
X27300305Y43275000D02*
X17265000Y43275000D01*
X22930000Y51930000D02*
X19540000Y48540000D01*
X25930000Y51830000D02*
X27725000Y50035000D01*
X17265000Y43275000D02*
X12000000Y48540000D01*
X25930000Y52905000D02*
X25930000Y51830000D01*
X22930000Y52905000D02*
X22930000Y51930000D01*
X27725000Y43699695D02*
X27300305Y43275000D01*
D24*
%TO.N,D+*%
X21000000Y47000000D02*
X23930000Y49930000D01*
X24930000Y52905000D02*
X24930000Y47070000D01*
X24930000Y47070000D02*
X25000000Y47000000D01*
X21000000Y32000000D02*
X21320000Y31680000D01*
X23930000Y49930000D02*
X23930000Y52905000D01*
X21320000Y31680000D02*
X52800000Y31680000D01*
%TO.N,D-*%
X24430000Y52905000D02*
X24430000Y47419950D01*
X27000000Y45989950D02*
X27000000Y44000000D01*
X25430000Y52905000D02*
X25430000Y47559950D01*
X24000000Y46989950D02*
X24000000Y45000000D01*
X25430000Y47559950D02*
X27000000Y45989950D01*
X27410000Y30410000D02*
X52800000Y30410000D01*
X27000000Y30000000D02*
X27410000Y30410000D01*
X24430000Y47419950D02*
X24000000Y46989950D01*
D23*
%TO.N,Net-(U2-PC7)*%
X112925000Y33025000D02*
X151525000Y33025000D01*
X112900000Y33000000D02*
X112925000Y33025000D01*
X151525000Y33025000D02*
X159500000Y41000000D01*
%TO.N,Net-(U2-PC6)*%
X116525000Y30000000D02*
X163000000Y30000000D01*
X112900000Y32350000D02*
X114175000Y32350000D01*
X114175000Y32350000D02*
X116525000Y30000000D01*
X163000000Y30000000D02*
X173500000Y40500000D01*
X173500000Y40500000D02*
X173500000Y41000000D01*
%TO.N,Net-(U2-PC5)*%
X113875000Y31700000D02*
X121575000Y24000000D01*
X112900000Y31700000D02*
X113875000Y31700000D01*
X121575000Y24000000D02*
X143500000Y24000000D01*
%TO.N,Net-(U2-PC4)*%
X158175000Y22675000D02*
X159500000Y24000000D01*
X112900000Y31050000D02*
X113875000Y31050000D01*
X122250000Y22675000D02*
X158175000Y22675000D01*
X113875000Y31050000D02*
X122250000Y22675000D01*
%TO.N,Net-(U2-PC3)*%
X112900000Y30400000D02*
X113875000Y30400000D01*
X113875000Y30400000D02*
X122050000Y22225000D01*
X171725000Y22225000D02*
X173500000Y24000000D01*
X122050000Y22225000D02*
X171725000Y22225000D01*
%TO.N,Net-(U2-PC2)*%
X135625000Y8000000D02*
X143500000Y8000000D01*
X112900000Y29750000D02*
X113875000Y29750000D01*
X113875000Y29750000D02*
X135625000Y8000000D01*
%TO.N,Net-(U2-PC1)*%
X160325000Y9325000D02*
X172175000Y9325000D01*
X135325000Y6675000D02*
X157675000Y6675000D01*
X157675000Y6675000D02*
X159000000Y8000000D01*
X172175000Y9325000D02*
X173500000Y8000000D01*
X159000000Y8000000D02*
X160325000Y9325000D01*
X112900000Y29100000D02*
X135325000Y6675000D01*
%TO.N,Net-(U1-TXD)*%
X107300000Y33650000D02*
X59770000Y33650000D01*
X59770000Y33650000D02*
X59200000Y34220000D01*
%TO.N,Net-(U1-RXD)*%
X106325000Y34300000D02*
X105135000Y35490000D01*
X105135000Y35490000D02*
X59200000Y35490000D01*
X107300000Y34300000D02*
X106325000Y34300000D01*
%TD*%
%TA.AperFunction,Conductor*%
%TO.N,GNDREF*%
G36*
X199937500Y62982887D02*
G01*
X199982887Y62937500D01*
X199999500Y62875500D01*
X199999500Y124500D01*
X199982887Y62500D01*
X199937500Y17113D01*
X199875500Y500D01*
X124500Y500D01*
X62500Y17113D01*
X17113Y62500D01*
X500Y124500D01*
X500Y6932236D01*
X9145787Y6932236D01*
X9175413Y6662984D01*
X9198005Y6576570D01*
X9243928Y6400912D01*
X9349870Y6151610D01*
X9349871Y6151608D01*
X9490982Y5920389D01*
X9580253Y5813119D01*
X9664255Y5712180D01*
X9865998Y5531418D01*
X10091910Y5381956D01*
X10198211Y5332124D01*
X10337177Y5266979D01*
X10596562Y5188942D01*
X10596569Y5188940D01*
X10864561Y5149500D01*
X11067631Y5149500D01*
X11067634Y5149500D01*
X11270156Y5164323D01*
X11270156Y5164324D01*
X11534553Y5223220D01*
X11787558Y5319986D01*
X12023777Y5452559D01*
X12238177Y5618112D01*
X12426186Y5813119D01*
X12583799Y6033421D01*
X12707656Y6274325D01*
X12795118Y6530695D01*
X12844319Y6797067D01*
X12854212Y7067765D01*
X12824586Y7337018D01*
X12756072Y7599088D01*
X12650130Y7848390D01*
X12509018Y8079610D01*
X12509017Y8079612D01*
X12335746Y8287819D01*
X12230758Y8381888D01*
X12134002Y8468582D01*
X11908090Y8618044D01*
X11872050Y8634939D01*
X11662822Y8733022D01*
X11403437Y8811059D01*
X11403431Y8811060D01*
X11135439Y8850500D01*
X10932369Y8850500D01*
X10932366Y8850500D01*
X10729843Y8835678D01*
X10465449Y8776781D01*
X10212441Y8680014D01*
X9976223Y8547441D01*
X9761825Y8381891D01*
X9573813Y8186880D01*
X9416201Y7966580D01*
X9292342Y7725671D01*
X9204881Y7469305D01*
X9155680Y7202934D01*
X9145787Y6932236D01*
X500Y6932236D01*
X500Y12920974D01*
X52274526Y12920974D01*
X52347515Y12869867D01*
X52553673Y12773734D01*
X52773397Y12714859D01*
X53000000Y12695034D01*
X53226602Y12714859D01*
X53446326Y12773734D01*
X53652480Y12869866D01*
X53725472Y12920975D01*
X53000001Y13646447D01*
X53000000Y13646447D01*
X52274526Y12920975D01*
X52274526Y12920974D01*
X500Y12920974D01*
X500Y14000000D01*
X51695033Y14000000D01*
X51714858Y13773398D01*
X51773733Y13553674D01*
X51869866Y13347516D01*
X51920972Y13274529D01*
X51920974Y13274528D01*
X52646446Y13999999D01*
X52646446Y14000000D01*
X52646445Y14000001D01*
X53353553Y14000001D01*
X54079025Y13274528D01*
X54130134Y13347520D01*
X54226266Y13553674D01*
X54285141Y13773398D01*
X54304966Y14000000D01*
X54285141Y14226603D01*
X54226266Y14446327D01*
X54130133Y14652485D01*
X54079025Y14725474D01*
X53353553Y14000001D01*
X52646445Y14000001D01*
X51920973Y14725474D01*
X51920973Y14725473D01*
X51869865Y14652484D01*
X51773733Y14446328D01*
X51714858Y14226603D01*
X51695033Y14000000D01*
X500Y14000000D01*
X500Y15079027D01*
X52274526Y15079027D01*
X53000000Y14353554D01*
X53000001Y14353554D01*
X53725472Y15079026D01*
X53725471Y15079028D01*
X53652484Y15130134D01*
X53446326Y15226267D01*
X53226602Y15285142D01*
X53000000Y15304967D01*
X52773397Y15285142D01*
X52553672Y15226267D01*
X52347516Y15130135D01*
X52274527Y15079027D01*
X52274526Y15079027D01*
X500Y15079027D01*
X500Y32000001D01*
X20094540Y32000001D01*
X20114326Y31811743D01*
X20172820Y31631716D01*
X20267466Y31467784D01*
X20394129Y31327111D01*
X20547269Y31215849D01*
X20720197Y31138856D01*
X20905352Y31099500D01*
X20905354Y31099500D01*
X21094646Y31099500D01*
X21094647Y31099500D01*
X21095061Y31099588D01*
X21132191Y31101779D01*
X21155900Y31095923D01*
X21163234Y31094958D01*
X21163238Y31094956D01*
X21288698Y31078439D01*
X21319999Y31074318D01*
X21319999Y31074319D01*
X21320000Y31074318D01*
X21351302Y31078440D01*
X21367487Y31079500D01*
X26627258Y31079500D01*
X26691493Y31061565D01*
X26737147Y31012949D01*
X26751013Y30947714D01*
X26729081Y30884732D01*
X26677694Y30842221D01*
X26547269Y30784152D01*
X26394129Y30672890D01*
X26267466Y30532217D01*
X26172820Y30368285D01*
X26114326Y30188258D01*
X26094540Y30000001D01*
X26114326Y29811743D01*
X26172820Y29631716D01*
X26267466Y29467784D01*
X26394129Y29327111D01*
X26547269Y29215849D01*
X26720197Y29138856D01*
X26905352Y29099500D01*
X26905354Y29099500D01*
X27094646Y29099500D01*
X27094648Y29099500D01*
X27239498Y29130289D01*
X27279803Y29138856D01*
X27452730Y29215849D01*
X27521741Y29265988D01*
X27605870Y29327111D01*
X27624563Y29347871D01*
X27732533Y29467784D01*
X27827179Y29631716D01*
X27857105Y29723819D01*
X27882886Y29768472D01*
X27924601Y29798780D01*
X27975036Y29809500D01*
X50950575Y29809500D01*
X51008050Y29795376D01*
X51052431Y29756220D01*
X51073608Y29700954D01*
X51066757Y29642167D01*
X51031402Y29547378D01*
X51025000Y29487824D01*
X51025000Y28792176D01*
X51031402Y28732625D01*
X51081648Y28597909D01*
X51095259Y28579727D01*
X51117158Y28531775D01*
X51117158Y28479059D01*
X51095260Y28431108D01*
X51091452Y28426022D01*
X51081204Y28412332D01*
X51030909Y28277484D01*
X51024500Y28217870D01*
X51024500Y27522131D01*
X51030909Y27462516D01*
X51081204Y27327668D01*
X51094947Y27309310D01*
X51116846Y27261358D01*
X51116846Y27208642D01*
X51094947Y27160690D01*
X51081205Y27142334D01*
X51030909Y27007484D01*
X51024500Y26947870D01*
X51024500Y26252131D01*
X51028401Y26215849D01*
X51030909Y26192517D01*
X51081204Y26057669D01*
X51167454Y25942454D01*
X51282669Y25856204D01*
X51417517Y25805909D01*
X51477127Y25799500D01*
X52050500Y25799500D01*
X52112500Y25782887D01*
X52157887Y25737500D01*
X52174500Y25675500D01*
X52174500Y19282744D01*
X52172235Y19262238D01*
X52174439Y19192127D01*
X52174500Y19188232D01*
X52174500Y19160651D01*
X52175003Y19156666D01*
X52175918Y19145033D01*
X52177290Y19101374D01*
X52182879Y19082140D01*
X52186825Y19063084D01*
X52189335Y19043208D01*
X52205414Y19002596D01*
X52209197Y18991549D01*
X52221382Y18949609D01*
X52231580Y18932365D01*
X52240136Y18914900D01*
X52247514Y18896268D01*
X52247515Y18896267D01*
X52273180Y18860941D01*
X52279593Y18851178D01*
X52301826Y18813584D01*
X52301829Y18813581D01*
X52301830Y18813580D01*
X52315995Y18799415D01*
X52328627Y18784625D01*
X52340406Y18768413D01*
X52374058Y18740574D01*
X52382699Y18732711D01*
X56700586Y14414824D01*
X56732680Y14359237D01*
X56732680Y14295051D01*
X56714364Y14226693D01*
X56694531Y14000000D01*
X56714364Y13773311D01*
X56773261Y13553503D01*
X56869432Y13347265D01*
X56999953Y13160860D01*
X57160859Y12999954D01*
X57347264Y12869433D01*
X57347265Y12869433D01*
X57347266Y12869432D01*
X57553504Y12773261D01*
X57773308Y12714365D01*
X58000000Y12694532D01*
X58226692Y12714365D01*
X58446496Y12773261D01*
X58652734Y12869432D01*
X58839139Y12999953D01*
X59000047Y13160861D01*
X59079637Y13274528D01*
X59112613Y13321623D01*
X59156931Y13360489D01*
X59214188Y13374500D01*
X88917256Y13374500D01*
X88937762Y13372236D01*
X88940665Y13372328D01*
X88940667Y13372327D01*
X89007872Y13374439D01*
X89011768Y13374500D01*
X89039349Y13374500D01*
X89039350Y13374500D01*
X89043319Y13375002D01*
X89054965Y13375920D01*
X89098627Y13377291D01*
X89117859Y13382880D01*
X89136918Y13386826D01*
X89143196Y13387619D01*
X89156792Y13389336D01*
X89197407Y13405418D01*
X89208444Y13409197D01*
X89250390Y13421382D01*
X89267629Y13431578D01*
X89285102Y13440138D01*
X89303732Y13447514D01*
X89339064Y13473186D01*
X89348830Y13479600D01*
X89386418Y13501829D01*
X89386417Y13501829D01*
X89386420Y13501830D01*
X89400585Y13515996D01*
X89415373Y13528627D01*
X89431587Y13540406D01*
X89459438Y13574074D01*
X89467279Y13582691D01*
X96947771Y21063181D01*
X96988000Y21090061D01*
X97035453Y21099500D01*
X97094648Y21099500D01*
X97218084Y21125738D01*
X97279803Y21138856D01*
X97452730Y21215849D01*
X97605871Y21327112D01*
X97732533Y21467784D01*
X97827179Y21631716D01*
X97885674Y21811744D01*
X97905460Y22000000D01*
X97885674Y22188256D01*
X97827179Y22368284D01*
X97827179Y22368285D01*
X97732533Y22532217D01*
X97605870Y22672890D01*
X97452730Y22784152D01*
X97279802Y22861145D01*
X97094648Y22900500D01*
X97094646Y22900500D01*
X96905354Y22900500D01*
X96905352Y22900500D01*
X96720197Y22861145D01*
X96547269Y22784152D01*
X96394129Y22672890D01*
X96267466Y22532217D01*
X96172820Y22368285D01*
X96114326Y22188258D01*
X96096679Y22020351D01*
X96085279Y21979930D01*
X96061039Y21945632D01*
X88777228Y14661819D01*
X88737000Y14634939D01*
X88689547Y14625500D01*
X59214188Y14625500D01*
X59156931Y14639511D01*
X59112613Y14678377D01*
X59000046Y14839141D01*
X58839140Y15000047D01*
X58652735Y15130568D01*
X58446497Y15226739D01*
X58226689Y15285636D01*
X58000000Y15305469D01*
X57773307Y15285636D01*
X57704950Y15267320D01*
X57640764Y15267320D01*
X57585177Y15299414D01*
X53461819Y19422772D01*
X53434939Y19463000D01*
X53425500Y19510453D01*
X53425500Y25675501D01*
X53442113Y25737501D01*
X53487500Y25782888D01*
X53549500Y25799501D01*
X54122870Y25799501D01*
X54122872Y25799501D01*
X54182483Y25805909D01*
X54317331Y25856204D01*
X54432546Y25942454D01*
X54518796Y26057669D01*
X54569091Y26192517D01*
X54575500Y26252127D01*
X54575499Y26947872D01*
X54569091Y27007483D01*
X54518796Y27142331D01*
X54505053Y27160689D01*
X54483153Y27208641D01*
X54483153Y27261359D01*
X54505053Y27309312D01*
X54518796Y27327669D01*
X54569091Y27462517D01*
X54575500Y27522127D01*
X54575499Y27639550D01*
X54584938Y27687001D01*
X54611815Y27727227D01*
X54783786Y27899198D01*
X54799881Y27912090D01*
X54801873Y27914212D01*
X54801877Y27914214D01*
X54847948Y27963277D01*
X54850566Y27965977D01*
X54870120Y27985529D01*
X54872581Y27988702D01*
X54880156Y27997573D01*
X54910062Y28029418D01*
X54919717Y28046982D01*
X54930394Y28063236D01*
X54942673Y28079064D01*
X54960018Y28119148D01*
X54965160Y28129644D01*
X54986197Y28167908D01*
X54991179Y28187316D01*
X54997481Y28205720D01*
X55005437Y28224104D01*
X55012269Y28267248D01*
X55014633Y28278662D01*
X55025500Y28320981D01*
X55025500Y28341016D01*
X55027027Y28360415D01*
X55027465Y28363182D01*
X55030160Y28380196D01*
X55026050Y28423675D01*
X55025500Y28435344D01*
X55025500Y32604548D01*
X55034939Y32652001D01*
X55061819Y32692229D01*
X55617463Y33247873D01*
X57295284Y34925696D01*
X57348027Y34956990D01*
X57409319Y34959180D01*
X57464164Y34931728D01*
X57499144Y34881350D01*
X57505701Y34820370D01*
X57482233Y34763706D01*
X57481205Y34762334D01*
X57430909Y34627484D01*
X57424500Y34567870D01*
X57424500Y33872131D01*
X57430909Y33812516D01*
X57481204Y33677668D01*
X57494947Y33659310D01*
X57516846Y33611358D01*
X57516846Y33558642D01*
X57494947Y33510690D01*
X57481205Y33492334D01*
X57430909Y33357484D01*
X57424500Y33297870D01*
X57424500Y32602131D01*
X57430909Y32542516D01*
X57481204Y32407668D01*
X57494946Y32389312D01*
X57516846Y32341361D01*
X57516847Y32288645D01*
X57494949Y32240693D01*
X57481205Y32222334D01*
X57430910Y32087485D01*
X57430909Y32087483D01*
X57426075Y32042517D01*
X57424500Y32027870D01*
X57424500Y31332131D01*
X57430909Y31272516D01*
X57481204Y31137668D01*
X57494947Y31119310D01*
X57516846Y31071358D01*
X57516846Y31018642D01*
X57494947Y30970690D01*
X57481205Y30952334D01*
X57430910Y30817485D01*
X57430909Y30817483D01*
X57427326Y30784152D01*
X57424500Y30757870D01*
X57424500Y30062131D01*
X57430909Y30002516D01*
X57481204Y29867668D01*
X57494946Y29849312D01*
X57516846Y29801361D01*
X57516847Y29748645D01*
X57494949Y29700693D01*
X57481205Y29682334D01*
X57430910Y29547485D01*
X57430909Y29547483D01*
X57426001Y29501829D01*
X57424500Y29487870D01*
X57424500Y28792131D01*
X57430909Y28732516D01*
X57454040Y28670500D01*
X57481204Y28597669D01*
X57495260Y28578893D01*
X57517158Y28530943D01*
X57517159Y28478228D01*
X57495261Y28430276D01*
X57481648Y28412092D01*
X57431402Y28277376D01*
X57425000Y28217824D01*
X57425000Y27522176D01*
X57431402Y27462625D01*
X57481648Y27327909D01*
X57495259Y27309727D01*
X57517158Y27261775D01*
X57517158Y27209059D01*
X57495260Y27161108D01*
X57491452Y27156022D01*
X57481204Y27142332D01*
X57430909Y27007484D01*
X57424500Y26947870D01*
X57424500Y26252131D01*
X57428401Y26215849D01*
X57430909Y26192517D01*
X57481204Y26057669D01*
X57567454Y25942454D01*
X57682669Y25856204D01*
X57817517Y25805909D01*
X57877127Y25799500D01*
X60522872Y25799501D01*
X60582483Y25805909D01*
X60717331Y25856204D01*
X60832546Y25942454D01*
X60832547Y25942456D01*
X60842314Y25949767D01*
X60877466Y25968154D01*
X60916625Y25974500D01*
X89517256Y25974500D01*
X89537762Y25972236D01*
X89540665Y25972328D01*
X89540667Y25972327D01*
X89607872Y25974439D01*
X89611768Y25974500D01*
X89639349Y25974500D01*
X89639350Y25974500D01*
X89643319Y25975002D01*
X89654965Y25975920D01*
X89698627Y25977291D01*
X89717859Y25982880D01*
X89736918Y25986826D01*
X89743196Y25987619D01*
X89756792Y25989336D01*
X89797407Y26005418D01*
X89808444Y26009197D01*
X89850390Y26021382D01*
X89867629Y26031578D01*
X89885102Y26040138D01*
X89903732Y26047514D01*
X89939064Y26073186D01*
X89948837Y26079604D01*
X89953290Y26082237D01*
X90016402Y26099500D01*
X90094648Y26099500D01*
X90218083Y26125738D01*
X90279803Y26138856D01*
X90452730Y26215849D01*
X90605871Y26327112D01*
X90732533Y26467784D01*
X90827179Y26631716D01*
X90885674Y26811744D01*
X90905460Y27000000D01*
X90885674Y27188256D01*
X90846340Y27309313D01*
X90827179Y27368285D01*
X90732533Y27532217D01*
X90605870Y27672890D01*
X90452730Y27784152D01*
X90279802Y27861145D01*
X90094648Y27900500D01*
X90094646Y27900500D01*
X89905354Y27900500D01*
X89905352Y27900500D01*
X89720197Y27861145D01*
X89547269Y27784152D01*
X89394129Y27672890D01*
X89267465Y27532215D01*
X89172821Y27368285D01*
X89154266Y27311180D01*
X89128485Y27266527D01*
X89086771Y27236220D01*
X89036336Y27225500D01*
X61058750Y27225500D01*
X61001275Y27239624D01*
X60956894Y27278780D01*
X60935717Y27334046D01*
X60942568Y27392833D01*
X60968597Y27462623D01*
X60975000Y27522176D01*
X60975000Y28217824D01*
X60968597Y28277376D01*
X60918351Y28412092D01*
X60904740Y28430274D01*
X60882840Y28478228D01*
X60882841Y28530945D01*
X60904741Y28578895D01*
X60918796Y28597669D01*
X60969091Y28732517D01*
X60975500Y28792127D01*
X60975499Y29487872D01*
X60969091Y29547483D01*
X60918796Y29682331D01*
X60905052Y29700691D01*
X60883152Y29748645D01*
X60883154Y29801363D01*
X60905052Y29849311D01*
X60918796Y29867669D01*
X60969091Y30002517D01*
X60975500Y30062127D01*
X60975499Y30757872D01*
X60969091Y30817483D01*
X60918796Y30952331D01*
X60905053Y30970689D01*
X60883153Y31018641D01*
X60883153Y31071359D01*
X60905053Y31119312D01*
X60918796Y31137669D01*
X60969091Y31272517D01*
X60975500Y31332127D01*
X60975499Y32027872D01*
X60969091Y32087483D01*
X60918796Y32222331D01*
X60905053Y32240689D01*
X60883153Y32288641D01*
X60883153Y32341359D01*
X60905053Y32389312D01*
X60918796Y32407669D01*
X60969091Y32542517D01*
X60975500Y32602127D01*
X60975499Y32900502D01*
X60992112Y32962500D01*
X61037499Y33007887D01*
X61099499Y33024500D01*
X105950500Y33024500D01*
X106012500Y33007887D01*
X106057887Y32962500D01*
X106074500Y32900501D01*
X106074500Y32752130D01*
X106081367Y32688253D01*
X106081367Y32661747D01*
X106078458Y32634689D01*
X106074628Y32599058D01*
X106074500Y32597871D01*
X106074500Y32102130D01*
X106081367Y32038255D01*
X106081367Y32011748D01*
X106074500Y31947871D01*
X106074500Y31452132D01*
X106077798Y31421449D01*
X106080909Y31392517D01*
X106080909Y31392515D01*
X106081620Y31385909D01*
X106081620Y31359400D01*
X106075000Y31297823D01*
X106075000Y30802174D01*
X106081619Y30740600D01*
X106081619Y30714093D01*
X106074500Y30647871D01*
X106074500Y30152130D01*
X106081367Y30088255D01*
X106081367Y30061748D01*
X106074500Y29997871D01*
X106074500Y29502130D01*
X106081367Y29438255D01*
X106081367Y29411748D01*
X106074500Y29347871D01*
X106074500Y28852131D01*
X106080909Y28792516D01*
X106103288Y28732516D01*
X106131204Y28657669D01*
X106217454Y28542454D01*
X106332669Y28456204D01*
X106467517Y28405909D01*
X106527127Y28399500D01*
X108072872Y28399501D01*
X108132483Y28405909D01*
X108267331Y28456204D01*
X108382546Y28542454D01*
X108468796Y28657669D01*
X108519091Y28792517D01*
X108525500Y28852127D01*
X108525500Y28852131D01*
X111674500Y28852131D01*
X111680909Y28792516D01*
X111703288Y28732516D01*
X111731204Y28657669D01*
X111817454Y28542454D01*
X111932669Y28456204D01*
X112067517Y28405909D01*
X112127127Y28399500D01*
X112664547Y28399501D01*
X112712000Y28390062D01*
X112752228Y28363182D01*
X134824196Y6291213D01*
X134837096Y6275112D01*
X134888223Y6227100D01*
X134891019Y6224390D01*
X134910529Y6204880D01*
X134913711Y6202412D01*
X134922571Y6194845D01*
X134954417Y6164939D01*
X134954418Y6164938D01*
X134971970Y6155289D01*
X134988238Y6144603D01*
X135004064Y6132327D01*
X135044146Y6114983D01*
X135054633Y6109845D01*
X135092907Y6088803D01*
X135101410Y6086621D01*
X135112308Y6083822D01*
X135130713Y6077522D01*
X135149104Y6069563D01*
X135192250Y6062730D01*
X135203668Y6060365D01*
X135245981Y6049500D01*
X135266016Y6049500D01*
X135285415Y6047973D01*
X135305196Y6044840D01*
X135348674Y6048950D01*
X135360344Y6049500D01*
X157592256Y6049500D01*
X157612762Y6047236D01*
X157615665Y6047328D01*
X157615667Y6047327D01*
X157682872Y6049439D01*
X157686768Y6049500D01*
X157714349Y6049500D01*
X157714350Y6049500D01*
X157718319Y6050002D01*
X157729965Y6050920D01*
X157773627Y6052291D01*
X157792859Y6057880D01*
X157811918Y6061826D01*
X157819099Y6062733D01*
X157831792Y6064336D01*
X157872407Y6080418D01*
X157883444Y6084197D01*
X157925390Y6096382D01*
X157942629Y6106578D01*
X157960102Y6115138D01*
X157978732Y6122514D01*
X158014064Y6148186D01*
X158023830Y6154600D01*
X158061418Y6176829D01*
X158061417Y6176829D01*
X158061420Y6176830D01*
X158075585Y6190996D01*
X158090373Y6203627D01*
X158106587Y6215406D01*
X158134438Y6249074D01*
X158142279Y6257691D01*
X158347771Y6463182D01*
X158387999Y6490062D01*
X158435452Y6499501D01*
X159650009Y6499501D01*
X159701402Y6504752D01*
X159752797Y6510001D01*
X159919334Y6565186D01*
X160068656Y6657288D01*
X160192712Y6781344D01*
X160284814Y6930666D01*
X160284814Y6930669D01*
X160288448Y6936559D01*
X160327361Y6976043D01*
X160379591Y6994624D01*
X160434698Y6988589D01*
X160481668Y6959144D01*
X160628918Y6811894D01*
X160822423Y6676400D01*
X161036507Y6576570D01*
X161249999Y6519365D01*
X161250000Y6519364D01*
X161250000Y7750000D01*
X161750000Y7750000D01*
X161750000Y6519365D01*
X161963492Y6576570D01*
X162177578Y6676401D01*
X162371078Y6811891D01*
X162538109Y6978922D01*
X162673599Y7172422D01*
X162773430Y7386508D01*
X162834569Y7614682D01*
X162846407Y7750000D01*
X161750000Y7750000D01*
X161250000Y7750000D01*
X161250000Y8126000D01*
X161266613Y8188000D01*
X161312000Y8233387D01*
X161374000Y8250000D01*
X162846407Y8250000D01*
X162846407Y8250001D01*
X162834569Y8385319D01*
X162792210Y8543406D01*
X162790368Y8599691D01*
X162813609Y8650986D01*
X162857141Y8686712D01*
X162911985Y8699500D01*
X171864548Y8699500D01*
X171912001Y8690061D01*
X171952229Y8663181D01*
X172113181Y8502229D01*
X172140061Y8462001D01*
X172149500Y8414548D01*
X172149500Y7199992D01*
X172160000Y7097204D01*
X172215186Y6930666D01*
X172307288Y6781343D01*
X172431342Y6657289D01*
X172431344Y6657288D01*
X172580666Y6565186D01*
X172684750Y6530696D01*
X172747202Y6510001D01*
X172757702Y6508929D01*
X172849991Y6499500D01*
X174150008Y6499501D01*
X174252797Y6510001D01*
X174419334Y6565186D01*
X174568656Y6657288D01*
X174692712Y6781344D01*
X174784814Y6930666D01*
X174784814Y6930669D01*
X174788448Y6936559D01*
X174827361Y6976043D01*
X174879591Y6994624D01*
X174934698Y6988589D01*
X174981668Y6959144D01*
X175128918Y6811894D01*
X175322423Y6676400D01*
X175536507Y6576570D01*
X175749999Y6519365D01*
X175750000Y6519364D01*
X175750000Y7750000D01*
X176250000Y7750000D01*
X176250000Y6519365D01*
X176463492Y6576570D01*
X176677578Y6676401D01*
X176871078Y6811891D01*
X176991423Y6932236D01*
X189145787Y6932236D01*
X189175413Y6662984D01*
X189198005Y6576570D01*
X189243928Y6400912D01*
X189349870Y6151610D01*
X189349871Y6151608D01*
X189490982Y5920389D01*
X189580253Y5813119D01*
X189664255Y5712180D01*
X189865998Y5531418D01*
X190091910Y5381956D01*
X190198211Y5332124D01*
X190337177Y5266979D01*
X190596562Y5188942D01*
X190596569Y5188940D01*
X190864561Y5149500D01*
X191067631Y5149500D01*
X191067634Y5149500D01*
X191270156Y5164323D01*
X191270156Y5164324D01*
X191534553Y5223220D01*
X191787558Y5319986D01*
X192023777Y5452559D01*
X192238177Y5618112D01*
X192426186Y5813119D01*
X192583799Y6033421D01*
X192707656Y6274325D01*
X192795118Y6530695D01*
X192844319Y6797067D01*
X192854212Y7067765D01*
X192824586Y7337018D01*
X192756072Y7599088D01*
X192650130Y7848390D01*
X192509018Y8079610D01*
X192509017Y8079612D01*
X192335746Y8287819D01*
X192230758Y8381888D01*
X192134002Y8468582D01*
X191908090Y8618044D01*
X191872050Y8634939D01*
X191662822Y8733022D01*
X191403437Y8811059D01*
X191403431Y8811060D01*
X191135439Y8850500D01*
X190932369Y8850500D01*
X190932366Y8850500D01*
X190729843Y8835678D01*
X190465449Y8776781D01*
X190212441Y8680014D01*
X189976223Y8547441D01*
X189761825Y8381891D01*
X189573813Y8186880D01*
X189416201Y7966580D01*
X189292342Y7725671D01*
X189204881Y7469305D01*
X189155680Y7202934D01*
X189145787Y6932236D01*
X176991423Y6932236D01*
X177038109Y6978922D01*
X177173599Y7172422D01*
X177273430Y7386508D01*
X177334569Y7614682D01*
X177346407Y7750000D01*
X176250000Y7750000D01*
X175750000Y7750000D01*
X175750000Y9480636D01*
X176250000Y9480636D01*
X176250000Y8250000D01*
X177346407Y8250000D01*
X177346407Y8250001D01*
X177334569Y8385319D01*
X177273430Y8613493D01*
X177173599Y8827579D01*
X177038109Y9021079D01*
X176871081Y9188107D01*
X176677576Y9323601D01*
X176463492Y9423431D01*
X176250000Y9480636D01*
X175750000Y9480636D01*
X175749999Y9480636D01*
X175536507Y9423431D01*
X175322421Y9323600D01*
X175128924Y9188112D01*
X174981668Y9040856D01*
X174934698Y9011411D01*
X174879591Y9005377D01*
X174827361Y9023958D01*
X174788448Y9063442D01*
X174692711Y9218658D01*
X174568657Y9342712D01*
X174419334Y9434814D01*
X174252797Y9490000D01*
X174150009Y9500500D01*
X172935453Y9500500D01*
X172888000Y9509939D01*
X172847772Y9536819D01*
X172675802Y9708789D01*
X172662906Y9724887D01*
X172611775Y9772902D01*
X172608978Y9775613D01*
X172589470Y9795121D01*
X172586290Y9797588D01*
X172577424Y9805161D01*
X172545582Y9835062D01*
X172528024Y9844715D01*
X172511764Y9855396D01*
X172495936Y9867673D01*
X172455851Y9885020D01*
X172445361Y9890159D01*
X172407091Y9911198D01*
X172387691Y9916179D01*
X172369284Y9922481D01*
X172350897Y9930438D01*
X172307758Y9937271D01*
X172296324Y9939639D01*
X172254019Y9950500D01*
X172233984Y9950500D01*
X172214586Y9952027D01*
X172207162Y9953203D01*
X172194805Y9955160D01*
X172194804Y9955160D01*
X172169468Y9952765D01*
X172151325Y9951050D01*
X172139656Y9950500D01*
X160407744Y9950500D01*
X160387237Y9952765D01*
X160317127Y9950561D01*
X160313232Y9950500D01*
X160285650Y9950500D01*
X160281665Y9949997D01*
X160270033Y9949082D01*
X160226369Y9947710D01*
X160207129Y9942120D01*
X160188081Y9938175D01*
X160168209Y9935665D01*
X160127599Y9919587D01*
X160116554Y9915806D01*
X160074610Y9903619D01*
X160057365Y9893421D01*
X160039904Y9884867D01*
X160021267Y9877488D01*
X159985931Y9851815D01*
X159976174Y9845405D01*
X159938580Y9823171D01*
X159924413Y9809004D01*
X159909624Y9796374D01*
X159893413Y9784596D01*
X159865572Y9750942D01*
X159857711Y9742303D01*
X159652227Y9536819D01*
X159611999Y9509939D01*
X159564546Y9500500D01*
X158349991Y9500500D01*
X158247203Y9490000D01*
X158080665Y9434814D01*
X157931342Y9342712D01*
X157807288Y9218658D01*
X157715186Y9069335D01*
X157660000Y8902798D01*
X157649500Y8800009D01*
X157649500Y7585454D01*
X157640061Y7538001D01*
X157613183Y7497776D01*
X157452225Y7336817D01*
X157412000Y7309939D01*
X157364547Y7300500D01*
X147411985Y7300500D01*
X147357141Y7313288D01*
X147313609Y7349014D01*
X147290368Y7400309D01*
X147292210Y7456594D01*
X147334569Y7614682D01*
X147346407Y7750000D01*
X145874000Y7750000D01*
X145812000Y7766613D01*
X145766613Y7812000D01*
X145750000Y7874000D01*
X145750000Y9480636D01*
X146250000Y9480636D01*
X146250000Y8250000D01*
X147346407Y8250000D01*
X147346407Y8250001D01*
X147334569Y8385319D01*
X147273430Y8613493D01*
X147173599Y8827579D01*
X147038109Y9021079D01*
X146871081Y9188107D01*
X146677576Y9323601D01*
X146463492Y9423431D01*
X146250000Y9480636D01*
X145750000Y9480636D01*
X145749999Y9480636D01*
X145536507Y9423431D01*
X145322421Y9323600D01*
X145128924Y9188112D01*
X144981668Y9040856D01*
X144934698Y9011411D01*
X144879591Y9005377D01*
X144827361Y9023958D01*
X144788448Y9063442D01*
X144692711Y9218658D01*
X144568657Y9342712D01*
X144419334Y9434814D01*
X144252797Y9490000D01*
X144150009Y9500500D01*
X142849991Y9500500D01*
X142747203Y9490000D01*
X142580665Y9434814D01*
X142431342Y9342712D01*
X142307288Y9218658D01*
X142215186Y9069335D01*
X142160000Y8902798D01*
X142149500Y8800009D01*
X142149500Y8749500D01*
X142132887Y8687500D01*
X142087500Y8642113D01*
X142025500Y8625500D01*
X135935452Y8625500D01*
X135887999Y8634939D01*
X135847771Y8661819D01*
X129509589Y15000001D01*
X140714357Y15000001D01*
X140734885Y14778463D01*
X140795769Y14564474D01*
X140894941Y14365312D01*
X141029019Y14187763D01*
X141193437Y14037876D01*
X141382595Y13920755D01*
X141382597Y13920755D01*
X141382599Y13920753D01*
X141590060Y13840382D01*
X141808757Y13799500D01*
X142031241Y13799500D01*
X142031243Y13799500D01*
X142249940Y13840382D01*
X142457401Y13920753D01*
X142646562Y14037876D01*
X142810981Y14187764D01*
X142945058Y14365311D01*
X143044229Y14564472D01*
X143105115Y14778464D01*
X143125643Y15000000D01*
X143125643Y15000001D01*
X145794357Y15000001D01*
X145814885Y14778463D01*
X145875769Y14564474D01*
X145974941Y14365312D01*
X146109019Y14187763D01*
X146273437Y14037876D01*
X146462595Y13920755D01*
X146462597Y13920755D01*
X146462599Y13920753D01*
X146670060Y13840382D01*
X146888757Y13799500D01*
X147111241Y13799500D01*
X147111243Y13799500D01*
X147329940Y13840382D01*
X147537401Y13920753D01*
X147726562Y14037876D01*
X147890981Y14187764D01*
X148025058Y14365311D01*
X148124229Y14564472D01*
X148185115Y14778464D01*
X148205643Y15000000D01*
X148205643Y15000001D01*
X156714357Y15000001D01*
X156734885Y14778463D01*
X156795769Y14564474D01*
X156894941Y14365312D01*
X157029019Y14187763D01*
X157193437Y14037876D01*
X157382595Y13920755D01*
X157382597Y13920755D01*
X157382599Y13920753D01*
X157590060Y13840382D01*
X157808757Y13799500D01*
X158031241Y13799500D01*
X158031243Y13799500D01*
X158249940Y13840382D01*
X158457401Y13920753D01*
X158646562Y14037876D01*
X158810981Y14187764D01*
X158945058Y14365311D01*
X159044229Y14564472D01*
X159105115Y14778464D01*
X159125643Y15000000D01*
X159125643Y15000001D01*
X161794357Y15000001D01*
X161814885Y14778463D01*
X161875769Y14564474D01*
X161974941Y14365312D01*
X162109019Y14187763D01*
X162273437Y14037876D01*
X162462595Y13920755D01*
X162462597Y13920755D01*
X162462599Y13920753D01*
X162670060Y13840382D01*
X162888757Y13799500D01*
X163111241Y13799500D01*
X163111243Y13799500D01*
X163329940Y13840382D01*
X163537401Y13920753D01*
X163726562Y14037876D01*
X163890981Y14187764D01*
X164025058Y14365311D01*
X164124229Y14564472D01*
X164185115Y14778464D01*
X164205643Y15000000D01*
X164185115Y15221536D01*
X164161234Y15305469D01*
X164124230Y15435527D01*
X164025058Y15634689D01*
X163890980Y15812238D01*
X163726562Y15962125D01*
X163537404Y16079246D01*
X163476174Y16102967D01*
X163329940Y16159618D01*
X163111243Y16200500D01*
X162888757Y16200500D01*
X162670060Y16159619D01*
X162670060Y16159618D01*
X162462595Y16079246D01*
X162273437Y15962125D01*
X162109019Y15812238D01*
X161974941Y15634689D01*
X161875769Y15435527D01*
X161814885Y15221538D01*
X161794357Y15000001D01*
X159125643Y15000001D01*
X159105115Y15221536D01*
X159081234Y15305469D01*
X159044230Y15435527D01*
X158945058Y15634689D01*
X158810980Y15812238D01*
X158646562Y15962125D01*
X158457404Y16079246D01*
X158396174Y16102967D01*
X158249940Y16159618D01*
X158031243Y16200500D01*
X157808757Y16200500D01*
X157590060Y16159619D01*
X157590060Y16159618D01*
X157382595Y16079246D01*
X157193437Y15962125D01*
X157029019Y15812238D01*
X156894941Y15634689D01*
X156795769Y15435527D01*
X156734885Y15221538D01*
X156714357Y15000001D01*
X148205643Y15000001D01*
X148185115Y15221536D01*
X148161234Y15305469D01*
X148124230Y15435527D01*
X148025058Y15634689D01*
X147890980Y15812238D01*
X147726562Y15962125D01*
X147537404Y16079246D01*
X147476174Y16102967D01*
X147329940Y16159618D01*
X147111243Y16200500D01*
X146888757Y16200500D01*
X146670060Y16159619D01*
X146670060Y16159618D01*
X146462595Y16079246D01*
X146273437Y15962125D01*
X146109019Y15812238D01*
X145974941Y15634689D01*
X145875769Y15435527D01*
X145814885Y15221538D01*
X145794357Y15000001D01*
X143125643Y15000001D01*
X143105115Y15221536D01*
X143081234Y15305469D01*
X143044230Y15435527D01*
X142945058Y15634689D01*
X142810980Y15812238D01*
X142646562Y15962125D01*
X142457404Y16079246D01*
X142396174Y16102967D01*
X142249940Y16159618D01*
X142031243Y16200500D01*
X141808757Y16200500D01*
X141590060Y16159619D01*
X141590060Y16159618D01*
X141382595Y16079246D01*
X141193437Y15962125D01*
X141029019Y15812238D01*
X140894941Y15634689D01*
X140795769Y15435527D01*
X140734885Y15221538D01*
X140714357Y15000001D01*
X129509589Y15000001D01*
X123121772Y21387819D01*
X123091522Y21437182D01*
X123086980Y21494898D01*
X123109135Y21548385D01*
X123153158Y21585985D01*
X123209453Y21599500D01*
X171642256Y21599500D01*
X171662762Y21597236D01*
X171665665Y21597328D01*
X171665667Y21597327D01*
X171732872Y21599439D01*
X171736768Y21599500D01*
X171764349Y21599500D01*
X171764350Y21599500D01*
X171768319Y21600002D01*
X171779965Y21600920D01*
X171823627Y21602291D01*
X171842859Y21607880D01*
X171861918Y21611826D01*
X171868196Y21612619D01*
X171881792Y21614336D01*
X171922407Y21630418D01*
X171933444Y21634197D01*
X171975390Y21646382D01*
X171992629Y21656578D01*
X172010102Y21665138D01*
X172028732Y21672514D01*
X172064064Y21698186D01*
X172073830Y21704600D01*
X172111418Y21726829D01*
X172111417Y21726829D01*
X172111420Y21726830D01*
X172125585Y21740996D01*
X172140373Y21753627D01*
X172156587Y21765406D01*
X172184438Y21799074D01*
X172192279Y21807691D01*
X172847771Y22463182D01*
X172887999Y22490062D01*
X172935452Y22499501D01*
X174150009Y22499501D01*
X174201402Y22504752D01*
X174252797Y22510001D01*
X174419334Y22565186D01*
X174568656Y22657288D01*
X174692712Y22781344D01*
X174784814Y22930666D01*
X174784814Y22930669D01*
X174788448Y22936559D01*
X174827361Y22976043D01*
X174879591Y22994624D01*
X174934698Y22988589D01*
X174981668Y22959144D01*
X175128918Y22811894D01*
X175322423Y22676400D01*
X175536507Y22576570D01*
X175749999Y22519365D01*
X175750000Y22519364D01*
X175750000Y23750000D01*
X176250000Y23750000D01*
X176250000Y22519365D01*
X176463492Y22576570D01*
X176677578Y22676401D01*
X176871078Y22811891D01*
X177038109Y22978922D01*
X177173599Y23172422D01*
X177273430Y23386508D01*
X177334569Y23614682D01*
X177346407Y23750000D01*
X176250000Y23750000D01*
X175750000Y23750000D01*
X175750000Y25480636D01*
X176250000Y25480636D01*
X176250000Y24250000D01*
X177346407Y24250000D01*
X177346407Y24250001D01*
X177334569Y24385319D01*
X177273430Y24613493D01*
X177173599Y24827579D01*
X177038109Y25021079D01*
X176871081Y25188107D01*
X176677576Y25323601D01*
X176463492Y25423431D01*
X176250000Y25480636D01*
X175750000Y25480636D01*
X175749999Y25480636D01*
X175536507Y25423431D01*
X175322421Y25323600D01*
X175128924Y25188112D01*
X174981668Y25040856D01*
X174934698Y25011411D01*
X174879591Y25005377D01*
X174827361Y25023958D01*
X174788448Y25063442D01*
X174692711Y25218658D01*
X174568657Y25342712D01*
X174419334Y25434814D01*
X174252797Y25490000D01*
X174150009Y25500500D01*
X172849991Y25500500D01*
X172747203Y25490000D01*
X172580665Y25434814D01*
X172431342Y25342712D01*
X172307288Y25218658D01*
X172215186Y25069335D01*
X172160000Y24902798D01*
X172149500Y24800009D01*
X172149500Y23585454D01*
X172140061Y23538001D01*
X172113181Y23497773D01*
X171502228Y22886819D01*
X171462000Y22859939D01*
X171414547Y22850500D01*
X163186389Y22850500D01*
X163122061Y22868491D01*
X163076400Y22917243D01*
X163062655Y22982610D01*
X163084814Y23045624D01*
X163173600Y23172425D01*
X163273430Y23386508D01*
X163334569Y23614682D01*
X163346407Y23750000D01*
X161874000Y23750000D01*
X161812000Y23766613D01*
X161766613Y23812000D01*
X161750000Y23874000D01*
X161750000Y25480636D01*
X162250000Y25480636D01*
X162250000Y24250000D01*
X163346407Y24250000D01*
X163346407Y24250001D01*
X163334569Y24385319D01*
X163273430Y24613493D01*
X163173599Y24827579D01*
X163038109Y25021079D01*
X162871081Y25188107D01*
X162677576Y25323601D01*
X162463492Y25423431D01*
X162250000Y25480636D01*
X161750000Y25480636D01*
X161749999Y25480636D01*
X161536507Y25423431D01*
X161322421Y25323600D01*
X161128924Y25188112D01*
X160981668Y25040856D01*
X160934698Y25011411D01*
X160879591Y25005377D01*
X160827361Y25023958D01*
X160788448Y25063442D01*
X160692711Y25218658D01*
X160568657Y25342712D01*
X160419334Y25434814D01*
X160252797Y25490000D01*
X160150009Y25500500D01*
X158849991Y25500500D01*
X158747203Y25490000D01*
X158580665Y25434814D01*
X158431342Y25342712D01*
X158307288Y25218658D01*
X158215186Y25069335D01*
X158160000Y24902798D01*
X158149500Y24800009D01*
X158149500Y23585454D01*
X158140061Y23538001D01*
X158113183Y23497776D01*
X157952225Y23336817D01*
X157912000Y23309939D01*
X157864547Y23300500D01*
X147411985Y23300500D01*
X147357141Y23313288D01*
X147313609Y23349014D01*
X147290368Y23400309D01*
X147292210Y23456594D01*
X147334569Y23614682D01*
X147346407Y23750000D01*
X145874000Y23750000D01*
X145812000Y23766613D01*
X145766613Y23812000D01*
X145750000Y23874000D01*
X145750000Y25480636D01*
X146250000Y25480636D01*
X146250000Y24250000D01*
X147346407Y24250000D01*
X147346407Y24250001D01*
X147334569Y24385319D01*
X147273430Y24613493D01*
X147173599Y24827579D01*
X147038109Y25021079D01*
X146871081Y25188107D01*
X146677576Y25323601D01*
X146463492Y25423431D01*
X146250000Y25480636D01*
X145750000Y25480636D01*
X145749999Y25480636D01*
X145536507Y25423431D01*
X145322421Y25323600D01*
X145128924Y25188112D01*
X144981668Y25040856D01*
X144934698Y25011411D01*
X144879591Y25005377D01*
X144827361Y25023958D01*
X144788448Y25063442D01*
X144692711Y25218658D01*
X144568657Y25342712D01*
X144419334Y25434814D01*
X144252797Y25490000D01*
X144150009Y25500500D01*
X142849991Y25500500D01*
X142747203Y25490000D01*
X142580665Y25434814D01*
X142431342Y25342712D01*
X142307288Y25218658D01*
X142215186Y25069335D01*
X142160000Y24902798D01*
X142149500Y24800009D01*
X142149500Y24749500D01*
X142132887Y24687500D01*
X142087500Y24642113D01*
X142025500Y24625500D01*
X121885453Y24625500D01*
X121838000Y24634939D01*
X121797772Y24661819D01*
X117296772Y29162819D01*
X117266522Y29212182D01*
X117261980Y29269898D01*
X117284135Y29323385D01*
X117328158Y29360985D01*
X117384453Y29374500D01*
X162917256Y29374500D01*
X162937762Y29372236D01*
X162940665Y29372328D01*
X162940667Y29372327D01*
X163007872Y29374439D01*
X163011768Y29374500D01*
X163039349Y29374500D01*
X163039350Y29374500D01*
X163043319Y29375002D01*
X163054965Y29375920D01*
X163098627Y29377291D01*
X163117859Y29382880D01*
X163136918Y29386826D01*
X163143196Y29387619D01*
X163156792Y29389336D01*
X163197407Y29405418D01*
X163208444Y29409197D01*
X163250390Y29421382D01*
X163267629Y29431578D01*
X163285102Y29440138D01*
X163303732Y29447514D01*
X163339064Y29473186D01*
X163348830Y29479600D01*
X163362814Y29487870D01*
X163386420Y29501830D01*
X163400585Y29515996D01*
X163415373Y29528627D01*
X163431587Y29540406D01*
X163459438Y29574074D01*
X163467279Y29582691D01*
X165884588Y32000000D01*
X171254357Y32000000D01*
X171264621Y31889232D01*
X171274885Y31778463D01*
X171335769Y31564474D01*
X171434941Y31365312D01*
X171569019Y31187763D01*
X171733437Y31037876D01*
X171922595Y30920755D01*
X171922597Y30920755D01*
X171922599Y30920753D01*
X172130060Y30840382D01*
X172348757Y30799500D01*
X172571241Y30799500D01*
X172571243Y30799500D01*
X172789940Y30840382D01*
X172997401Y30920753D01*
X173186562Y31037876D01*
X173314402Y31154418D01*
X173350980Y31187763D01*
X173350981Y31187764D01*
X173485058Y31365311D01*
X173584229Y31564472D01*
X173645115Y31778464D01*
X173665643Y32000000D01*
X176334357Y32000000D01*
X176344621Y31889232D01*
X176354885Y31778463D01*
X176415769Y31564474D01*
X176514941Y31365312D01*
X176649019Y31187763D01*
X176813437Y31037876D01*
X177002595Y30920755D01*
X177002597Y30920755D01*
X177002599Y30920753D01*
X177210060Y30840382D01*
X177428757Y30799500D01*
X177651241Y30799500D01*
X177651243Y30799500D01*
X177869940Y30840382D01*
X178077401Y30920753D01*
X178266562Y31037876D01*
X178394402Y31154418D01*
X178430980Y31187763D01*
X178430981Y31187764D01*
X178565058Y31365311D01*
X178664229Y31564472D01*
X178725115Y31778464D01*
X178745643Y32000000D01*
X178725115Y32221536D01*
X178693179Y32333780D01*
X178664230Y32435527D01*
X178565058Y32634689D01*
X178430980Y32812238D01*
X178266562Y32962125D01*
X178077404Y33079246D01*
X178016174Y33102967D01*
X177869940Y33159618D01*
X177651243Y33200500D01*
X177428757Y33200500D01*
X177210060Y33159619D01*
X177210060Y33159618D01*
X177002595Y33079246D01*
X176813437Y32962125D01*
X176649019Y32812238D01*
X176514941Y32634689D01*
X176415769Y32435527D01*
X176354885Y32221538D01*
X176335050Y32007483D01*
X176334357Y32000000D01*
X173665643Y32000000D01*
X173645115Y32221536D01*
X173613179Y32333780D01*
X173584230Y32435527D01*
X173485058Y32634689D01*
X173350980Y32812238D01*
X173186562Y32962125D01*
X172997404Y33079246D01*
X172936174Y33102967D01*
X172789940Y33159618D01*
X172571243Y33200500D01*
X172348757Y33200500D01*
X172130060Y33159619D01*
X172130060Y33159618D01*
X171922595Y33079246D01*
X171733437Y32962125D01*
X171569019Y32812238D01*
X171434941Y32634689D01*
X171335769Y32435527D01*
X171274885Y32221538D01*
X171255050Y32007483D01*
X171254357Y32000000D01*
X165884588Y32000000D01*
X173347771Y39463182D01*
X173388000Y39490062D01*
X173435453Y39499501D01*
X174150009Y39499501D01*
X174201402Y39504751D01*
X174252797Y39510001D01*
X174419334Y39565186D01*
X174568656Y39657288D01*
X174692712Y39781344D01*
X174784814Y39930666D01*
X174784814Y39930669D01*
X174788448Y39936559D01*
X174827361Y39976043D01*
X174879591Y39994624D01*
X174934698Y39988589D01*
X174981668Y39959144D01*
X175128918Y39811894D01*
X175322423Y39676400D01*
X175536507Y39576570D01*
X175749999Y39519365D01*
X175750000Y39519364D01*
X175750000Y40750000D01*
X176250000Y40750000D01*
X176250000Y39519365D01*
X176463492Y39576570D01*
X176677578Y39676401D01*
X176871078Y39811891D01*
X177038109Y39978922D01*
X177173599Y40172422D01*
X177273430Y40386508D01*
X177334569Y40614682D01*
X177346407Y40750000D01*
X176250000Y40750000D01*
X175750000Y40750000D01*
X175750000Y42480636D01*
X176250000Y42480636D01*
X176250000Y41250000D01*
X177346407Y41250000D01*
X177346407Y41250001D01*
X177334569Y41385319D01*
X177273430Y41613493D01*
X177173599Y41827579D01*
X177038109Y42021079D01*
X176871081Y42188107D01*
X176677576Y42323601D01*
X176463492Y42423431D01*
X176250000Y42480636D01*
X175750000Y42480636D01*
X175749999Y42480636D01*
X175536507Y42423431D01*
X175322421Y42323600D01*
X175128924Y42188112D01*
X174981668Y42040856D01*
X174934698Y42011411D01*
X174879591Y42005377D01*
X174827361Y42023958D01*
X174788448Y42063442D01*
X174692711Y42218658D01*
X174568657Y42342712D01*
X174419334Y42434814D01*
X174252797Y42490000D01*
X174150009Y42500500D01*
X172849991Y42500500D01*
X172747203Y42490000D01*
X172580665Y42434814D01*
X172431342Y42342712D01*
X172307288Y42218658D01*
X172215186Y42069335D01*
X172160000Y41902798D01*
X172149500Y41800010D01*
X172149500Y40199992D01*
X172158889Y40108087D01*
X172152358Y40053923D01*
X172123212Y40007805D01*
X164745432Y32630025D01*
X164684279Y32596577D01*
X164614743Y32601403D01*
X164558797Y32642980D01*
X164430982Y32812236D01*
X164266562Y32962125D01*
X164077404Y33079246D01*
X164016174Y33102967D01*
X163869940Y33159618D01*
X163651243Y33200500D01*
X163428757Y33200500D01*
X163210060Y33159619D01*
X163210060Y33159618D01*
X163002595Y33079246D01*
X162813437Y32962125D01*
X162649019Y32812238D01*
X162514941Y32634689D01*
X162415769Y32435527D01*
X162354885Y32221538D01*
X162335050Y32007483D01*
X162334357Y32000000D01*
X162344621Y31889232D01*
X162354885Y31778463D01*
X162415769Y31564474D01*
X162514941Y31365312D01*
X162649019Y31187763D01*
X162773463Y31074318D01*
X162813438Y31037876D01*
X162835534Y31024195D01*
X162890226Y30990331D01*
X162929615Y30951395D01*
X162948123Y30899195D01*
X162942058Y30844143D01*
X162912631Y30797223D01*
X162777225Y30661817D01*
X162737000Y30634939D01*
X162689547Y30625500D01*
X158898607Y30625500D01*
X158833329Y30644073D01*
X158787607Y30694228D01*
X158775136Y30760941D01*
X158799653Y30824227D01*
X158853811Y30865127D01*
X158997401Y30920753D01*
X159186562Y31037876D01*
X159314402Y31154418D01*
X159350980Y31187763D01*
X159350981Y31187764D01*
X159485058Y31365311D01*
X159584229Y31564472D01*
X159645115Y31778464D01*
X159665643Y32000000D01*
X159645115Y32221536D01*
X159613179Y32333780D01*
X159584230Y32435527D01*
X159485058Y32634689D01*
X159350980Y32812238D01*
X159186562Y32962125D01*
X158997404Y33079246D01*
X158936174Y33102967D01*
X158789940Y33159618D01*
X158571243Y33200500D01*
X158348757Y33200500D01*
X158130060Y33159619D01*
X158130060Y33159618D01*
X157922595Y33079246D01*
X157733437Y32962125D01*
X157569019Y32812238D01*
X157434941Y32634689D01*
X157335769Y32435527D01*
X157274885Y32221538D01*
X157255050Y32007483D01*
X157254357Y32000000D01*
X157264621Y31889232D01*
X157274885Y31778463D01*
X157335769Y31564474D01*
X157434941Y31365312D01*
X157569019Y31187763D01*
X157733437Y31037876D01*
X157873110Y30951395D01*
X157922599Y30920753D01*
X158066188Y30865127D01*
X158120347Y30824227D01*
X158144864Y30760941D01*
X158132393Y30694228D01*
X158086671Y30644073D01*
X158021393Y30625500D01*
X147978607Y30625500D01*
X147913329Y30644073D01*
X147867607Y30694228D01*
X147855136Y30760941D01*
X147879653Y30824227D01*
X147933811Y30865127D01*
X148077401Y30920753D01*
X148266562Y31037876D01*
X148394402Y31154418D01*
X148430980Y31187763D01*
X148430981Y31187764D01*
X148565058Y31365311D01*
X148664229Y31564472D01*
X148725115Y31778464D01*
X148745643Y32000000D01*
X148725115Y32221536D01*
X148719415Y32241567D01*
X148716793Y32298284D01*
X148739727Y32350226D01*
X148783410Y32386500D01*
X148838682Y32399500D01*
X151442256Y32399500D01*
X151462762Y32397236D01*
X151465665Y32397328D01*
X151465667Y32397327D01*
X151532872Y32399439D01*
X151536768Y32399500D01*
X151564349Y32399500D01*
X151564350Y32399500D01*
X151568319Y32400002D01*
X151579965Y32400920D01*
X151623627Y32402291D01*
X151642859Y32407880D01*
X151661918Y32411826D01*
X151668196Y32412619D01*
X151681792Y32414336D01*
X151722407Y32430418D01*
X151733444Y32434197D01*
X151775390Y32446382D01*
X151792629Y32456578D01*
X151810102Y32465138D01*
X151828732Y32472514D01*
X151864064Y32498186D01*
X151873830Y32504600D01*
X151911418Y32526829D01*
X151911417Y32526829D01*
X151911420Y32526830D01*
X151925585Y32540996D01*
X151940373Y32553627D01*
X151956587Y32565406D01*
X151984438Y32599074D01*
X151992279Y32607691D01*
X158847771Y39463183D01*
X158887999Y39490062D01*
X158935452Y39499501D01*
X160150009Y39499501D01*
X160201402Y39504751D01*
X160252797Y39510001D01*
X160419334Y39565186D01*
X160568656Y39657288D01*
X160692712Y39781344D01*
X160784814Y39930666D01*
X160784814Y39930669D01*
X160788448Y39936559D01*
X160827361Y39976043D01*
X160879591Y39994624D01*
X160934698Y39988589D01*
X160981668Y39959144D01*
X161128918Y39811894D01*
X161322423Y39676400D01*
X161536507Y39576570D01*
X161749999Y39519365D01*
X161750000Y39519364D01*
X161750000Y40750000D01*
X162250000Y40750000D01*
X162250000Y39519365D01*
X162463492Y39576570D01*
X162677578Y39676401D01*
X162871078Y39811891D01*
X163038109Y39978922D01*
X163173599Y40172422D01*
X163273430Y40386508D01*
X163334569Y40614682D01*
X163346407Y40750000D01*
X162250000Y40750000D01*
X161750000Y40750000D01*
X161750000Y42480636D01*
X162250000Y42480636D01*
X162250000Y41250000D01*
X163346407Y41250000D01*
X163346407Y41250001D01*
X163334569Y41385319D01*
X163273430Y41613493D01*
X163173599Y41827579D01*
X163038109Y42021079D01*
X162871081Y42188107D01*
X162677576Y42323601D01*
X162463492Y42423431D01*
X162250000Y42480636D01*
X161750000Y42480636D01*
X161749999Y42480636D01*
X161536507Y42423431D01*
X161322421Y42323600D01*
X161128924Y42188112D01*
X160981668Y42040856D01*
X160934698Y42011411D01*
X160879591Y42005377D01*
X160827361Y42023958D01*
X160788448Y42063442D01*
X160692711Y42218658D01*
X160568657Y42342712D01*
X160419334Y42434814D01*
X160252797Y42490000D01*
X160150009Y42500500D01*
X158849991Y42500500D01*
X158747203Y42490000D01*
X158580665Y42434814D01*
X158431342Y42342712D01*
X158307288Y42218658D01*
X158215186Y42069335D01*
X158160000Y41902798D01*
X158149500Y41800009D01*
X158149500Y40585454D01*
X158140061Y40538001D01*
X158113181Y40497773D01*
X151302228Y33686819D01*
X151262000Y33659939D01*
X151214547Y33650500D01*
X114249499Y33650500D01*
X114187499Y33667113D01*
X114142112Y33712500D01*
X114125499Y33774500D01*
X114125499Y33897869D01*
X114125216Y33900500D01*
X114119091Y33957483D01*
X114119090Y33957485D01*
X114118632Y33961748D01*
X114118633Y33988258D01*
X114119091Y33992517D01*
X114125500Y34052127D01*
X114125499Y34547872D01*
X114119091Y34607483D01*
X114119090Y34607485D01*
X114118632Y34611750D01*
X114118633Y34638260D01*
X114119091Y34642517D01*
X114125500Y34702127D01*
X114125499Y35197872D01*
X114119091Y35257483D01*
X114068796Y35392331D01*
X113982546Y35507546D01*
X113867331Y35593796D01*
X113732483Y35644091D01*
X113672873Y35650500D01*
X113672869Y35650500D01*
X112127130Y35650500D01*
X112067515Y35644091D01*
X111932669Y35593796D01*
X111817454Y35507546D01*
X111731204Y35392332D01*
X111680909Y35257484D01*
X111674500Y35197870D01*
X111674500Y34702130D01*
X111681367Y34638255D01*
X111681367Y34611748D01*
X111674500Y34547871D01*
X111674500Y34052130D01*
X111681367Y33988255D01*
X111681367Y33961748D01*
X111676420Y33915740D01*
X111674783Y33900500D01*
X111674500Y33897871D01*
X111674500Y33402130D01*
X111681367Y33338255D01*
X111681367Y33311748D01*
X111674500Y33247871D01*
X111674500Y32752129D01*
X111681367Y32688253D01*
X111681367Y32661747D01*
X111678458Y32634689D01*
X111674628Y32599058D01*
X111674500Y32597871D01*
X111674500Y32102130D01*
X111681367Y32038255D01*
X111681367Y32011748D01*
X111674500Y31947871D01*
X111674500Y31452130D01*
X111681367Y31388255D01*
X111681367Y31361748D01*
X111674500Y31297871D01*
X111674500Y30802130D01*
X111681367Y30738255D01*
X111681367Y30711748D01*
X111674500Y30647871D01*
X111674500Y30152130D01*
X111681367Y30088255D01*
X111681367Y30061748D01*
X111674500Y29997871D01*
X111674500Y29502130D01*
X111681367Y29438255D01*
X111681367Y29411748D01*
X111674500Y29347871D01*
X111674500Y28852131D01*
X108525500Y28852131D01*
X108525499Y29130290D01*
X108541789Y29191727D01*
X108586380Y29237022D01*
X108611420Y29251830D01*
X108625585Y29265996D01*
X108640373Y29278627D01*
X108656587Y29290406D01*
X108684438Y29324074D01*
X108692279Y29332691D01*
X110383788Y31024200D01*
X110399885Y31037094D01*
X110401873Y31039213D01*
X110401877Y31039214D01*
X110447948Y31088277D01*
X110450566Y31090977D01*
X110470120Y31110529D01*
X110472581Y31113702D01*
X110480156Y31122573D01*
X110510062Y31154418D01*
X110519712Y31171973D01*
X110530400Y31188243D01*
X110542671Y31204062D01*
X110542673Y31204064D01*
X110560026Y31244168D01*
X110565157Y31254638D01*
X110586197Y31292908D01*
X110591175Y31312301D01*
X110597481Y31330718D01*
X110599018Y31334272D01*
X110605438Y31349104D01*
X110612272Y31392255D01*
X110614635Y31403669D01*
X110625500Y31445981D01*
X110625500Y31466016D01*
X110627027Y31485415D01*
X110630160Y31505196D01*
X110626050Y31548675D01*
X110625500Y31560344D01*
X110625500Y32301313D01*
X110633736Y32345751D01*
X110657347Y32384283D01*
X110732533Y32467784D01*
X110735265Y32472515D01*
X110827179Y32631716D01*
X110846841Y32692229D01*
X110885674Y32811744D01*
X110905460Y33000000D01*
X110885674Y33188256D01*
X110836936Y33338255D01*
X110827179Y33368285D01*
X110732533Y33532217D01*
X110605870Y33672890D01*
X110452730Y33784152D01*
X110279802Y33861145D01*
X110094648Y33900500D01*
X110094646Y33900500D01*
X109905354Y33900500D01*
X109905352Y33900500D01*
X109720197Y33861145D01*
X109547269Y33784152D01*
X109394129Y33672890D01*
X109267466Y33532217D01*
X109172820Y33368285D01*
X109114326Y33188258D01*
X109094540Y33000000D01*
X109114326Y32811743D01*
X109172820Y32631716D01*
X109267464Y32467787D01*
X109267467Y32467784D01*
X109342652Y32384283D01*
X109366264Y32345751D01*
X109374500Y32301313D01*
X109374500Y31835452D01*
X109365061Y31787999D01*
X109338181Y31747771D01*
X108736681Y31146272D01*
X108687318Y31116022D01*
X108629602Y31111480D01*
X108576115Y31133635D01*
X108538515Y31177658D01*
X108525000Y31233953D01*
X108525000Y31297831D01*
X108518380Y31359402D01*
X108518380Y31385916D01*
X108519089Y31392513D01*
X108519091Y31392517D01*
X108525500Y31452127D01*
X108525499Y31947872D01*
X108519091Y32007483D01*
X108519090Y32007485D01*
X108518632Y32011750D01*
X108518633Y32038260D01*
X108519091Y32042517D01*
X108525500Y32102127D01*
X108525499Y32597872D01*
X108519091Y32657483D01*
X108519090Y32657485D01*
X108518632Y32661750D01*
X108518633Y32688260D01*
X108519091Y32692517D01*
X108525500Y32752127D01*
X108525499Y33247872D01*
X108519091Y33307483D01*
X108519090Y33307485D01*
X108518632Y33311750D01*
X108518633Y33338260D01*
X108521861Y33368285D01*
X108525500Y33402127D01*
X108525499Y33897872D01*
X108519091Y33957483D01*
X108519090Y33957485D01*
X108518632Y33961748D01*
X108518633Y33988258D01*
X108519091Y33992517D01*
X108525500Y34052127D01*
X108525499Y34547872D01*
X108519091Y34607483D01*
X108519090Y34607485D01*
X108518632Y34611750D01*
X108518633Y34638260D01*
X108519091Y34642517D01*
X108525500Y34702127D01*
X108525499Y35197872D01*
X108519091Y35257483D01*
X108468796Y35392331D01*
X108382546Y35507546D01*
X108267331Y35593796D01*
X108132483Y35644091D01*
X108072873Y35650500D01*
X108072869Y35650500D01*
X106527130Y35650500D01*
X106467515Y35644091D01*
X106332669Y35593796D01*
X106217451Y35507545D01*
X106210991Y35498914D01*
X106155058Y35457045D01*
X106085367Y35452061D01*
X106024045Y35485546D01*
X105635802Y35873789D01*
X105622906Y35889887D01*
X105571775Y35937902D01*
X105568978Y35940613D01*
X105549470Y35960121D01*
X105546290Y35962588D01*
X105537424Y35970161D01*
X105505582Y36000062D01*
X105488024Y36009715D01*
X105471764Y36020396D01*
X105455936Y36032673D01*
X105415851Y36050020D01*
X105405361Y36055159D01*
X105367091Y36076198D01*
X105347691Y36081179D01*
X105329284Y36087481D01*
X105310897Y36095438D01*
X105267758Y36102271D01*
X105256324Y36104639D01*
X105214019Y36115500D01*
X105193984Y36115500D01*
X105174586Y36117027D01*
X105167162Y36118203D01*
X105154805Y36120160D01*
X105154804Y36120160D01*
X105121751Y36117036D01*
X105111325Y36116050D01*
X105099656Y36115500D01*
X60916625Y36115500D01*
X60877466Y36121846D01*
X60842314Y36140233D01*
X60832547Y36147545D01*
X60832546Y36147546D01*
X60717331Y36233796D01*
X60582483Y36284091D01*
X60522873Y36290500D01*
X60522869Y36290500D01*
X58959451Y36290500D01*
X58903156Y36304015D01*
X58859133Y36341615D01*
X58836978Y36395102D01*
X58841520Y36452818D01*
X58871770Y36502181D01*
X63369590Y41000001D01*
X89094540Y41000001D01*
X89114326Y40811743D01*
X89172820Y40631716D01*
X89267466Y40467784D01*
X89394129Y40327111D01*
X89547269Y40215849D01*
X89720197Y40138856D01*
X89905352Y40099500D01*
X89905354Y40099500D01*
X90094646Y40099500D01*
X90094648Y40099500D01*
X90218083Y40125738D01*
X90279803Y40138856D01*
X90452730Y40215849D01*
X90605871Y40327112D01*
X90611598Y40333474D01*
X90653312Y40363780D01*
X90703747Y40374500D01*
X142025501Y40374500D01*
X142087501Y40357887D01*
X142132888Y40312500D01*
X142149501Y40250500D01*
X142149501Y40199991D01*
X142160000Y40097204D01*
X142215186Y39930666D01*
X142307288Y39781343D01*
X142431342Y39657289D01*
X142431344Y39657288D01*
X142580666Y39565186D01*
X142692016Y39528288D01*
X142747202Y39510001D01*
X142757703Y39508929D01*
X142849991Y39499500D01*
X144150008Y39499501D01*
X144252797Y39510001D01*
X144419334Y39565186D01*
X144568656Y39657288D01*
X144692712Y39781344D01*
X144784814Y39930666D01*
X144784814Y39930669D01*
X144788178Y39936121D01*
X144827091Y39975605D01*
X144879321Y39994186D01*
X144934428Y39988151D01*
X144981398Y39958706D01*
X145128599Y39811505D01*
X145322170Y39675965D01*
X145536337Y39576097D01*
X145748070Y39519364D01*
X145764592Y39514937D01*
X145999999Y39494341D01*
X145999999Y39494342D01*
X146000000Y39494341D01*
X146235408Y39514937D01*
X146463663Y39576097D01*
X146677829Y39675965D01*
X146871401Y39811505D01*
X147038495Y39978599D01*
X147174035Y40172171D01*
X147273903Y40386337D01*
X147335063Y40614592D01*
X147350500Y40791034D01*
X147350500Y41208966D01*
X147335063Y41385408D01*
X147273903Y41613663D01*
X147174035Y41827829D01*
X147038495Y42021401D01*
X146871401Y42188495D01*
X146677830Y42324035D01*
X146463663Y42423903D01*
X146402501Y42440291D01*
X146235407Y42485064D01*
X145999999Y42505660D01*
X145764592Y42485064D01*
X145545825Y42426446D01*
X145481638Y42426446D01*
X145426051Y42458540D01*
X142581819Y45302772D01*
X142554939Y45343000D01*
X142545500Y45390453D01*
X142545500Y47906233D01*
X142561171Y47966572D01*
X142604222Y48011659D01*
X142646560Y48037875D01*
X142646559Y48037875D01*
X142646562Y48037876D01*
X142810981Y48187764D01*
X142945058Y48365311D01*
X143044229Y48564472D01*
X143105115Y48778464D01*
X143125643Y49000000D01*
X143105115Y49221536D01*
X143067927Y49352238D01*
X143044230Y49435527D01*
X142945058Y49634689D01*
X142810980Y49812238D01*
X142646562Y49962125D01*
X142457404Y50079246D01*
X142294343Y50142416D01*
X142249940Y50159618D01*
X142031243Y50200500D01*
X141808757Y50200500D01*
X141636328Y50168267D01*
X141590060Y50159618D01*
X141382595Y50079246D01*
X141193437Y49962125D01*
X141029019Y49812238D01*
X140894941Y49634689D01*
X140795769Y49435527D01*
X140734885Y49221538D01*
X140714357Y49000000D01*
X140734885Y48778463D01*
X140795769Y48564474D01*
X140894941Y48365312D01*
X141029019Y48187763D01*
X141193439Y48037875D01*
X141235778Y48011659D01*
X141278829Y47966572D01*
X141294500Y47906233D01*
X141294500Y45162744D01*
X141292235Y45142238D01*
X141294439Y45072127D01*
X141294500Y45068232D01*
X141294500Y45040651D01*
X141295003Y45036666D01*
X141295918Y45025033D01*
X141297290Y44981374D01*
X141302879Y44962140D01*
X141306825Y44943084D01*
X141309335Y44923208D01*
X141325414Y44882596D01*
X141329197Y44871549D01*
X141341382Y44829609D01*
X141351580Y44812365D01*
X141360136Y44794900D01*
X141367514Y44776268D01*
X141367515Y44776267D01*
X141393180Y44740941D01*
X141399593Y44731178D01*
X141421826Y44693584D01*
X141421829Y44693581D01*
X141421830Y44693580D01*
X141435995Y44679415D01*
X141448627Y44664625D01*
X141460406Y44648413D01*
X141494058Y44620574D01*
X141502699Y44612711D01*
X143403228Y42712181D01*
X143433478Y42662818D01*
X143438020Y42605102D01*
X143415865Y42551615D01*
X143371842Y42514015D01*
X143315547Y42500500D01*
X142849991Y42500500D01*
X142747203Y42490000D01*
X142580665Y42434814D01*
X142431342Y42342712D01*
X142307288Y42218658D01*
X142215186Y42069335D01*
X142160000Y41902798D01*
X142149500Y41800009D01*
X142149500Y41749500D01*
X142132887Y41687500D01*
X142087500Y41642113D01*
X142025500Y41625500D01*
X90703747Y41625500D01*
X90653312Y41636220D01*
X90611598Y41666527D01*
X90605871Y41672888D01*
X90452730Y41784151D01*
X90452729Y41784152D01*
X90452727Y41784153D01*
X90279802Y41861145D01*
X90094648Y41900500D01*
X90094646Y41900500D01*
X89905354Y41900500D01*
X89905352Y41900500D01*
X89720197Y41861145D01*
X89547269Y41784152D01*
X89394129Y41672890D01*
X89267466Y41532217D01*
X89172820Y41368285D01*
X89114326Y41188258D01*
X89094540Y41000001D01*
X63369590Y41000001D01*
X65394238Y43024649D01*
X72212052Y49842463D01*
X72253950Y49870019D01*
X72303338Y49878728D01*
X72352131Y49867163D01*
X72553504Y49773261D01*
X72773308Y49714365D01*
X73000000Y49694532D01*
X73226692Y49714365D01*
X73446496Y49773261D01*
X73652734Y49869432D01*
X73839139Y49999953D01*
X74000047Y50160861D01*
X74130568Y50347266D01*
X74226739Y50553504D01*
X74285635Y50773308D01*
X74305468Y51000000D01*
X74285635Y51226692D01*
X74226739Y51446496D01*
X74130568Y51652734D01*
X74129408Y51654390D01*
X74000046Y51839141D01*
X73839140Y52000047D01*
X73678377Y52112613D01*
X73639511Y52156931D01*
X73625500Y52214188D01*
X73625500Y54250500D01*
X73642113Y54312500D01*
X73687500Y54357887D01*
X73749500Y54374500D01*
X102689548Y54374500D01*
X102737001Y54365061D01*
X102777229Y54338181D01*
X105700586Y51414823D01*
X105732680Y51359236D01*
X105732680Y51295050D01*
X105714364Y51226693D01*
X105694531Y51000000D01*
X105714364Y50773311D01*
X105773261Y50553503D01*
X105869432Y50347265D01*
X105999953Y50160860D01*
X106160859Y49999954D01*
X106347264Y49869433D01*
X106347265Y49869433D01*
X106347266Y49869432D01*
X106553504Y49773261D01*
X106773308Y49714365D01*
X107000000Y49694532D01*
X107226692Y49714365D01*
X107446496Y49773261D01*
X107652734Y49869432D01*
X107726344Y49920974D01*
X111274526Y49920974D01*
X111347515Y49869867D01*
X111553673Y49773734D01*
X111773397Y49714859D01*
X112000000Y49695034D01*
X112226602Y49714859D01*
X112446326Y49773734D01*
X112652480Y49869866D01*
X112725472Y49920975D01*
X112000001Y50646447D01*
X112000000Y50646447D01*
X111274526Y49920975D01*
X111274526Y49920974D01*
X107726344Y49920974D01*
X107839139Y49999953D01*
X108000047Y50160861D01*
X108130568Y50347266D01*
X108226739Y50553504D01*
X108285635Y50773308D01*
X108305468Y51000000D01*
X108305468Y51000001D01*
X110695033Y51000001D01*
X110714858Y50773398D01*
X110773733Y50553674D01*
X110869866Y50347516D01*
X110920972Y50274529D01*
X110920974Y50274528D01*
X111646446Y50999999D01*
X111646446Y51000000D01*
X112353553Y51000000D01*
X113079025Y50274528D01*
X113130134Y50347520D01*
X113226266Y50553674D01*
X113285141Y50773398D01*
X113304966Y51000001D01*
X113285141Y51226603D01*
X113226266Y51446327D01*
X113130133Y51652485D01*
X113079025Y51725474D01*
X112353553Y51000002D01*
X112353553Y51000000D01*
X111646446Y51000000D01*
X111646446Y51000001D01*
X110920973Y51725474D01*
X110920973Y51725473D01*
X110869865Y51652484D01*
X110773733Y51446328D01*
X110714858Y51226603D01*
X110695033Y51000001D01*
X108305468Y51000001D01*
X108285635Y51226692D01*
X108226739Y51446496D01*
X108130568Y51652734D01*
X108129408Y51654390D01*
X108000046Y51839141D01*
X107839140Y52000047D01*
X107726344Y52079027D01*
X111274526Y52079027D01*
X112000000Y51353554D01*
X112000001Y51353554D01*
X112725472Y52079026D01*
X112725471Y52079028D01*
X112652484Y52130134D01*
X112446326Y52226267D01*
X112226602Y52285142D01*
X112000000Y52304967D01*
X111773397Y52285142D01*
X111553672Y52226267D01*
X111347516Y52130135D01*
X111274527Y52079027D01*
X111274526Y52079027D01*
X107726344Y52079027D01*
X107652735Y52130568D01*
X107446497Y52226739D01*
X107226689Y52285636D01*
X107000000Y52305469D01*
X106773307Y52285636D01*
X106704950Y52267320D01*
X106640764Y52267320D01*
X106585177Y52299414D01*
X103500802Y55383789D01*
X103487906Y55399887D01*
X103436775Y55447902D01*
X103433978Y55450613D01*
X103414470Y55470121D01*
X103411290Y55472588D01*
X103402424Y55480161D01*
X103370582Y55510062D01*
X103353024Y55519715D01*
X103336764Y55530396D01*
X103320936Y55542673D01*
X103280851Y55560020D01*
X103270361Y55565159D01*
X103232091Y55586198D01*
X103212691Y55591179D01*
X103194284Y55597481D01*
X103175897Y55605438D01*
X103132758Y55612271D01*
X103121324Y55614639D01*
X103079019Y55625500D01*
X103058984Y55625500D01*
X103039586Y55627027D01*
X103025689Y55629228D01*
X103019805Y55630160D01*
X103019804Y55630160D01*
X102993738Y55627696D01*
X102976325Y55626050D01*
X102964656Y55625500D01*
X73079019Y55625500D01*
X73070849Y55625500D01*
X73047615Y55627696D01*
X73039587Y55629228D01*
X72984241Y55625745D01*
X72976455Y55625500D01*
X66082740Y55625500D01*
X66062236Y55627764D01*
X65992144Y55625561D01*
X65988250Y55625500D01*
X65960648Y55625500D01*
X65956653Y55624996D01*
X65945029Y55624082D01*
X65901368Y55622710D01*
X65882129Y55617120D01*
X65863080Y55613175D01*
X65843208Y55610665D01*
X65802593Y55594585D01*
X65791549Y55590804D01*
X65749611Y55578618D01*
X65732364Y55568419D01*
X65714900Y55559864D01*
X65696267Y55552486D01*
X65660926Y55526811D01*
X65651168Y55520401D01*
X65613579Y55498171D01*
X65599410Y55484002D01*
X65584622Y55471372D01*
X65568413Y55459595D01*
X65540572Y55425942D01*
X65532711Y55417304D01*
X57777228Y47661819D01*
X57737000Y47634939D01*
X57689547Y47625500D01*
X54985150Y47625500D01*
X54938488Y47634615D01*
X54898685Y47660619D01*
X54871594Y47699690D01*
X54864174Y47716605D01*
X54864173Y47716607D01*
X54728164Y47924785D01*
X54559744Y48107738D01*
X54537612Y48124964D01*
X54363514Y48260471D01*
X54363510Y48260474D01*
X54363509Y48260474D01*
X54144810Y48378828D01*
X54144806Y48378830D01*
X54144805Y48378830D01*
X53909615Y48459571D01*
X53664335Y48500500D01*
X53415665Y48500500D01*
X53170384Y48459571D01*
X52935194Y48378830D01*
X52716485Y48260471D01*
X52520259Y48107741D01*
X52520256Y48107739D01*
X52520256Y48107738D01*
X52351836Y47924785D01*
X52339114Y47905312D01*
X52215825Y47716605D01*
X52125780Y47511322D01*
X52115937Y47488881D01*
X52078108Y47339499D01*
X52054891Y47247817D01*
X52034356Y47000000D01*
X52054891Y46752184D01*
X52054891Y46752181D01*
X52054892Y46752179D01*
X52115937Y46511119D01*
X52148702Y46436422D01*
X52215825Y46283396D01*
X52215827Y46283393D01*
X52351836Y46075215D01*
X52520256Y45892262D01*
X52520259Y45892260D01*
X52716485Y45739530D01*
X52716487Y45739529D01*
X52716491Y45739526D01*
X52935190Y45621172D01*
X53170386Y45540429D01*
X53415665Y45499500D01*
X53664335Y45499500D01*
X53909614Y45540429D01*
X54144810Y45621172D01*
X54363509Y45739526D01*
X54559744Y45892262D01*
X54728164Y46075215D01*
X54864173Y46283393D01*
X54866851Y46289500D01*
X54871594Y46300310D01*
X54898685Y46339381D01*
X54938488Y46365385D01*
X54985150Y46374500D01*
X57917256Y46374500D01*
X57937762Y46372236D01*
X57940665Y46372328D01*
X57940667Y46372327D01*
X58007872Y46374439D01*
X58011768Y46374500D01*
X58039349Y46374500D01*
X58039350Y46374500D01*
X58043319Y46375002D01*
X58054965Y46375920D01*
X58098627Y46377291D01*
X58117859Y46382880D01*
X58136918Y46386826D01*
X58143196Y46387619D01*
X58156792Y46389336D01*
X58197407Y46405418D01*
X58208444Y46409197D01*
X58250390Y46421382D01*
X58267629Y46431578D01*
X58285102Y46440138D01*
X58303732Y46447514D01*
X58339064Y46473186D01*
X58348830Y46479600D01*
X58358954Y46485587D01*
X58386420Y46501830D01*
X58400585Y46515996D01*
X58415373Y46528627D01*
X58431587Y46540406D01*
X58459438Y46574074D01*
X58467279Y46582691D01*
X61805563Y49920974D01*
X67274526Y49920974D01*
X67347515Y49869867D01*
X67553673Y49773734D01*
X67773397Y49714859D01*
X68000000Y49695034D01*
X68226602Y49714859D01*
X68446326Y49773734D01*
X68652480Y49869866D01*
X68725472Y49920975D01*
X68000001Y50646447D01*
X68000000Y50646447D01*
X67274526Y49920975D01*
X67274526Y49920974D01*
X61805563Y49920974D01*
X62884590Y51000001D01*
X66695033Y51000001D01*
X66714858Y50773398D01*
X66773733Y50553674D01*
X66869866Y50347516D01*
X66920972Y50274529D01*
X66920974Y50274528D01*
X67646446Y50999999D01*
X67646446Y51000000D01*
X67646445Y51000001D01*
X68353553Y51000001D01*
X69079025Y50274528D01*
X69130134Y50347520D01*
X69226266Y50553674D01*
X69285141Y50773398D01*
X69304966Y51000001D01*
X69285141Y51226603D01*
X69226266Y51446327D01*
X69130133Y51652485D01*
X69079025Y51725474D01*
X68353553Y51000001D01*
X67646445Y51000001D01*
X66920973Y51725474D01*
X66920973Y51725473D01*
X66869865Y51652484D01*
X66773733Y51446328D01*
X66714858Y51226603D01*
X66695033Y51000001D01*
X62884590Y51000001D01*
X63963616Y52079027D01*
X67274526Y52079027D01*
X68000000Y51353554D01*
X68000001Y51353554D01*
X68725472Y52079026D01*
X68725471Y52079028D01*
X68652484Y52130134D01*
X68446326Y52226267D01*
X68226602Y52285142D01*
X68000000Y52304967D01*
X67773397Y52285142D01*
X67553672Y52226267D01*
X67347516Y52130135D01*
X67274527Y52079027D01*
X67274526Y52079027D01*
X63963616Y52079027D01*
X66222771Y54338181D01*
X66263000Y54365061D01*
X66310453Y54374500D01*
X72250500Y54374500D01*
X72312500Y54357887D01*
X72357887Y54312500D01*
X72374500Y54250500D01*
X72374500Y52214188D01*
X72360489Y52156931D01*
X72321623Y52112613D01*
X72160859Y52000047D01*
X71999953Y51839141D01*
X71869432Y51652736D01*
X71773261Y51446498D01*
X71714364Y51226690D01*
X71707489Y51148108D01*
X71696343Y51106511D01*
X71671642Y51071235D01*
X54787180Y34186772D01*
X54737817Y34156522D01*
X54680101Y34151980D01*
X54626614Y34174135D01*
X54589014Y34218158D01*
X54575499Y34274453D01*
X54575499Y34567870D01*
X54575499Y34567873D01*
X54569091Y34627483D01*
X54518796Y34762331D01*
X54505052Y34780690D01*
X54483153Y34828644D01*
X54483153Y34881362D01*
X54505052Y34929311D01*
X54518796Y34947669D01*
X54569091Y35082517D01*
X54575500Y35142127D01*
X54575499Y35837872D01*
X54569091Y35897483D01*
X54518796Y36032331D01*
X54432546Y36147546D01*
X54317331Y36233796D01*
X54182483Y36284091D01*
X54122873Y36290500D01*
X54122869Y36290500D01*
X51477130Y36290500D01*
X51417515Y36284091D01*
X51282669Y36233796D01*
X51167454Y36147546D01*
X51081204Y36032332D01*
X51030909Y35897484D01*
X51024500Y35837870D01*
X51024500Y35142131D01*
X51030909Y35082516D01*
X51081204Y34947668D01*
X51094946Y34929312D01*
X51116846Y34881361D01*
X51116847Y34828645D01*
X51094949Y34780693D01*
X51081205Y34762334D01*
X51030909Y34627484D01*
X51024500Y34567870D01*
X51024500Y33872131D01*
X51030909Y33812516D01*
X51081204Y33677668D01*
X51094947Y33659310D01*
X51116846Y33611358D01*
X51116846Y33558642D01*
X51094947Y33510690D01*
X51081205Y33492334D01*
X51030909Y33357484D01*
X51024500Y33297870D01*
X51024500Y32602131D01*
X51030909Y32542516D01*
X51034751Y32532216D01*
X51059769Y32465138D01*
X51066224Y32447833D01*
X51073075Y32389046D01*
X51051898Y32333780D01*
X51007517Y32294624D01*
X50950042Y32280500D01*
X21945793Y32280500D01*
X21895357Y32291221D01*
X21853642Y32321529D01*
X21827861Y32366185D01*
X21827178Y32368286D01*
X21732533Y32532217D01*
X21605870Y32672890D01*
X21452730Y32784152D01*
X21279802Y32861145D01*
X21094648Y32900500D01*
X21094646Y32900500D01*
X20905354Y32900500D01*
X20905352Y32900500D01*
X20720197Y32861145D01*
X20547269Y32784152D01*
X20394129Y32672890D01*
X20267466Y32532217D01*
X20172820Y32368285D01*
X20114326Y32188258D01*
X20094540Y32000001D01*
X500Y32000001D01*
X500Y43210000D01*
X10823505Y43210000D01*
X10876240Y43024649D01*
X10975365Y42825578D01*
X11109390Y42648101D01*
X11273737Y42498279D01*
X11462821Y42381203D01*
X11670199Y42300865D01*
X11750000Y42285948D01*
X11750000Y43210000D01*
X12250000Y43210000D01*
X12250000Y42285948D01*
X12329800Y42300865D01*
X12537178Y42381203D01*
X12726262Y42498279D01*
X12890609Y42648101D01*
X13024634Y42825578D01*
X13123759Y43024649D01*
X13176495Y43210000D01*
X12250000Y43210000D01*
X11750000Y43210000D01*
X10823505Y43210000D01*
X500Y43210000D01*
X500Y43710000D01*
X10823505Y43710000D01*
X11750000Y43710000D01*
X11750000Y44634052D01*
X12250000Y44634052D01*
X12250000Y43710000D01*
X13176495Y43710000D01*
X13123759Y43895352D01*
X13024634Y44094423D01*
X12890609Y44271900D01*
X12726262Y44421722D01*
X12537178Y44538798D01*
X12329800Y44619136D01*
X12250000Y44634052D01*
X11750000Y44634052D01*
X11670199Y44619136D01*
X11462821Y44538798D01*
X11273737Y44421722D01*
X11109390Y44271900D01*
X10975365Y44094423D01*
X10876240Y43895352D01*
X10823505Y43710000D01*
X500Y43710000D01*
X500Y48540001D01*
X10794357Y48540001D01*
X10814885Y48318463D01*
X10875769Y48104474D01*
X10974941Y47905312D01*
X11109019Y47727763D01*
X11273437Y47577876D01*
X11462595Y47460755D01*
X11462597Y47460755D01*
X11462599Y47460753D01*
X11670060Y47380382D01*
X11888757Y47339500D01*
X12111242Y47339500D01*
X12111243Y47339500D01*
X12219429Y47359724D01*
X12278893Y47356286D01*
X12329894Y47325516D01*
X16764196Y42891213D01*
X16777096Y42875112D01*
X16828223Y42827100D01*
X16831020Y42824389D01*
X16850529Y42804880D01*
X16853711Y42802412D01*
X16862571Y42794845D01*
X16894417Y42764939D01*
X16894418Y42764938D01*
X16911970Y42755289D01*
X16928238Y42744603D01*
X16944064Y42732327D01*
X16984146Y42714983D01*
X16994633Y42709845D01*
X17032907Y42688803D01*
X17041410Y42686621D01*
X17052308Y42683822D01*
X17070713Y42677522D01*
X17089104Y42669563D01*
X17132250Y42662730D01*
X17143668Y42660365D01*
X17185981Y42649500D01*
X17206016Y42649500D01*
X17225415Y42647973D01*
X17245196Y42644840D01*
X17288674Y42648950D01*
X17300344Y42649500D01*
X27217561Y42649500D01*
X27238067Y42647236D01*
X27240970Y42647328D01*
X27240972Y42647327D01*
X27308177Y42649439D01*
X27312073Y42649500D01*
X27339654Y42649500D01*
X27339655Y42649500D01*
X27343624Y42650002D01*
X27355270Y42650920D01*
X27398932Y42652291D01*
X27418164Y42657880D01*
X27437223Y42661826D01*
X27445077Y42662818D01*
X27457097Y42664336D01*
X27497712Y42680418D01*
X27508749Y42684197D01*
X27550695Y42696382D01*
X27567934Y42706578D01*
X27585407Y42715138D01*
X27604037Y42722514D01*
X27639369Y42748186D01*
X27649135Y42754600D01*
X27686723Y42776829D01*
X27686722Y42776829D01*
X27686725Y42776830D01*
X27700890Y42790996D01*
X27715678Y42803627D01*
X27731892Y42815406D01*
X27759743Y42849074D01*
X27767584Y42857691D01*
X28108786Y43198893D01*
X28124881Y43211785D01*
X28126873Y43213907D01*
X28126877Y43213909D01*
X28172948Y43262972D01*
X28175566Y43265672D01*
X28195120Y43285224D01*
X28197581Y43288397D01*
X28205156Y43297268D01*
X28235062Y43329113D01*
X28244717Y43346677D01*
X28255394Y43362931D01*
X28267673Y43378759D01*
X28285018Y43418843D01*
X28290160Y43429339D01*
X28311197Y43467603D01*
X28316179Y43487011D01*
X28322481Y43505415D01*
X28330437Y43523799D01*
X28337269Y43566943D01*
X28339633Y43578357D01*
X28350500Y43620676D01*
X28350500Y43640711D01*
X28352027Y43660110D01*
X28352068Y43660374D01*
X28355160Y43679891D01*
X28351050Y43723370D01*
X28350500Y43735039D01*
X28350500Y49525548D01*
X28364015Y49581843D01*
X28401615Y49625866D01*
X28455102Y49648021D01*
X28512818Y49643479D01*
X28562181Y49613229D01*
X31549197Y46626213D01*
X31562098Y46610111D01*
X31564212Y46608126D01*
X31564214Y46608123D01*
X31595692Y46578563D01*
X31613240Y46562084D01*
X31616035Y46559375D01*
X31635530Y46539880D01*
X31638704Y46537418D01*
X31647568Y46529847D01*
X31679418Y46499938D01*
X31689914Y46494168D01*
X31696974Y46490286D01*
X31713231Y46479608D01*
X31729064Y46467326D01*
X31745185Y46460351D01*
X31769156Y46449977D01*
X31779643Y46444840D01*
X31817908Y46423803D01*
X31837316Y46418820D01*
X31855710Y46412522D01*
X31874105Y46404562D01*
X31917254Y46397729D01*
X31928680Y46395362D01*
X31944222Y46391371D01*
X31970980Y46384500D01*
X31970981Y46384500D01*
X31991016Y46384500D01*
X32010413Y46382974D01*
X32030196Y46379840D01*
X32073674Y46383950D01*
X32085344Y46384500D01*
X47014850Y46384500D01*
X47061512Y46375385D01*
X47101315Y46349381D01*
X47128406Y46310310D01*
X47135825Y46293396D01*
X47135827Y46293393D01*
X47271836Y46085215D01*
X47440256Y45902262D01*
X47440259Y45902260D01*
X47636485Y45749530D01*
X47636487Y45749529D01*
X47636491Y45749526D01*
X47855190Y45631172D01*
X48090386Y45550429D01*
X48335665Y45509500D01*
X48584335Y45509500D01*
X48829614Y45550429D01*
X49064810Y45631172D01*
X49283509Y45749526D01*
X49479744Y45902262D01*
X49648164Y46085215D01*
X49784173Y46293393D01*
X49884063Y46521119D01*
X49945108Y46762179D01*
X49965643Y47010000D01*
X49945108Y47257821D01*
X49884063Y47498881D01*
X49794016Y47704167D01*
X49784174Y47726605D01*
X49784173Y47726607D01*
X49648164Y47934785D01*
X49479744Y48117738D01*
X49389775Y48187764D01*
X49283514Y48270471D01*
X49283510Y48270474D01*
X49283509Y48270474D01*
X49064810Y48388828D01*
X49064806Y48388830D01*
X49064805Y48388830D01*
X48829615Y48469571D01*
X48584335Y48510500D01*
X48335665Y48510500D01*
X48090384Y48469571D01*
X47855194Y48388830D01*
X47855190Y48388829D01*
X47855190Y48388828D01*
X47767710Y48341487D01*
X47636485Y48270471D01*
X47440259Y48117741D01*
X47440256Y48117739D01*
X47440256Y48117738D01*
X47271836Y47934785D01*
X47249437Y47900500D01*
X47135825Y47726605D01*
X47128406Y47709690D01*
X47101315Y47670619D01*
X47061512Y47644615D01*
X47014850Y47635500D01*
X32360452Y47635500D01*
X32312999Y47644939D01*
X32272771Y47671819D01*
X28416135Y51528456D01*
X28384839Y51581203D01*
X28382650Y51642496D01*
X28410104Y51697341D01*
X28460484Y51732319D01*
X28472087Y51736647D01*
X28587188Y51822812D01*
X28673352Y51937911D01*
X28723597Y52072625D01*
X28730000Y52132176D01*
X28730000Y52151459D01*
X28747675Y52215264D01*
X28795662Y52260879D01*
X28860280Y52275300D01*
X29050936Y52265631D01*
X29050936Y52265632D01*
X29050937Y52265631D01*
X29252071Y52296444D01*
X29334413Y52326940D01*
X29442887Y52367114D01*
X29615571Y52474748D01*
X29763053Y52614941D01*
X29879295Y52781951D01*
X29959540Y52968942D01*
X30000500Y53168259D01*
X30000500Y54420742D01*
X29985074Y54572438D01*
X29924159Y54766588D01*
X29825409Y54944502D01*
X29692866Y55098895D01*
X29531958Y55223448D01*
X29531957Y55223449D01*
X29349272Y55313060D01*
X29283608Y55330062D01*
X29152285Y55364063D01*
X29131671Y55365109D01*
X28949062Y55374370D01*
X28747928Y55343557D01*
X28557113Y55272887D01*
X28384431Y55165255D01*
X28314623Y55098896D01*
X28236947Y55025059D01*
X28236946Y55025057D01*
X28120702Y54858046D01*
X28117351Y54850236D01*
X28084269Y54805137D01*
X28034734Y54779163D01*
X27978825Y54777599D01*
X27927916Y54800763D01*
X27860233Y54852698D01*
X27847315Y54858049D01*
X27720235Y54910688D01*
X27607721Y54925500D01*
X27607720Y54925500D01*
X27532280Y54925500D01*
X27532279Y54925500D01*
X27419764Y54910688D01*
X27279768Y54852699D01*
X27183935Y54779163D01*
X27159549Y54760451D01*
X27093221Y54674012D01*
X27049691Y54638288D01*
X26994847Y54625500D01*
X26989035Y54625500D01*
X26969637Y54627027D01*
X26962213Y54628203D01*
X26949856Y54630160D01*
X26949855Y54630160D01*
X26924519Y54627765D01*
X26906376Y54626050D01*
X26894707Y54625500D01*
X22512693Y54625500D01*
X22492185Y54627765D01*
X22422062Y54625561D01*
X22418168Y54625500D01*
X22390599Y54625500D01*
X22386621Y54624998D01*
X22374975Y54624083D01*
X22370281Y54623936D01*
X22313304Y54635818D01*
X22268024Y54672388D01*
X22200451Y54760451D01*
X22080233Y54852698D01*
X22067315Y54858049D01*
X21940235Y54910688D01*
X21827721Y54925500D01*
X21827720Y54925500D01*
X21752280Y54925500D01*
X21752279Y54925500D01*
X21639764Y54910688D01*
X21499768Y54852699D01*
X21499766Y54852698D01*
X21499767Y54852698D01*
X21432085Y54800763D01*
X21429146Y54798508D01*
X21381306Y54776005D01*
X21328442Y54775475D01*
X21280161Y54797014D01*
X21245240Y54836707D01*
X21185410Y54944500D01*
X21185409Y54944502D01*
X21052866Y55098895D01*
X20891958Y55223448D01*
X20891957Y55223449D01*
X20709272Y55313060D01*
X20643608Y55330062D01*
X20512285Y55364063D01*
X20491671Y55365109D01*
X20309062Y55374370D01*
X20107928Y55343557D01*
X19917113Y55272887D01*
X19744431Y55165255D01*
X19674623Y55098896D01*
X19596947Y55025059D01*
X19596946Y55025057D01*
X19480705Y54858050D01*
X19400460Y54671059D01*
X19390776Y54623936D01*
X19380194Y54572438D01*
X19359500Y54471739D01*
X19359500Y53219260D01*
X19374926Y53067560D01*
X19405868Y52968942D01*
X19435841Y52873412D01*
X19534591Y52695498D01*
X19667134Y52541105D01*
X19828042Y52416552D01*
X20010729Y52326940D01*
X20207715Y52275937D01*
X20410936Y52265631D01*
X20410936Y52265632D01*
X20410937Y52265631D01*
X20487223Y52277317D01*
X20540112Y52273963D01*
X20586770Y52248833D01*
X20618675Y52206518D01*
X20630000Y52154747D01*
X20630000Y52132176D01*
X20636402Y52072625D01*
X20686647Y51937911D01*
X20772811Y51822812D01*
X20887910Y51736648D01*
X21022624Y51686403D01*
X21082176Y51680000D01*
X21180000Y51680000D01*
X21180000Y52657854D01*
X21185683Y52694964D01*
X21202212Y52728672D01*
X21203712Y52730828D01*
X21250874Y52771329D01*
X21311766Y52783852D01*
X21371083Y52765247D01*
X21413917Y52720192D01*
X21429500Y52660010D01*
X21429500Y52132131D01*
X21435909Y52072516D01*
X21461056Y52005094D01*
X21486204Y51937669D01*
X21559962Y51839141D01*
X21572454Y51822454D01*
X21630311Y51779142D01*
X21666884Y51735379D01*
X21680000Y51679875D01*
X21680000Y51658057D01*
X21682117Y51654390D01*
X21682117Y51590202D01*
X21650023Y51534615D01*
X19317228Y49201819D01*
X19277000Y49174939D01*
X19229547Y49165500D01*
X13093742Y49165500D01*
X13038470Y49178500D01*
X12994788Y49214773D01*
X12890980Y49352238D01*
X12726562Y49502125D01*
X12537404Y49619246D01*
X12343068Y49694532D01*
X12329940Y49699618D01*
X12111243Y49740500D01*
X11888757Y49740500D01*
X11748949Y49714365D01*
X11670060Y49699618D01*
X11462595Y49619246D01*
X11273437Y49502125D01*
X11109019Y49352238D01*
X10974941Y49174689D01*
X10875769Y48975527D01*
X10814885Y48761538D01*
X10794357Y48540001D01*
X500Y48540001D01*
X500Y56932236D01*
X9145787Y56932236D01*
X9175413Y56662984D01*
X9243928Y56400913D01*
X9349871Y56151608D01*
X9490982Y55920389D01*
X9580253Y55813119D01*
X9664255Y55712180D01*
X9865998Y55531418D01*
X10091910Y55381956D01*
X10173825Y55343556D01*
X10337177Y55266979D01*
X10596562Y55188942D01*
X10596569Y55188940D01*
X10864561Y55149500D01*
X11067631Y55149500D01*
X11067634Y55149500D01*
X11270156Y55164323D01*
X11274340Y55165255D01*
X11534553Y55223220D01*
X11787558Y55319986D01*
X12023777Y55452559D01*
X12238177Y55618112D01*
X12426186Y55813119D01*
X12583799Y56033421D01*
X12707656Y56274325D01*
X12795118Y56530695D01*
X12844319Y56797067D01*
X12854212Y57067765D01*
X12824586Y57337018D01*
X12756072Y57599088D01*
X12734751Y57649260D01*
X19359500Y57649260D01*
X19374926Y57497560D01*
X19405868Y57398942D01*
X19435841Y57303412D01*
X19484442Y57215849D01*
X19527176Y57138856D01*
X19534591Y57125498D01*
X19667134Y56971105D01*
X19828042Y56846552D01*
X20010729Y56756940D01*
X20207715Y56705937D01*
X20410936Y56695631D01*
X20410936Y56695632D01*
X20410937Y56695631D01*
X20612071Y56726444D01*
X20694413Y56756940D01*
X20802887Y56797114D01*
X20975571Y56904748D01*
X21123053Y57044941D01*
X21239295Y57211951D01*
X21319540Y57398942D01*
X21360500Y57598259D01*
X21360500Y57649260D01*
X27999500Y57649260D01*
X28014926Y57497560D01*
X28045868Y57398942D01*
X28075841Y57303412D01*
X28124442Y57215849D01*
X28167176Y57138856D01*
X28174591Y57125498D01*
X28307134Y56971105D01*
X28468042Y56846552D01*
X28650729Y56756940D01*
X28847715Y56705937D01*
X29050936Y56695631D01*
X29050936Y56695632D01*
X29050937Y56695631D01*
X29252071Y56726444D01*
X29334413Y56756940D01*
X29442887Y56797114D01*
X29615571Y56904748D01*
X29763053Y57044941D01*
X29879295Y57211951D01*
X29959540Y57398942D01*
X30000500Y57598259D01*
X30000500Y58000000D01*
X96094540Y58000000D01*
X96114326Y57811743D01*
X96172820Y57631716D01*
X96267466Y57467784D01*
X96394129Y57327111D01*
X96547269Y57215849D01*
X96720197Y57138856D01*
X96905352Y57099500D01*
X96905354Y57099500D01*
X97094646Y57099500D01*
X97094648Y57099500D01*
X97218083Y57125738D01*
X97279803Y57138856D01*
X97452730Y57215849D01*
X97605871Y57327112D01*
X97611598Y57333474D01*
X97653312Y57363780D01*
X97703747Y57374500D01*
X137689548Y57374500D01*
X137737001Y57365061D01*
X137777229Y57338181D01*
X145780854Y49334556D01*
X145813191Y49278047D01*
X145812674Y49233281D01*
X145815945Y49232977D01*
X145794357Y49000000D01*
X145814885Y48778463D01*
X145875769Y48564474D01*
X145974941Y48365312D01*
X146109019Y48187763D01*
X146273437Y48037876D01*
X146462595Y47920755D01*
X146462597Y47920755D01*
X146462599Y47920753D01*
X146670060Y47840382D01*
X146888757Y47799500D01*
X147111241Y47799500D01*
X147111243Y47799500D01*
X147329940Y47840382D01*
X147537401Y47920753D01*
X147726562Y48037876D01*
X147746430Y48055988D01*
X147890980Y48187763D01*
X147890981Y48187764D01*
X148025058Y48365311D01*
X148124229Y48564472D01*
X148185115Y48778464D01*
X148205643Y49000000D01*
X157254357Y49000000D01*
X157274885Y48778463D01*
X157335769Y48564474D01*
X157434941Y48365312D01*
X157569019Y48187763D01*
X157733437Y48037876D01*
X157922595Y47920755D01*
X157922597Y47920755D01*
X157922599Y47920753D01*
X158130060Y47840382D01*
X158348757Y47799500D01*
X158571241Y47799500D01*
X158571243Y47799500D01*
X158789940Y47840382D01*
X158997401Y47920753D01*
X159186562Y48037876D01*
X159206430Y48055988D01*
X159350980Y48187763D01*
X159350981Y48187764D01*
X159485058Y48365311D01*
X159584229Y48564472D01*
X159645115Y48778464D01*
X159665643Y49000000D01*
X162334357Y49000000D01*
X162354885Y48778463D01*
X162415769Y48564474D01*
X162514941Y48365312D01*
X162649019Y48187763D01*
X162813437Y48037876D01*
X163002595Y47920755D01*
X163002597Y47920755D01*
X163002599Y47920753D01*
X163210060Y47840382D01*
X163428757Y47799500D01*
X163651241Y47799500D01*
X163651243Y47799500D01*
X163869940Y47840382D01*
X164077401Y47920753D01*
X164266562Y48037876D01*
X164286430Y48055988D01*
X164430980Y48187763D01*
X164430981Y48187764D01*
X164565058Y48365311D01*
X164664229Y48564472D01*
X164725115Y48778464D01*
X164745643Y49000000D01*
X171254357Y49000000D01*
X171274885Y48778463D01*
X171335769Y48564474D01*
X171434941Y48365312D01*
X171569019Y48187763D01*
X171733437Y48037876D01*
X171922595Y47920755D01*
X171922597Y47920755D01*
X171922599Y47920753D01*
X172130060Y47840382D01*
X172348757Y47799500D01*
X172571241Y47799500D01*
X172571243Y47799500D01*
X172789940Y47840382D01*
X172997401Y47920753D01*
X173186562Y48037876D01*
X173206430Y48055988D01*
X173350980Y48187763D01*
X173350981Y48187764D01*
X173485058Y48365311D01*
X173584229Y48564472D01*
X173645115Y48778464D01*
X173665643Y49000000D01*
X176334357Y49000000D01*
X176354885Y48778463D01*
X176415769Y48564474D01*
X176514941Y48365312D01*
X176649019Y48187763D01*
X176813437Y48037876D01*
X177002595Y47920755D01*
X177002597Y47920755D01*
X177002599Y47920753D01*
X177210060Y47840382D01*
X177428757Y47799500D01*
X177651241Y47799500D01*
X177651243Y47799500D01*
X177869940Y47840382D01*
X178077401Y47920753D01*
X178266562Y48037876D01*
X178286430Y48055988D01*
X178430980Y48187763D01*
X178430981Y48187764D01*
X178565058Y48365311D01*
X178664229Y48564472D01*
X178725115Y48778464D01*
X178745643Y49000000D01*
X178725115Y49221536D01*
X178687927Y49352238D01*
X178664230Y49435527D01*
X178565058Y49634689D01*
X178430980Y49812238D01*
X178266562Y49962125D01*
X178077404Y50079246D01*
X177914343Y50142416D01*
X177869940Y50159618D01*
X177651243Y50200500D01*
X177428757Y50200500D01*
X177256328Y50168267D01*
X177210060Y50159618D01*
X177002595Y50079246D01*
X176813437Y49962125D01*
X176649019Y49812238D01*
X176514941Y49634689D01*
X176415769Y49435527D01*
X176354885Y49221538D01*
X176334357Y49000000D01*
X173665643Y49000000D01*
X173645115Y49221536D01*
X173607927Y49352238D01*
X173584230Y49435527D01*
X173485058Y49634689D01*
X173350980Y49812238D01*
X173186562Y49962125D01*
X172997404Y50079246D01*
X172834343Y50142416D01*
X172789940Y50159618D01*
X172571243Y50200500D01*
X172348757Y50200500D01*
X172176328Y50168267D01*
X172130060Y50159618D01*
X171922595Y50079246D01*
X171733437Y49962125D01*
X171569019Y49812238D01*
X171434941Y49634689D01*
X171335769Y49435527D01*
X171274885Y49221538D01*
X171254357Y49000000D01*
X164745643Y49000000D01*
X164725115Y49221536D01*
X164687927Y49352238D01*
X164664230Y49435527D01*
X164565058Y49634689D01*
X164430980Y49812238D01*
X164266562Y49962125D01*
X164077404Y50079246D01*
X163914343Y50142416D01*
X163869940Y50159618D01*
X163651243Y50200500D01*
X163428757Y50200500D01*
X163256328Y50168267D01*
X163210060Y50159618D01*
X163002595Y50079246D01*
X162813437Y49962125D01*
X162649019Y49812238D01*
X162514941Y49634689D01*
X162415769Y49435527D01*
X162354885Y49221538D01*
X162334357Y49000000D01*
X159665643Y49000000D01*
X159645115Y49221536D01*
X159607927Y49352238D01*
X159584230Y49435527D01*
X159485058Y49634689D01*
X159350980Y49812238D01*
X159186562Y49962125D01*
X158997404Y50079246D01*
X158834343Y50142416D01*
X158789940Y50159618D01*
X158571243Y50200500D01*
X158348757Y50200500D01*
X158176328Y50168267D01*
X158130060Y50159618D01*
X157922595Y50079246D01*
X157733437Y49962125D01*
X157569019Y49812238D01*
X157434941Y49634689D01*
X157335769Y49435527D01*
X157274885Y49221538D01*
X157254357Y49000000D01*
X148205643Y49000000D01*
X148185115Y49221536D01*
X148147927Y49352238D01*
X148124230Y49435527D01*
X148025058Y49634689D01*
X147890980Y49812238D01*
X147726562Y49962125D01*
X147537404Y50079246D01*
X147374343Y50142416D01*
X147329940Y50159618D01*
X147111243Y50200500D01*
X146888757Y50200500D01*
X146850446Y50193339D01*
X146780570Y50180277D01*
X146721106Y50183715D01*
X146670105Y50214485D01*
X139952355Y56932236D01*
X189145787Y56932236D01*
X189175413Y56662984D01*
X189243928Y56400913D01*
X189349871Y56151608D01*
X189490982Y55920389D01*
X189580253Y55813119D01*
X189664255Y55712180D01*
X189865998Y55531418D01*
X190091910Y55381956D01*
X190173825Y55343556D01*
X190337177Y55266979D01*
X190596562Y55188942D01*
X190596569Y55188940D01*
X190864561Y55149500D01*
X191067631Y55149500D01*
X191067634Y55149500D01*
X191270156Y55164323D01*
X191274340Y55165255D01*
X191534553Y55223220D01*
X191787558Y55319986D01*
X192023777Y55452559D01*
X192238177Y55618112D01*
X192426186Y55813119D01*
X192583799Y56033421D01*
X192707656Y56274325D01*
X192795118Y56530695D01*
X192844319Y56797067D01*
X192854212Y57067765D01*
X192824586Y57337018D01*
X192756072Y57599088D01*
X192650130Y57848390D01*
X192577999Y57966580D01*
X192509017Y58079612D01*
X192335746Y58287819D01*
X192245941Y58368284D01*
X192134002Y58468582D01*
X191908090Y58618044D01*
X191888928Y58627027D01*
X191662822Y58733022D01*
X191403437Y58811059D01*
X191403431Y58811060D01*
X191135439Y58850500D01*
X190932369Y58850500D01*
X190932366Y58850500D01*
X190729843Y58835678D01*
X190465449Y58776781D01*
X190212441Y58680014D01*
X189976223Y58547441D01*
X189761825Y58381891D01*
X189573813Y58186880D01*
X189416201Y57966580D01*
X189292342Y57725671D01*
X189204881Y57469305D01*
X189155680Y57202934D01*
X189145787Y56932236D01*
X139952355Y56932236D01*
X138500802Y58383789D01*
X138487906Y58399887D01*
X138436775Y58447902D01*
X138433978Y58450613D01*
X138414470Y58470121D01*
X138411290Y58472588D01*
X138402424Y58480161D01*
X138370582Y58510062D01*
X138353024Y58519715D01*
X138336764Y58530396D01*
X138320936Y58542673D01*
X138280851Y58560020D01*
X138270361Y58565159D01*
X138232091Y58586198D01*
X138212691Y58591179D01*
X138194284Y58597481D01*
X138175897Y58605438D01*
X138132758Y58612271D01*
X138121324Y58614639D01*
X138079019Y58625500D01*
X138058984Y58625500D01*
X138039586Y58627027D01*
X138032162Y58628203D01*
X138019805Y58630160D01*
X138019804Y58630160D01*
X137986751Y58627036D01*
X137976325Y58626050D01*
X137964656Y58625500D01*
X97703747Y58625500D01*
X97653312Y58636220D01*
X97611598Y58666527D01*
X97605871Y58672888D01*
X97452730Y58784151D01*
X97452729Y58784152D01*
X97452727Y58784153D01*
X97279802Y58861145D01*
X97094648Y58900500D01*
X97094646Y58900500D01*
X96905354Y58900500D01*
X96905352Y58900500D01*
X96720197Y58861145D01*
X96547269Y58784152D01*
X96394129Y58672890D01*
X96267466Y58532217D01*
X96172820Y58368285D01*
X96114326Y58188258D01*
X96094540Y58000000D01*
X30000500Y58000000D01*
X30000500Y58350742D01*
X29985074Y58502438D01*
X29924159Y58696588D01*
X29825409Y58874502D01*
X29692866Y59028895D01*
X29531958Y59153448D01*
X29531957Y59153449D01*
X29349272Y59243060D01*
X29283608Y59260062D01*
X29152285Y59294063D01*
X29131670Y59295109D01*
X28949062Y59304370D01*
X28747928Y59273557D01*
X28557113Y59202887D01*
X28384431Y59095255D01*
X28314623Y59028896D01*
X28236947Y58955059D01*
X28236946Y58955057D01*
X28120705Y58788050D01*
X28042339Y58605438D01*
X28040460Y58601058D01*
X28009259Y58449227D01*
X27999500Y58401739D01*
X27999500Y57649260D01*
X21360500Y57649260D01*
X21360500Y58350742D01*
X21345074Y58502438D01*
X21284159Y58696588D01*
X21185409Y58874502D01*
X21052866Y59028895D01*
X20891958Y59153448D01*
X20891957Y59153449D01*
X20709272Y59243060D01*
X20643608Y59260062D01*
X20512285Y59294063D01*
X20491670Y59295109D01*
X20309062Y59304370D01*
X20107928Y59273557D01*
X19917113Y59202887D01*
X19744431Y59095255D01*
X19674623Y59028896D01*
X19596947Y58955059D01*
X19596946Y58955057D01*
X19480705Y58788050D01*
X19402339Y58605438D01*
X19400460Y58601058D01*
X19369259Y58449227D01*
X19359500Y58401739D01*
X19359500Y57649260D01*
X12734751Y57649260D01*
X12650130Y57848390D01*
X12577999Y57966580D01*
X12509017Y58079612D01*
X12335746Y58287819D01*
X12245941Y58368284D01*
X12134002Y58468582D01*
X11908090Y58618044D01*
X11888928Y58627027D01*
X11662822Y58733022D01*
X11403437Y58811059D01*
X11403431Y58811060D01*
X11135439Y58850500D01*
X10932369Y58850500D01*
X10932366Y58850500D01*
X10729843Y58835678D01*
X10465449Y58776781D01*
X10212441Y58680014D01*
X9976223Y58547441D01*
X9761825Y58381891D01*
X9573813Y58186880D01*
X9416201Y57966580D01*
X9292342Y57725671D01*
X9204881Y57469305D01*
X9155680Y57202934D01*
X9145787Y56932236D01*
X500Y56932236D01*
X500Y62875500D01*
X17113Y62937500D01*
X62500Y62982887D01*
X124500Y62999500D01*
X199875500Y62999500D01*
X199937500Y62982887D01*
G37*
%TD.AperFunction*%
%TD*%
M02*
