M48
; DRILL file {KiCad 7.0.1} date Fri Aug  4 20:18:20 2023
; FORMAT={-:-/ absolute / metric / decimal}
; #@! TF.CreationDate,2023-08-04T20:18:20+09:00
; #@! TF.GenerationSoftware,Kicad,Pcbnew,7.0.1
; #@! TF.FileFunction,Plated,1,2,PTH
FMAT,2
METRIC
; #@! TA.AperFunction,Plated,PTH,ViaDrill
T1C0.400
; #@! TA.AperFunction,Plated,PTH,ComponentDrill
T2C0.600
; #@! TA.AperFunction,Plated,PTH,ComponentDrill
T3C0.700
; #@! TA.AperFunction,Plated,PTH,ComponentDrill
T4C0.800
; #@! TA.AperFunction,Plated,PTH,ComponentDrill
T5C1.000
%
G90
G05
T1
X5.0Y47.0
X11.0Y35.0
X18.0Y50.0
X18.0Y29.0
X18.0Y17.0
X21.0Y47.0
X21.0Y32.0
X24.0Y45.0
X25.0Y47.0
X27.0Y44.0
X27.0Y30.0
X30.0Y15.0
X39.0Y52.0
X41.0Y39.0
X42.0Y19.0
X43.0Y59.0
X46.0Y4.0
X57.0Y57.0
X68.0Y8.0
X73.0Y30.0
X73.0Y22.0
X78.0Y45.0
X85.0Y10.0
X90.0Y41.0
X90.0Y27.0
X91.0Y59.0
X91.0Y46.0
X97.0Y58.0
X97.0Y22.0
X98.0Y11.0
X103.0Y49.0
X104.0Y21.0
X105.05Y31.05
X110.0Y33.0
X113.0Y17.0
X115.0Y5.0
X125.0Y29.0
X126.0Y45.0
X128.0Y52.0
X129.0Y38.0
X131.0Y5.0
X137.0Y14.0
X152.0Y44.0
X152.0Y38.0
X152.0Y10.0
X153.0Y27.0
X156.0Y58.0
X168.0Y46.0
X168.0Y39.0
X170.0Y27.0
X170.0Y16.0
X173.0Y56.0
X184.0Y15.0
X188.0Y41.0
X191.0Y28.0
T3
X12.0Y48.54
X12.0Y43.46
X141.92Y49.0
X141.92Y15.0
X142.46Y32.0
X147.0Y49.0
X147.0Y15.0
X147.54Y32.0
X157.92Y15.0
X158.46Y49.0
X158.46Y32.0
X163.0Y15.0
X163.54Y49.0
X163.54Y32.0
X172.46Y49.0
X172.46Y32.0
X177.54Y49.0
X177.54Y32.0
T4
X53.0Y14.0
X58.0Y14.0
X68.0Y51.0
X73.0Y51.0
X107.0Y51.0
X112.0Y51.0
T5
X48.46Y47.01
X53.54Y47.0
X143.5Y41.0
X143.5Y24.0
X143.5Y8.0
X146.0Y41.0
X146.0Y24.0
X146.0Y8.0
X159.0Y8.0
X159.5Y41.0
X159.5Y24.0
X161.5Y8.0
X162.0Y41.0
X162.0Y24.0
X173.5Y41.0
X173.5Y24.0
X173.5Y8.0
X176.0Y41.0
X176.0Y24.0
X176.0Y8.0
T2
G00X20.36Y57.7
M15
G01X20.36Y58.3
M16
G05
G00X20.36Y53.27
M15
G01X20.36Y54.37
M16
G05
G00X29.0Y57.7
M15
G01X29.0Y58.3
M16
G05
G00X29.0Y53.27
M15
G01X29.0Y54.37
M16
G05
T0
M30
